<svg width="40" height="40" viewBox="0 0 40 40" fill="none" xmlns="http://www.w3.org/2000/svg">
<g clip-path="url(#clip0_51_616)">
<path fill-rule="evenodd" clip-rule="evenodd" d="M19.9362 0.605957C23.542 0.647103 26.7994 1.53328 29.7085 3.2645C32.5829 4.96115 34.974 7.36686 36.6531 10.2516C38.3738 13.1782 39.2546 16.4554 39.2956 20.083C39.1935 25.0466 37.6279 29.2859 34.599 32.8011C31.5701 36.3163 27.6908 38.4909 23.675 39.3246V25.4084H27.4716L28.3302 19.9396H22.5813V16.3578C22.5493 15.6152 22.7842 14.8857 23.2433 14.3013C23.7031 13.7152 24.5127 13.4071 25.6722 13.3771H29.1438V8.58664C29.094 8.57061 28.6213 8.50724 27.7258 8.39651C26.7102 8.27768 25.6889 8.21422 24.6664 8.20639C22.3522 8.21706 20.522 8.86986 19.1757 10.1648C17.8294 11.4593 17.1417 13.3323 17.1125 15.7836V19.9396H12.7375V25.4084H17.1125V39.3246C12.1817 38.4909 8.30239 36.3163 5.27348 32.8011C2.24458 29.2859 0.679107 25.0466 0.576904 20.083C0.617795 16.4552 1.49862 13.178 3.21937 10.2516C4.8985 7.36686 7.2896 4.96115 10.164 3.2645C13.0731 1.53362 16.3305 0.647436 19.9362 0.605957Z" fill="black"/>
</g>
<defs>
<clipPath id="clip0_51_616">
<rect width="40" height="40" fill="white"/>
</clipPath>
</defs>
</svg>
