<svg width="39" height="39" viewBox="0 0 39 39" fill="none" xmlns="http://www.w3.org/2000/svg">
<g clip-path="url(#clip0_51_618)">
<path d="M19.8838 39.0004C19.7547 39.0004 19.6256 39.0004 19.4955 38.9998C16.4385 39.0072 13.6139 38.9296 10.867 38.7623C8.34855 38.6091 6.04971 37.7388 4.21861 36.2457C2.45178 34.805 1.24523 32.8569 0.632584 30.4563C0.0993805 28.3664 0.0711136 26.3148 0.0440369 24.3304C0.0243988 22.9067 0.00416565 21.2196 0 19.5039C0.00416565 17.7812 0.0243988 16.0941 0.0440369 14.6703C0.0711136 12.6863 0.0993805 10.6347 0.632584 8.54442C1.24523 6.14382 2.45178 4.19578 4.21861 2.75506C6.04971 1.26198 8.34855 0.391652 10.8673 0.238416C13.6142 0.0714925 16.4394 -0.0064647 19.503 0.000973962C22.5609 -0.00557206 25.3846 0.0714925 28.1315 0.238416C30.6499 0.391652 32.9488 1.26198 34.7799 2.75506C36.547 4.19578 37.7533 6.14382 38.3659 8.54442C38.8991 10.6344 38.9274 12.6863 38.9545 14.6703C38.9741 16.0941 38.9946 17.7812 38.9985 19.4968V19.5039C38.9946 21.2196 38.9741 22.9067 38.9545 24.3304C38.9274 26.3145 38.8994 28.3661 38.3659 30.4563C37.7533 32.8569 36.547 34.805 34.7799 36.2457C32.9488 37.7388 30.6499 38.6091 28.1315 38.7623C25.5009 38.9224 22.7986 39.0004 19.8838 39.0004ZM19.4955 35.9529C22.5028 35.96 25.2641 35.8842 27.9464 35.7211C29.8507 35.6054 31.5018 34.9874 32.8545 33.8844C34.1048 32.8647 34.9659 31.4579 35.4137 29.7029C35.8576 27.9632 35.8832 26.0952 35.9079 24.2888C35.9272 22.8746 35.9475 21.1994 35.9516 19.5004C35.9475 17.8011 35.9272 16.1262 35.9079 14.712C35.8832 12.9056 35.8576 11.0376 35.4137 9.29751C34.9659 7.54258 34.1048 6.13578 32.8545 5.11609C31.5018 4.01339 29.8507 3.39538 27.9464 3.27964C25.2641 3.11628 22.5028 3.04101 19.5027 3.04755C16.496 3.04041 13.7344 3.11628 11.0521 3.27964C9.14776 3.39538 7.49668 4.01339 6.14403 5.11609C4.89374 6.13578 4.03265 7.54258 3.58484 9.29751C3.1409 11.0376 3.11531 12.9053 3.09061 14.712C3.07127 16.1274 3.05104 17.8035 3.04687 19.5039C3.05104 21.197 3.07127 22.8734 3.09061 24.2888C3.11531 26.0952 3.1409 27.9632 3.58484 29.7029C4.03265 31.4579 4.89374 32.8647 6.14403 33.8844C7.49668 34.9871 9.14776 35.6051 11.0521 35.7208C13.7344 35.8842 16.4966 35.9603 19.4955 35.9529ZM19.4229 29.0219C14.173 29.0219 9.90145 24.7506 9.90145 19.5004C9.90145 14.2502 14.173 9.97889 19.4229 9.97889C24.6731 9.97889 28.9444 14.2502 28.9444 19.5004C28.9444 24.7506 24.6731 29.0219 19.4229 29.0219ZM19.4229 13.0258C15.853 13.0258 12.9483 15.9304 12.9483 19.5004C12.9483 23.0703 15.853 25.975 19.4229 25.975C22.9932 25.975 25.8975 23.0703 25.8975 19.5004C25.8975 15.9304 22.9932 13.0258 19.4229 13.0258ZM30.0108 6.93202C28.7489 6.93202 27.7257 7.95498 27.7257 9.21717C27.7257 10.4794 28.7489 11.5023 30.0108 11.5023C31.273 11.5023 32.296 10.4794 32.296 9.21717C32.296 7.95498 31.273 6.93202 30.0108 6.93202Z" fill="black"/>
</g>
<defs>
<clipPath id="clip0_51_618">
<rect width="39" height="39" fill="white"/>
</clipPath>
</defs>
</svg>
