<svg width="44" height="44" viewBox="0 0 44 44" fill="none" xmlns="http://www.w3.org/2000/svg">
<path d="M42.285 9.17526C40.6967 7.28723 37.7643 6.51709 32.1641 6.51709H11.8354C6.10706 6.51709 3.12499 7.33691 1.5427 9.347C0 11.3068 0 14.1945 0 18.1911V25.8087C0 33.5514 1.8304 37.4826 11.8354 37.4826H32.1643C37.0207 37.4826 39.7118 36.803 41.4528 35.1368C43.2382 33.4282 44 30.6385 44 25.8087V18.1911C44 13.9764 43.8806 11.0717 42.285 9.17526ZM28.2481 23.0516L19.0169 27.8761C18.8106 27.984 18.5849 28.0375 18.3595 28.0375C18.1043 28.0375 17.8497 27.9688 17.6241 27.8322C17.1995 27.5749 16.9401 27.1146 16.9401 26.6181V17C16.9401 16.5044 17.1987 16.0445 17.6226 15.787C18.0465 15.5296 18.5738 15.512 19.0137 15.7405L28.2449 20.5339C28.7145 20.7778 29.0095 21.2626 29.0102 21.7916C29.0108 22.321 28.7171 22.8066 28.2481 23.0516Z" fill="black"/>
</svg>
