<svg width="70" height="70" viewBox="0 0 70 70" fill="none" xmlns="http://www.w3.org/2000/svg">
<path d="M15.3431 19.6536V39.4902H54.6525V19.6536C54.6525 8.81723 45.8353 0 34.9967 0C24.1581 0 15.3431 8.81723 15.3431 19.6536ZM18.6495 19.6536C18.6495 10.6248 25.9678 3.30426 34.9967 3.30426C44.0255 3.30426 51.3438 10.6248 51.3438 19.6536V36.1837H18.6495V19.6536Z" fill="#F3F3F3"/>
<path d="M18.6496 19.6536V36.1837H51.3461V19.6536C51.3461 10.6247 44.0277 3.3042 34.9989 3.3042C25.9701 3.3042 18.6496 10.6247 18.6496 19.6536ZM21.956 19.6536C21.956 12.4631 27.8062 6.61287 34.9989 6.61287C42.1916 6.61287 48.0418 12.4631 48.0418 19.6536V32.8772H21.956V19.6536Z" fill="#E5E5E5"/>
<path d="M13.0616 70H56.9384C59.3719 70 61.347 68.0271 61.347 65.5913V33.7281C61.347 31.2945 59.3719 29.3195 56.9384 29.3195H13.0616C10.6259 29.3195 8.65302 31.2945 8.65302 33.7281V65.5913C8.65302 68.0271 10.6259 70 13.0616 70Z" fill="#FFCC5B"/>
<path d="M42.6743 52.4801H44.343C45.7581 52.4801 46.9044 51.3273 46.8956 49.9121V49.7358V49.6983C46.9044 48.2082 45.692 46.9892 44.2041 46.9892H42.0461C40.3973 46.9892 38.9182 45.7548 38.8322 44.1082C38.7396 42.3513 40.1371 40.8987 41.8741 40.8987H49.6598C51.1322 40.8987 52.23 39.6621 52.2123 38.1896C52.2123 38.1786 52.2123 38.1654 52.2123 38.1521C52.2123 38.1389 52.2123 38.1279 52.2123 38.1147C52.23 36.6422 51.1322 35.4078 49.6598 35.4078H47.1424C45.4936 35.4078 44.0145 34.1733 43.9286 32.5267C43.836 30.7699 45.2335 29.3173 46.9705 29.3173H56.9384C59.3719 29.3173 61.347 31.2901 61.347 33.7259V65.5891C61.347 68.0249 59.3719 69.9978 56.9384 69.9978H44.0277C42.3459 69.9978 40.9814 68.6333 40.9814 66.9514C40.9814 65.2695 42.3459 63.9051 44.0277 63.9051H48.1013C49.5099 63.9051 50.6561 62.7522 50.6495 61.3436V61.3106C50.6495 61.2489 50.6517 61.1871 50.6561 61.1254C50.7399 59.7367 49.6377 58.5662 48.2468 58.5662H42.8462C41.1974 58.5662 39.7183 57.3318 39.6324 55.6852C39.542 53.9328 40.9395 52.4801 42.6743 52.4801Z" fill="#FDBC4B"/>
<path d="M28.375 45.9047C28.375 42.2456 31.342 39.2808 34.9989 39.2808C38.658 39.2808 41.6228 42.2478 41.6228 45.9047C41.6228 48.3471 40.2848 50.4588 38.3164 51.6073L39.2246 60.0387H30.771L31.6792 51.6073C29.7108 50.4588 28.375 48.3493 28.375 45.9047Z" fill="#464646"/>
<path d="M15.3431 45.6842C16.5599 45.6842 17.5474 46.6695 17.5474 47.8885V60.5721C17.5474 61.7911 16.5599 62.7764 15.3431 62.7764C14.1263 62.7764 13.1388 61.7911 13.1388 60.5721V47.8885C13.1388 46.6717 14.1263 45.6842 15.3431 45.6842Z" fill="#FFD769"/>
<path d="M15.3431 36.543C16.5599 36.543 17.5474 37.5283 17.5474 38.7473V41.3285C17.5474 42.5475 16.5599 43.5328 15.3431 43.5328C14.1263 43.5328 13.1388 42.5475 13.1388 41.3285V38.7473C13.1388 37.5283 14.1263 36.543 15.3431 36.543Z" fill="#FFD769"/>
</svg>
