<svg width="85" height="85" viewBox="0 0 85 85" fill="none" xmlns="http://www.w3.org/2000/svg">
<path d="M62.9664 25.7466L49.334 45.5205H59.5735C61.3202 45.5205 62.2052 47.6228 60.9847 48.872L26.2866 84.3879C24.7332 85.9779 22.1453 84.1841 23.0891 82.1716L35.3773 55.9694H27.2447C25.7462 55.9694 24.7948 54.3645 25.5138 53.0498L34.5811 36.4708H22.7785C21.2976 36.4708 20.3447 34.9 21.0287 33.5867L37.9664 1.06419C38.3063 0.411748 38.9806 0.00268555 39.7162 0.00268555H62.2198C63.791 0.00268555 64.7318 1.74983 63.8669 3.06169L50.9479 22.6542H61.3419C62.9317 22.6539 63.8687 24.4377 62.9664 25.7466Z" fill="#FFCE29"/>
<g opacity="0.4">
<path d="M38.5374 10.7269L41.2854 5.44774C41.6312 4.78351 41.3731 3.96472 40.7089 3.61908C40.0446 3.27327 39.2258 3.53142 38.8802 4.19565L36.1321 9.47478C35.6623 10.3774 36.3172 11.4567 37.3348 11.4567C37.8404 11.4567 38.304 11.1753 38.5374 10.7269Z" fill="white"/>
</g>
<g opacity="0.08">
<path d="M60.9815 48.8747L26.2871 84.3919C25.0574 85.6397 23.1856 84.7897 22.9234 83.3792L56.6324 48.8747C57.8531 47.6269 56.9761 45.52 55.2218 45.52H59.571C61.3162 45.52 62.2022 47.6269 60.9815 48.8747Z" fill="black"/>
<path d="M62.9709 25.7451L49.3353 45.5202C47.4949 45.5202 46.4103 43.4548 47.4551 41.9396L58.6216 25.7451C59.5168 24.4339 58.5854 22.6527 56.994 22.6527H61.3433C62.9347 22.6527 63.866 24.4339 62.9709 25.7451Z" fill="black"/>
<path d="M63.866 3.0585L50.9449 22.6527H50.8376C49.0186 22.6527 47.9295 20.6299 48.9309 19.1112L59.5168 3.0585C60.3849 1.74731 59.4444 0.00231935 57.8711 0.00231935H62.2203C63.7937 0.00215333 64.7341 1.74731 63.866 3.0585Z" fill="black"/>
</g>
</svg>
