<svg width="80" height="80" viewBox="0 0 80 80" fill="none" xmlns="http://www.w3.org/2000/svg">
<path fill-rule="evenodd" clip-rule="evenodd" d="M33.117 2.61386L55.0918 12.033C56.0136 12.4281 56.5819 13.2841 56.5819 14.2892V32.6217C56.5819 47.2634 46.0954 58.5679 31.9076 61.0388C17.7197 58.5679 7.23654 47.2634 7.23654 32.6217V14.2892C7.23654 13.2841 7.8014 12.4281 8.72329 12.033L30.698 2.61386C31.4987 2.27064 32.3165 2.27064 33.117 2.61386Z" fill="#8AC9FE"/>
<path fill-rule="evenodd" clip-rule="evenodd" d="M49.1484 9.48584L55.0918 12.033C56.0136 12.4281 56.582 13.2841 56.582 14.2891V32.6217C56.582 40.1694 53.7923 46.8336 49.1484 51.8553V9.48584Z" fill="#60B7FF"/>
<path fill-rule="evenodd" clip-rule="evenodd" d="M32.8745 8.11703L50.7704 15.7862C51.4634 16.0842 51.8863 16.7253 51.8863 17.4808V32.4206C51.8863 44.2761 43.3958 53.432 31.9076 55.435C20.4194 53.432 11.9289 44.2761 11.9289 32.4206V17.4808C11.9289 16.7253 12.3517 16.0842 13.0447 15.7862L30.9407 8.11703C31.5818 7.84315 32.2333 7.84315 32.8745 8.11703Z" fill="#60B7FF"/>
<path fill-rule="evenodd" clip-rule="evenodd" d="M49.1484 15.0896L50.7704 15.7862C51.4634 16.0843 51.8863 16.7254 51.8863 17.4808V32.4206C51.8863 36.4614 50.902 40.1869 49.1484 43.4201V15.0896Z" fill="#41A8FC"/>
<path d="M21.362 33.5189C20.3228 32.4859 20.3228 30.8083 21.362 29.7753C22.3948 28.7424 24.0664 28.7424 25.1056 29.7753L29.1559 33.8257L38.9407 23.9471C39.9674 22.9142 41.6389 22.9079 42.6718 23.9346C43.7109 24.9675 43.7109 26.639 42.6842 27.672C37.6323 32.7739 36.1111 34.364 31.0278 39.4411C29.9948 40.4803 28.317 40.4803 27.2841 39.4411L21.362 33.5189Z" fill="#ECEFF1"/>
<path fill-rule="evenodd" clip-rule="evenodd" d="M41.3807 35.6982H67.1131C67.3831 35.6982 67.616 35.7949 67.8067 35.9856L72.4761 40.6549C72.6668 40.8457 72.7634 41.0785 72.7634 41.3486V76.6648C72.7634 77.2049 72.3225 77.6433 71.7849 77.6433H41.3807C40.8408 77.6433 40.3998 77.2049 40.3998 76.6648V36.6791C40.3998 36.1392 40.8408 35.6982 41.3807 35.6982Z" fill="#ECEFF1"/>
<path fill-rule="evenodd" clip-rule="evenodd" d="M67.5194 35.7825V40.4518C67.5194 40.7218 67.7398 40.9423 68.0099 40.9423H72.6792C72.6321 40.8383 72.5628 40.7417 72.4761 40.6549L67.8067 35.9856C67.72 35.8989 67.6234 35.832 67.5194 35.7825Z" fill="#A79BA7"/>
<path fill-rule="evenodd" clip-rule="evenodd" d="M41.3807 35.6982H42.3592V77.6433H41.3807C40.8408 77.6433 40.3998 77.2049 40.3998 76.6648V36.6791C40.3998 36.1392 40.8408 35.6982 41.3807 35.6982Z" fill="#D1D1D6"/>
<path fill-rule="evenodd" clip-rule="evenodd" d="M47.3252 44.0974H52.0292C52.3671 44.0974 52.643 44.3733 52.643 44.7111V49.4151C52.643 49.7528 52.3671 50.0289 52.0292 50.0289H47.3252C46.9875 50.0289 46.7115 49.7528 46.7115 49.4151V44.7111C46.7115 44.3733 46.9875 44.0974 47.3252 44.0974Z" fill="#8AC9FE"/>
<path fill-rule="evenodd" clip-rule="evenodd" d="M50.7743 44.0974H52.0292C52.3671 44.0974 52.643 44.3733 52.643 44.7111V49.4151C52.643 49.7528 52.3671 50.0289 52.0292 50.0289H50.7743C51.1122 50.0289 51.3881 49.7528 51.3881 49.4151V44.7111C51.3881 44.3733 51.1122 44.0974 50.7743 44.0974Z" fill="#60B7FF"/>
<path fill-rule="evenodd" clip-rule="evenodd" d="M47.3252 53.9517H52.0292C52.3671 53.9517 52.643 54.2277 52.643 54.5655V59.2695C52.643 59.6072 52.3671 59.8831 52.0292 59.8831H47.3252C46.9875 59.8831 46.7115 59.6072 46.7115 59.2695V54.5655C46.7115 54.2277 46.9875 53.9517 47.3252 53.9517Z" fill="#FFE177"/>
<path fill-rule="evenodd" clip-rule="evenodd" d="M50.7743 53.9517H52.0292C52.3671 53.9517 52.643 54.2277 52.643 54.5655V59.2695C52.643 59.6072 52.3671 59.8831 52.0292 59.8831H50.7743C51.1122 59.8831 51.3881 59.6072 51.3881 59.2695V54.5655C51.3881 54.2277 51.1122 53.9517 50.7743 53.9517Z" fill="#FFD064"/>
<path fill-rule="evenodd" clip-rule="evenodd" d="M47.3261 63.8074H52.0284C52.3661 63.8074 52.6419 64.0853 52.6419 64.4231V69.1253C52.6419 69.4631 52.3661 69.7388 52.0284 69.7388H47.3261C46.9884 69.7388 46.7125 69.4631 46.7125 69.1253V64.4231C46.7125 64.0853 46.9884 63.8074 47.3261 63.8074Z" fill="#FE646F"/>
<path fill-rule="evenodd" clip-rule="evenodd" d="M50.7735 63.8074H52.0284C52.3661 63.8074 52.6419 64.0853 52.6419 64.4231V69.1253C52.6419 69.4631 52.3661 69.7388 52.0284 69.7388H50.7735C51.1112 69.7388 51.387 69.4631 51.387 69.1253V64.4231C51.387 64.0853 51.1112 63.8074 50.7735 63.8074Z" fill="#FD4755"/>
<path fill-rule="evenodd" clip-rule="evenodd" d="M57.4916 46.9014C56.7991 46.9014 56.2367 46.3391 56.2367 45.6465C56.2367 44.954 56.7991 44.3916 57.4916 44.3916H66.4543C67.147 44.3916 67.7092 44.954 67.7092 45.6465C67.7092 46.3391 67.147 46.9014 66.4543 46.9014H57.4916ZM57.4916 49.7347C56.7991 49.7347 56.2367 49.1725 56.2367 48.4798C56.2367 47.7872 56.7991 47.2249 57.4916 47.2249H63.3261C64.0188 47.2249 64.581 47.7872 64.581 48.4798C64.581 49.1725 64.0188 49.7347 63.3261 49.7347H57.4916ZM57.4916 56.7557C56.7991 56.7557 56.2367 56.1935 56.2367 55.5008C56.2367 54.8082 56.7991 54.2459 57.4916 54.2459H66.4543C67.147 54.2459 67.7092 54.8082 67.7092 55.5008C67.7092 56.1935 67.147 56.7557 66.4543 56.7557H57.4916ZM57.4916 59.5891C56.7991 59.5891 56.2367 59.0267 56.2367 58.3342C56.2367 57.6416 56.7991 57.0793 57.4916 57.0793H63.3261C64.0188 57.0793 64.581 57.6416 64.581 58.3342C64.581 59.0267 64.0188 59.5891 63.3261 59.5891H57.4916ZM57.4916 66.6125C56.7991 66.6125 56.2367 66.0503 56.2367 65.3576C56.2367 64.665 56.7991 64.1027 57.4916 64.1027H66.4543C67.147 64.1027 67.7092 64.665 67.7092 65.3576C67.7092 66.0503 67.147 66.6125 66.4543 66.6125H57.4916ZM57.4916 69.4459C56.7991 69.4459 56.2367 68.8835 56.2367 68.191C56.2367 67.4983 56.7991 66.9361 57.4916 66.9361H63.3261C64.0188 66.9361 64.581 67.4983 64.581 68.191C64.581 68.8835 64.0188 69.4459 63.3261 69.4459H57.4916Z" fill="#A79BA7"/>
</svg>
