<svg width="84" height="84" viewBox="0 0 84 84" fill="none" xmlns="http://www.w3.org/2000/svg">
<path d="M26.1049 43.0054H24.4643V53.751H26.1049V43.0054Z" fill="#7986BF"/>
<path fill-rule="evenodd" clip-rule="evenodd" d="M41.1797 21.0537V33.4135H34.2316V35.0541H49.7683V33.4135H42.8203V21.0537H41.1797Z" fill="#7986BF"/>
<path fill-rule="evenodd" clip-rule="evenodd" d="M72.8388 63.0677V53.7507C72.8388 53.2978 72.4715 52.9304 72.0185 52.9304H11.9815C11.4991 52.9304 11.1216 53.3445 11.1644 53.8237L11.169 63.0677H12.8033L12.7992 54.571H71.1982V63.0677H72.8388Z" fill="#7986BF"/>
<path d="M59.5356 43.0054H57.895V53.751H59.5356V43.0054Z" fill="#7986BF"/>
<path d="M42.8203 53.7507H41.1797V63.4801H42.8203V53.7507Z" fill="#7986BF"/>
<path d="M42 22.1558C36.3822 22.1558 31.8281 17.6017 31.8281 11.9839C31.8281 6.36612 36.3822 1.81201 42 1.81201C47.6178 1.81201 52.1719 6.36612 52.1719 11.9839C52.1719 17.6017 47.6178 22.1558 42 22.1558Z" fill="#B4DAF0"/>
<path fill-rule="evenodd" clip-rule="evenodd" d="M40.9895 1.86182C35.8462 2.3691 31.8281 6.70707 31.8281 11.9838C31.8281 17.2606 35.8462 21.5987 40.9895 22.1058C46.1329 21.5985 50.1509 17.2606 50.1509 11.9838C50.1509 6.70707 46.1329 2.3691 40.9895 1.86182Z" fill="#C8E8FB"/>
<path d="M41.1017 13.6451C39.0164 13.1501 37.7273 11.0583 38.2224 8.97312C38.7175 6.8879 40.8092 5.59881 42.8944 6.09386C44.9796 6.58891 46.2687 8.68064 45.7737 10.7659C45.2786 12.8511 43.1869 14.1402 41.1017 13.6451Z" fill="#DEA368"/>
<path fill-rule="evenodd" clip-rule="evenodd" d="M41.1662 6.09961C39.4239 6.48122 38.1196 8.03309 38.1196 9.88994C38.1196 11.7468 39.4239 13.2987 41.1662 13.6803C42.9086 13.2987 44.2129 11.7468 44.2129 9.88994C44.2129 8.03309 42.9086 6.48105 41.1662 6.09961Z" fill="#E6B17C"/>
<path fill-rule="evenodd" clip-rule="evenodd" d="M42.0002 13.7702C38.6192 13.7702 35.6801 15.7585 34.2946 18.6236C36.1599 20.7863 38.9201 22.1554 42.0002 22.1554C45.0803 22.1554 47.8405 20.7863 49.7057 18.6235C48.3202 15.7583 45.3812 13.7702 42.0002 13.7702Z" fill="#2A93FC"/>
<path fill-rule="evenodd" clip-rule="evenodd" d="M41.0012 13.8291C38.0474 14.1767 35.5417 16.0449 34.2945 18.6238C36.1597 20.7865 38.9199 22.1558 42 22.1558C44.2493 22.1558 46.3278 21.4255 48.0119 20.1893C46.6979 16.1127 43.9034 14.1784 41.0012 13.8291Z" fill="#4EB1FC"/>
<path d="M25.2847 44.4058C19.6669 44.4058 15.1128 39.8517 15.1128 34.2339C15.1128 28.6161 19.6669 24.062 25.2847 24.062C30.9024 24.062 35.4565 28.6161 35.4565 34.2339C35.4565 39.8517 30.9024 44.4058 25.2847 44.4058Z" fill="#FCDB35"/>
<path fill-rule="evenodd" clip-rule="evenodd" d="M24.2742 24.1118C19.1308 24.6191 15.1128 28.9571 15.1128 34.2338C15.1128 39.5106 19.1308 43.8487 24.2742 44.3558C29.4176 43.8485 33.4356 39.5106 33.4356 34.2338C33.4356 28.9571 29.4176 24.6191 24.2742 24.1118Z" fill="#FFEB87"/>
<path d="M24.377 35.8856C22.2917 35.3906 21.0026 33.2988 21.4977 31.2136C21.9927 29.1284 24.0845 27.8393 26.1697 28.3343C28.2549 28.8294 29.544 30.9211 29.049 33.0063C28.5539 35.0916 26.4622 36.3807 24.377 35.8856Z" fill="#DEA368"/>
<path fill-rule="evenodd" clip-rule="evenodd" d="M24.4509 28.3496C22.7085 28.7311 21.4042 30.2831 21.4042 32.1399C21.4042 33.9968 22.7085 35.5487 24.4509 35.9303C26.1932 35.5487 27.4975 33.9968 27.4975 32.1399C27.4975 30.2831 26.1932 28.7311 24.4509 28.3496Z" fill="#E6B17C"/>
<path fill-rule="evenodd" clip-rule="evenodd" d="M25.2848 36.0205C21.9038 36.0205 18.9648 38.0088 17.5793 40.874C19.4445 43.0366 22.2047 44.4059 25.2848 44.4059C28.3649 44.4059 31.1251 43.0368 32.9904 40.874C31.6048 38.0088 28.6658 36.0205 25.2848 36.0205Z" fill="#E68207"/>
<path fill-rule="evenodd" clip-rule="evenodd" d="M24.2859 36.0791C21.3321 36.4267 18.8263 38.2949 17.5791 40.8738C19.4444 43.0365 22.2046 44.4058 25.2847 44.4058C27.534 44.4058 29.6125 43.6754 31.2966 42.4393C29.9826 38.3627 27.188 36.4284 24.2857 36.0791H24.2859Z" fill="#FDA02F"/>
<path d="M58.1462 44.3621C52.5397 44.0475 48.2497 39.2475 48.5643 33.6409C48.8789 28.0344 53.6789 23.7444 59.2855 24.059C64.892 24.3736 69.182 29.1737 68.8674 34.7802C68.5528 40.3867 63.7528 44.6767 58.1462 44.3621Z" fill="#FCDB35"/>
<path fill-rule="evenodd" clip-rule="evenodd" d="M57.7049 24.1118C52.5615 24.6191 48.5435 28.9571 48.5435 34.2338C48.5435 39.5106 52.5615 43.8487 57.7049 44.3558C62.8482 43.8485 66.8663 39.5106 66.8663 34.2338C66.8663 28.9571 62.8482 24.6191 57.7049 24.1118Z" fill="#FFEB87"/>
<path d="M58.1876 35.9766C56.066 35.6787 54.5875 33.7173 54.8854 31.5956C55.1833 29.474 57.1447 27.9955 59.2664 28.2934C61.388 28.5913 62.8665 30.5527 62.5686 32.6744C62.2707 34.796 60.3093 36.2745 58.1876 35.9766Z" fill="#DEA368"/>
<path fill-rule="evenodd" clip-rule="evenodd" d="M57.8816 28.3496C56.1392 28.7311 54.8349 30.2831 54.8349 32.1399C54.8349 33.9968 56.1392 35.5487 57.8816 35.9303C59.6239 35.5487 60.9282 33.9968 60.9282 32.1399C60.9282 30.2831 59.6239 28.7311 57.8816 28.3496Z" fill="#E6B17C"/>
<path fill-rule="evenodd" clip-rule="evenodd" d="M58.7155 36.0205C55.3345 36.0205 52.3955 38.0088 51.01 40.874C52.8752 43.0366 55.6354 44.4059 58.7155 44.4059C61.7956 44.4059 64.5558 43.0368 66.421 40.874C65.0355 38.0088 62.0965 36.0205 58.7155 36.0205Z" fill="#E68207"/>
<path fill-rule="evenodd" clip-rule="evenodd" d="M57.7165 36.0791C54.7628 36.4267 52.257 38.2949 51.0098 40.8738C52.8751 43.0365 55.6352 44.4058 58.7154 44.4058C60.9647 44.4058 63.0432 43.6754 64.7273 42.4393C63.4133 38.3627 60.6186 36.4284 57.7164 36.0791H57.7165Z" fill="#FDA02F"/>
<path d="M1.83986 72.4109C1.64324 66.7988 6.0334 62.0898 11.6456 61.8932C17.2577 61.6966 21.9666 66.0867 22.1633 71.6989C22.3599 77.311 17.9697 82.02 12.3576 82.2166C6.74543 82.4132 2.03649 78.0231 1.83986 72.4109Z" fill="#43F043"/>
<path fill-rule="evenodd" clip-rule="evenodd" d="M10.9733 61.8943C5.82996 62.4016 1.8119 66.7395 1.8119 72.0163C1.8119 77.293 5.82996 81.6312 10.9733 82.1383C16.1167 81.631 20.1347 77.293 20.1347 72.0163C20.1347 66.7395 16.1167 62.4016 10.9733 61.8943Z" fill="#96FF96"/>
<path d="M11.0592 73.6595C8.97401 73.1645 7.68492 71.0728 8.17998 68.9875C8.67503 66.9023 10.7668 65.6132 12.852 66.1083C14.9372 66.6033 16.2263 68.695 15.7313 70.7803C15.2362 72.8655 13.1445 74.1546 11.0592 73.6595Z" fill="#DEA368"/>
<path fill-rule="evenodd" clip-rule="evenodd" d="M11.15 66.1318C9.40767 66.5134 8.10337 68.0653 8.10337 69.9222C8.10337 71.779 9.40767 73.3309 11.15 73.7125C12.8924 73.3309 14.1967 71.779 14.1967 69.9222C14.1967 68.0653 12.8924 66.5133 11.15 66.1318Z" fill="#E6B17C"/>
<path fill-rule="evenodd" clip-rule="evenodd" d="M11.984 73.8027C8.60295 73.8027 5.66393 75.7909 4.27843 78.6561C6.14365 80.8188 8.90384 82.1879 11.984 82.1879C15.0641 82.1879 17.8242 80.8186 19.6896 78.656C18.3041 75.7908 15.3651 73.8025 11.9841 73.8025L11.984 73.8027Z" fill="#29B933"/>
<path fill-rule="evenodd" clip-rule="evenodd" d="M10.9849 73.8613C8.03117 74.209 5.52544 76.0772 4.27824 78.6561C6.14346 80.8187 8.90365 82.188 11.9838 82.188C14.2331 82.188 16.3116 81.4577 17.9957 80.2215C16.6817 76.1449 13.887 74.2106 10.9848 73.8613H10.9849Z" fill="#2DD62D"/>
<path d="M42 82.188C36.3822 82.188 31.8281 77.6339 31.8281 72.0161C31.8281 66.3983 36.3822 61.8442 42 61.8442C47.6178 61.8442 52.1719 66.3983 52.1719 72.0161C52.1719 77.6339 47.6178 82.188 42 82.188Z" fill="#43F043"/>
<path fill-rule="evenodd" clip-rule="evenodd" d="M40.9895 61.8943C35.8462 62.4016 31.8281 66.7395 31.8281 72.0163C31.8281 77.293 35.8462 81.6312 40.9895 82.1383C46.1329 81.631 50.1509 77.293 50.1509 72.0163C50.1509 66.7395 46.1329 62.4016 40.9895 61.8943Z" fill="#96FF96"/>
<path d="M41.0735 73.6737C38.9883 73.1786 37.6992 71.0869 38.1942 69.0017C38.6893 66.9165 40.781 65.6274 42.8662 66.1224C44.9515 66.6175 46.2406 68.7092 45.7455 70.7944C45.2504 72.8797 43.1587 74.1688 41.0735 73.6737Z" fill="#DEA368"/>
<path fill-rule="evenodd" clip-rule="evenodd" d="M41.1662 66.1318C39.4239 66.5134 38.1196 68.0653 38.1196 69.9222C38.1196 71.779 39.4239 73.3309 41.1662 73.7125C42.9086 73.3309 44.2129 71.779 44.2129 69.9222C44.2129 68.0653 42.9086 66.5133 41.1662 66.1318Z" fill="#E6B17C"/>
<path fill-rule="evenodd" clip-rule="evenodd" d="M42.0002 73.8027C38.6192 73.8027 35.6801 75.7909 34.2946 78.6561C36.1599 80.8188 38.9201 82.1879 42.0002 82.1879C45.0803 82.1879 47.8405 80.8186 49.7057 78.656C48.3202 75.7908 45.3812 73.8025 42.0002 73.8025V73.8027Z" fill="#29B933"/>
<path fill-rule="evenodd" clip-rule="evenodd" d="M41.0012 73.8613C38.0474 74.209 35.5417 76.0772 34.2945 78.6561C36.1597 80.8187 38.9199 82.188 42 82.188C44.2493 82.188 46.3278 81.4577 48.0119 80.2215C46.6979 76.1449 43.9034 74.2106 41.0012 73.8613Z" fill="#2DD62D"/>
<path d="M61.8376 72.5127C61.5567 66.9006 65.8785 62.1233 71.4907 61.8424C77.1028 61.5615 81.8801 65.8834 82.161 71.4955C82.4419 77.1077 78.12 81.8849 72.5079 82.1658C66.8957 82.4467 62.1184 78.1249 61.8376 72.5127Z" fill="#43F043"/>
<path fill-rule="evenodd" clip-rule="evenodd" d="M71.0058 61.8943C65.8624 62.4016 61.8443 66.7395 61.8443 72.0163C61.8443 77.293 65.8624 81.6312 71.0058 82.1383C76.1491 81.631 80.1672 77.293 80.1672 72.0163C80.1672 66.7395 76.1491 62.4016 71.0058 61.8943Z" fill="#96FF96"/>
<path d="M71.0878 73.6876C69.0026 73.1926 67.7135 71.1008 68.2085 69.0156C68.7036 66.9304 70.7953 65.6413 72.8806 66.1363C74.9658 66.6314 76.2549 68.7231 75.7598 70.8084C75.2648 72.8936 73.173 74.1827 71.0878 73.6876Z" fill="#DEA368"/>
<path fill-rule="evenodd" clip-rule="evenodd" d="M71.1826 66.1318C69.4403 66.5134 68.136 68.0653 68.136 69.9222C68.136 71.779 69.4403 73.3309 71.1826 73.7125C72.925 73.3309 74.2292 71.779 74.2292 69.9222C74.2292 68.0653 72.925 66.5133 71.1826 66.1318Z" fill="#E6B17C"/>
<path fill-rule="evenodd" clip-rule="evenodd" d="M72.0164 73.8027C68.6354 73.8027 65.6963 75.7909 64.3108 78.6561C66.1761 80.8188 68.9362 82.1879 72.0164 82.1879C75.0965 82.1879 77.8567 80.8186 79.722 78.656C78.3365 75.7908 75.3975 73.8025 72.0165 73.8025L72.0164 73.8027Z" fill="#29B933"/>
<path fill-rule="evenodd" clip-rule="evenodd" d="M71.0174 73.8613C68.0636 74.209 65.5579 76.0772 64.3107 78.6561C66.1759 80.8187 68.9361 82.188 72.0162 82.188C74.2655 82.188 76.344 81.4577 78.0281 80.2215C76.7142 76.1449 73.9197 74.2106 71.0174 73.8613Z" fill="#2DD62D"/>
</svg>
