<svg width="84" height="84" viewBox="0 0 84 84" fill="none" xmlns="http://www.w3.org/2000/svg">
<g clip-path="url(#clip0_56_914)">
<path d="M43.3125 74.9436H40.6875V74.6812H43.3125V74.9436ZM43.3125 72.0562H40.6875V69.4312H43.3125V72.0562ZM43.3125 66.8062H40.6875V64.1812H43.3125V66.8062ZM43.3125 61.5562H40.6875V58.9312H43.3125V61.5562ZM43.3125 56.3062H40.6875V53.6812H43.3125V56.3062ZM43.3125 51.0562H40.6875V48.4312H43.3125V51.0562ZM43.3125 45.8062H40.6875V43.1812H43.3125V45.8062ZM43.3125 40.5562H40.6875V37.9312H43.3125V40.5562ZM43.3125 35.3062H40.6875V32.6812H43.3125V35.3062ZM43.3125 30.0562H40.6875V27.4312H43.3125V30.0562ZM43.3125 24.8062H40.6875V22.1812H43.3125V24.8062ZM43.3125 19.5562H40.6875V16.9312H43.3125V19.5562Z" fill="#193651"/>
<path d="M9.97498 53.2875L8.00623 51.45L9.84373 49.4813L11.8125 51.3187L9.97498 53.2875ZM74.025 53.2875L72.45 51.5812L74.4187 49.7438L75.9937 51.45L74.025 53.2875ZM70.6125 49.6125L68.775 47.6437L70.7437 45.8063L72.5812 47.775L70.6125 49.6125ZM13.65 49.35L11.6812 47.5125L13.5187 45.5438L15.4875 47.3812L13.65 49.35ZM67.0687 45.8063L65.2312 43.8375L67.2 42L69.0375 43.9688L67.0687 45.8063ZM17.1937 45.5438L15.225 43.7062L17.0625 41.7375L19.0312 43.575L17.1937 45.5438ZM63.525 42L61.6875 40.0312L63.6562 38.1938L65.4937 40.1625L63.525 42ZM20.7375 41.7375L18.7687 39.9L20.6062 37.9312L22.575 39.7687L20.7375 41.7375ZM59.85 38.0625L58.0125 36.0938L59.9812 34.2563L61.8187 36.225L59.85 38.0625ZM24.2812 37.9312L22.3125 36.0938L24.15 34.125L26.1187 35.9625L24.2812 37.9312ZM56.3062 34.2563L54.4687 32.2875L56.4375 30.45L58.275 32.4188L56.3062 34.2563ZM27.825 33.9937L25.8562 32.1562L27.6937 30.1875L29.6625 32.025L27.825 33.9937ZM52.7625 30.45L50.925 28.4813L52.8937 26.6437L54.7312 28.6125L52.7625 30.45ZM31.5 30.1875L29.5312 28.35L31.3687 26.3813L33.3375 28.2188L31.5 30.1875ZM49.2187 26.5125L47.3812 24.5438L49.35 22.7062L51.1875 24.675L49.2187 26.5125ZM35.0437 26.3813L33.075 24.5438L34.9125 22.575L36.8812 24.4125L35.0437 26.3813ZM45.5437 22.7062L43.7062 20.7375L45.675 18.9L47.5125 20.8687L45.5437 22.7062ZM38.5875 22.4438L36.6187 20.6062L38.4562 18.6375L40.425 20.475L38.5875 22.4438ZM42 18.9L40.95 17.85L41.0812 17.7188L40.1625 16.9312L41.8687 15.0938L43.8375 17.1938L42 18.9Z" fill="#193651"/>
<path d="M42 32.55C50.626 32.55 57.6187 25.5572 57.6187 16.9312C57.6187 8.30525 50.626 1.3125 42 1.3125C33.374 1.3125 26.3812 8.30525 26.3812 16.9312C26.3812 25.5572 33.374 32.55 42 32.55Z" fill="white"/>
<path d="M42 33.7313C32.6812 33.7313 25.0687 26.1188 25.0687 16.8C25.0687 7.6125 32.6812 0 42 0C51.3187 0 58.9312 7.6125 58.9312 16.9312C58.9312 26.25 51.3187 33.7313 42 33.7313ZM42 2.625C34.125 2.625 27.6937 9.05625 27.6937 16.9312C27.6937 24.8062 34.125 31.2375 42 31.2375C49.875 31.2375 56.3062 24.8062 56.3062 16.9312C56.3062 9.05625 49.875 2.625 42 2.625Z" fill="#193651"/>
<path d="M42 27.1688C36.3562 27.1688 31.6312 22.575 31.6312 16.8C31.6312 11.1562 36.3562 6.5625 42 6.5625C47.6437 6.5625 52.3687 11.1562 52.3687 16.9312C52.3687 22.575 47.6437 27.1688 42 27.1688Z" fill="#4FBF9F"/>
<path d="M42 82.6875C46.2767 82.6875 49.7437 79.2205 49.7437 74.9437C49.7437 70.6669 46.2767 67.2 42 67.2C37.7232 67.2 34.2562 70.6669 34.2562 74.9437C34.2562 79.2205 37.7232 82.6875 42 82.6875Z" fill="#F16051"/>
<path d="M42 84C37.0125 84 32.9437 79.9312 32.9437 74.9437C32.9437 69.9562 37.0125 65.8875 42 65.8875C46.9875 65.8875 51.0562 69.9562 51.0562 74.9437C51.0562 79.9312 46.9875 84 42 84ZM42 68.5125C38.4562 68.5125 35.5687 71.3999 35.5687 74.9437C35.5687 78.4874 38.4562 81.375 42 81.375C45.5437 81.375 48.4312 78.4874 48.4312 74.9437C48.4312 71.3999 45.5437 68.5125 42 68.5125Z" fill="#193651"/>
<path d="M9.05625 60.1125C13.333 60.1125 16.8 56.6455 16.8 52.3688C16.8 48.092 13.333 44.625 9.05625 44.625C4.7795 44.625 1.3125 48.092 1.3125 52.3688C1.3125 56.6455 4.7795 60.1125 9.05625 60.1125Z" fill="#E1E6E9"/>
<path d="M9.05625 61.425C4.06875 61.425 0 57.3563 0 52.3688C0 47.3813 4.06875 43.3125 9.05625 43.3125C14.0438 43.3125 18.1125 47.3813 18.1125 52.3688C18.1125 57.3563 14.0438 61.425 9.05625 61.425ZM9.05625 45.9375C5.5125 45.9375 2.625 48.825 2.625 52.3688C2.625 55.9125 5.5125 58.8 9.05625 58.8C12.6 58.8 15.4875 55.9125 15.4875 52.3688C15.4875 48.825 12.6 45.9375 9.05625 45.9375Z" fill="#193651"/>
<path d="M74.9438 60.1125C79.2205 60.1125 82.6875 56.6455 82.6875 52.3688C82.6875 48.092 79.2205 44.625 74.9438 44.625C70.667 44.625 67.2 48.092 67.2 52.3688C67.2 56.6455 70.667 60.1125 74.9438 60.1125Z" fill="#2EA2DB"/>
<path d="M74.9438 61.425C69.9563 61.425 65.8875 57.3563 65.8875 52.3688C65.8875 47.3813 69.9563 43.3125 74.9438 43.3125C79.9313 43.3125 84 47.3813 84 52.3688C84 57.3563 79.9313 61.425 74.9438 61.425ZM74.9438 45.9375C71.4 45.9375 68.5125 48.825 68.5125 52.3688C68.5125 55.9125 71.4 58.8 74.9438 58.8C78.4875 58.8 81.375 55.9125 81.375 52.3688C81.375 48.825 78.4875 45.9375 74.9438 45.9375Z" fill="#193651"/>
</g>
<defs>
<clipPath id="clip0_56_914">
<rect width="84" height="84" fill="white"/>
</clipPath>
</defs>
</svg>
