<svg width="64" height="64" viewBox="0 0 64 64" fill="none" xmlns="http://www.w3.org/2000/svg">
<path d="M31 2H33V6H31V2Z" fill="#143F6B"/>
<path d="M31 58H33V62H31V58Z" fill="#143F6B"/>
<path d="M31 10H33V22H31V10Z" fill="#143F6B"/>
<path d="M31 42H33V54H31V42Z" fill="#143F6B"/>
<path d="M31 26H33V38H31V26Z" fill="#143F6B"/>
<path d="M59 2H41C40.7348 2 40.4804 2.10536 40.2929 2.29289C40.1054 2.48043 40 2.73478 40 3V7H34.82C34.5841 6.33279 34.1199 5.77045 33.5095 5.41237C32.8991 5.05429 32.1818 4.92353 31.4843 5.0432C30.7868 5.16288 30.154 5.52527 29.6979 6.06634C29.2418 6.60741 28.9916 7.29231 28.9916 8C28.9916 8.70769 29.2418 9.39259 29.6979 9.93366C30.154 10.4747 30.7868 10.8371 31.4843 10.9568C32.1818 11.0765 32.8991 10.9457 33.5095 10.5876C34.1199 10.2296 34.5841 9.66721 34.82 9H40V13C40 13.2652 40.1054 13.5196 40.2929 13.7071C40.4804 13.8946 40.7348 14 41 14H59C59.2652 14 59.5196 13.8946 59.7071 13.7071C59.8947 13.5196 60 13.2652 60 13V3C60 2.73478 59.8947 2.48043 59.7071 2.29289C59.5196 2.10536 59.2652 2 59 2Z" fill="#77A1D3"/>
<path d="M60 34H42C41.7348 34 41.4804 34.1054 41.2929 34.2929C41.1054 34.4804 41 34.7348 41 35V39H34.82C34.5841 38.3328 34.1199 37.7704 33.5095 37.4124C32.8991 37.0543 32.1818 36.9235 31.4843 37.0432C30.7868 37.1629 30.154 37.5253 29.6979 38.0663C29.2418 38.6074 28.9916 39.2923 28.9916 40C28.9916 40.7077 29.2418 41.3926 29.6979 41.9337C30.154 42.4747 30.7868 42.8371 31.4843 42.9568C32.1818 43.0765 32.8991 42.9457 33.5095 42.5876C34.1199 42.2296 34.5841 41.6672 34.82 41H41V45C41 45.2652 41.1054 45.5196 41.2929 45.7071C41.4804 45.8946 41.7348 46 42 46H60C60.2652 46 60.5196 45.8946 60.7071 45.7071C60.8947 45.5196 61 45.2652 61 45V35C61 34.7348 60.8947 34.4804 60.7071 34.2929C60.5196 34.1054 60.2652 34 60 34Z" fill="#72DA73"/>
<path d="M32 21C31.3811 21.0017 30.7778 21.1949 30.2729 21.5529C29.7681 21.911 29.3863 22.4165 29.18 23H24V19C24 18.7348 23.8946 18.4804 23.7071 18.2929C23.5196 18.1054 23.2652 18 23 18H5C4.73478 18 4.48043 18.1054 4.29289 18.2929C4.10536 18.4804 4 18.7348 4 19V29C4 29.2652 4.10536 29.5196 4.29289 29.7071C4.48043 29.8946 4.73478 30 5 30H23C23.2652 30 23.5196 29.8946 23.7071 29.7071C23.8946 29.5196 24 29.2652 24 29V25H29.18C29.3635 25.5189 29.6861 25.9773 30.1126 26.3251C30.5392 26.6729 31.0532 26.8966 31.5984 26.9718C32.1435 27.0471 32.6989 26.9709 33.2037 26.7516C33.7085 26.5323 34.1432 26.1784 34.4603 25.7286C34.7775 25.2788 34.9647 24.7504 35.0017 24.2013C35.0386 23.6522 34.9238 23.1035 34.6697 22.6153C34.4157 22.1271 34.0323 21.7181 33.5614 21.4332C33.0905 21.1483 32.5504 20.9985 32 21Z" fill="#FCBF49"/>
<path d="M32 53C31.3811 53.0017 30.7778 53.1949 30.2729 53.5529C29.7681 53.911 29.3863 54.4165 29.18 55H24V51C24 50.7348 23.8946 50.4804 23.7071 50.2929C23.5196 50.1054 23.2652 50 23 50H5C4.73478 50 4.48043 50.1054 4.29289 50.2929C4.10536 50.4804 4 50.7348 4 51V61C4 61.2652 4.10536 61.5196 4.29289 61.7071C4.48043 61.8946 4.73478 62 5 62H23C23.2652 62 23.5196 61.8946 23.7071 61.7071C23.8946 61.5196 24 61.2652 24 61V57H29.18C29.3635 57.5189 29.6861 57.9773 30.1126 58.3251C30.5392 58.6729 31.0532 58.8966 31.5984 58.9718C32.1435 59.0471 32.6989 58.9709 33.2037 58.7516C33.7085 58.5323 34.1432 58.1784 34.4603 57.7286C34.7775 57.2788 34.9647 56.7504 35.0017 56.2013C35.0386 55.6522 34.9238 55.1035 34.6697 54.6153C34.4157 54.1271 34.0323 53.7181 33.5614 53.4332C33.0905 53.1483 32.5504 52.9985 32 53Z" fill="#E684AE"/>
</svg>
