<svg width="66" height="66" viewBox="0 0 66 66" fill="none" xmlns="http://www.w3.org/2000/svg">
<path d="M46.4062 44.349V38.1615L40.8179 37.5428C40.404 35.7687 39.7006 34.0751 38.7358 32.5299L42.2544 28.1275L37.884 23.7539L33.4764 27.2664C31.931 26.3006 30.237 25.5961 28.4625 25.1812L27.8437 19.5918H21.6562L21.0375 25.1812C19.2634 25.5944 17.5697 26.2976 16.0246 27.2622L11.6232 23.7436L7.25174 28.112L10.7662 32.5175C9.80076 34.0619 9.09627 35.7549 8.68105 37.5283L3.09167 38.1471V44.3346L8.68105 44.9533C9.09476 46.7272 9.79786 48.4209 10.7621 49.9662L7.24142 54.3686L11.6129 58.7422L16.0174 55.2277C17.5619 56.193 19.2548 56.8975 21.0282 57.3129L21.647 62.9022H27.8345L28.4532 57.3129C30.2274 56.9 31.9212 56.1968 33.4661 55.2318L37.8685 58.7504L42.2421 54.379L38.7275 49.9745C39.693 48.4296 40.3974 46.7363 40.8127 44.9626L46.4062 44.349ZM24.75 47.4376C23.5262 47.4376 22.3299 47.0747 21.3124 46.3948C20.2949 45.7149 19.5018 44.7486 19.0335 43.618C18.5652 42.4873 18.4426 41.2432 18.6814 40.043C18.9201 38.8427 19.5094 37.7402 20.3748 36.8749C21.2401 36.0095 22.3426 35.4202 23.5429 35.1815C24.7431 34.9428 25.9872 35.0653 27.1178 35.5336C28.2485 36.0019 29.2148 36.795 29.8947 37.8125C30.5746 38.8301 30.9375 40.0263 30.9375 41.2501C30.9375 42.8911 30.2856 44.465 29.1252 45.6253C27.9648 46.7857 26.391 47.4376 24.75 47.4376Z" fill="#A2D7FC"/>
<path d="M56.4093 34.9986C56.1751 34.9987 55.9477 34.919 55.7648 34.7727L52.9701 32.5359C51.8719 33.1437 50.6942 33.5949 49.4711 33.8766C49.206 33.9338 48.9291 33.8844 48.7002 33.739C48.4714 33.5936 48.309 33.3639 48.2483 33.0996C48.1875 32.8353 48.2333 32.5578 48.3757 32.327C48.5181 32.0963 48.7456 31.9309 49.0091 31.8667C50.2505 31.5807 51.4355 31.0896 52.5153 30.4136C52.6965 30.3003 52.9085 30.2461 53.1219 30.2584C53.3352 30.2708 53.5395 30.3492 53.7064 30.4827L56.3309 32.5875L58.3594 30.5601L56.2567 27.9304C56.1231 27.7633 56.0448 27.5588 56.0326 27.3452C56.0204 27.1316 56.0749 26.9195 56.1886 26.7383C56.8664 25.6591 57.3586 24.4739 57.6447 23.232C57.6929 23.0237 57.8046 22.8354 57.9644 22.6933C58.1242 22.5512 58.3242 22.4624 58.5368 22.439L61.8749 22.0688V19.2019L58.5327 18.8286C58.3203 18.805 58.1205 18.716 57.9609 18.5739C57.8013 18.4319 57.6897 18.2437 57.6417 18.0355C57.3558 16.7939 56.8643 15.6088 56.1876 14.5293C56.0744 14.348 56.0203 14.136 56.0329 13.9226C56.0455 13.7092 56.124 13.505 56.2577 13.3382L58.3687 10.7106L56.3392 8.68107L53.7105 10.7848C53.5434 10.9184 53.3389 10.9968 53.1253 11.0089C52.9117 11.0211 52.6996 10.9666 52.5184 10.8529C51.4391 10.1753 50.254 9.68308 49.0122 9.39676C48.8038 9.34865 48.6156 9.23695 48.4735 9.07714C48.3314 8.91732 48.2425 8.71729 48.2191 8.50473L47.8499 5.16142H44.9831L44.6097 8.50473C44.5862 8.7171 44.4972 8.91691 44.3551 9.07652C44.2131 9.23613 44.0249 9.34768 43.8167 9.39573C42.575 9.68087 41.3899 10.172 40.3105 10.8488C40.1293 10.9621 39.9173 11.0163 39.7039 11.004C39.4905 10.9916 39.2863 10.9132 39.1194 10.7797L36.4918 8.67386L34.4622 10.7013L36.565 13.331C36.6986 13.4981 36.7769 13.7026 36.7891 13.9162C36.8013 14.1298 36.7467 14.3419 36.633 14.5231C35.956 15.6026 35.4642 16.7877 35.1779 18.0294C35.1164 18.2959 34.9515 18.5271 34.7195 18.672C34.4875 18.817 34.2075 18.8638 33.941 18.8023C33.6744 18.7407 33.4433 18.5758 33.2983 18.3439C33.1534 18.1119 33.1065 17.8318 33.168 17.5653C33.4498 16.3422 33.901 15.1645 34.5087 14.0663L32.2781 11.2685C32.1207 11.0709 32.0413 10.8224 32.055 10.5701C32.0687 10.3179 32.1745 10.0794 32.3523 9.90001L35.6812 6.56289C35.8607 6.38349 36.1002 6.27662 36.3536 6.26273C36.6071 6.24884 36.8567 6.32891 37.0548 6.48761L39.8495 8.72439C40.7316 8.23672 41.6656 7.84931 42.6339 7.56939L43.0299 4.01467C43.0572 3.76089 43.1776 3.52625 43.3679 3.35615C43.5582 3.18604 43.8048 3.09255 44.0601 3.09376H48.7739C49.0278 3.09374 49.2728 3.18737 49.4619 3.35672C49.6511 3.52607 49.7711 3.75924 49.799 4.01157L50.1919 7.56629C51.1605 7.84644 52.0944 8.23457 52.9763 8.72336L55.773 6.49689C55.9714 6.33845 56.2212 6.25874 56.4746 6.27301C56.7281 6.28729 56.9674 6.39453 57.1467 6.57423L60.4786 9.90826C60.6583 10.0879 60.7653 10.3275 60.7792 10.5812C60.7931 10.8349 60.7129 11.0848 60.5539 11.2829L58.3161 14.0766C58.8046 14.9583 59.1921 15.8923 59.4711 16.8609L63.0258 17.2569C63.2781 17.2851 63.5112 17.4054 63.6804 17.5947C63.8495 17.7841 63.9429 18.0291 63.9426 18.283V22.9969C63.9426 23.2508 63.849 23.4957 63.6796 23.6849C63.5103 23.874 63.2771 23.994 63.0248 24.0219L59.4701 24.4149C59.1899 25.3834 58.8018 26.3174 58.313 27.1992L60.5477 29.9949C60.7063 30.1932 60.7862 30.4429 60.7721 30.6963C60.758 30.9498 60.651 31.1891 60.4714 31.3686L57.1312 34.6974C56.9394 34.8887 56.6801 34.9969 56.4093 34.9986Z" fill="#1B245A"/>
<path d="M46.4114 25.3439C49.0147 25.3439 51.1252 23.2335 51.1252 20.6301C51.1252 18.0267 49.0147 15.9163 46.4114 15.9163C43.808 15.9163 41.6975 18.0267 41.6975 20.6301C41.6975 23.2335 43.808 25.3439 46.4114 25.3439Z" fill="#A2D7FC"/>
<path d="M27.8324 63.9375H21.6449C21.3911 63.9361 21.1468 63.8412 20.9586 63.6709C20.7704 63.5006 20.6516 63.2669 20.625 63.0145L20.0867 58.1347C18.6975 57.7498 17.361 57.1957 16.1071 56.4847L12.2605 59.5537C12.0623 59.7118 11.8127 59.7913 11.5595 59.7771C11.3063 59.7628 11.0672 59.6557 10.8879 59.4763L6.51234 55.0976C6.33392 54.9184 6.22757 54.6799 6.2135 54.4274C6.19943 54.1749 6.27862 53.926 6.43603 53.7281L9.50813 49.8805C8.797 48.626 8.24284 47.2887 7.85812 45.8989L2.97825 45.3564C2.72629 45.328 2.49362 45.2078 2.32469 45.0187C2.15577 44.8296 2.06243 44.5849 2.0625 44.3314V38.1439C2.06274 37.8902 2.15648 37.6455 2.32581 37.4565C2.49513 37.2676 2.72815 37.1477 2.98031 37.1198L7.86122 36.5815C8.24721 35.192 8.80313 33.8554 9.51637 32.6019L6.44531 28.7554C6.28717 28.5571 6.20763 28.3075 6.2219 28.0543C6.23617 27.8011 6.34324 27.562 6.52266 27.3828L10.8962 23.0113C11.0758 22.8319 11.3152 22.725 11.5686 22.7112C11.8221 22.6973 12.0717 22.7773 12.2698 22.936L16.1133 26.0081C17.3674 25.2967 18.7043 24.7426 20.0939 24.3581L20.6363 19.4772C20.665 19.2254 20.7853 18.993 20.9744 18.8243C21.1634 18.6556 21.408 18.5624 21.6614 18.5625H27.8489C28.1028 18.5625 28.3477 18.6561 28.5369 18.8255C28.726 18.9948 28.846 19.228 28.874 19.4803L29.4123 24.3623C30.8015 24.7468 32.1381 25.301 33.3919 26.0123L37.2384 22.9432C37.4367 22.7851 37.6863 22.7056 37.9395 22.7198C38.1927 22.7341 38.4318 22.8412 38.611 23.0206L42.9825 27.3941C43.1619 27.5737 43.2688 27.8131 43.2827 28.0666C43.2965 28.32 43.2165 28.5697 43.0578 28.7677L39.9857 32.6112C40.697 33.8653 41.2512 35.2023 41.6357 36.5918L46.5166 37.1343C46.7689 37.1622 47.0021 37.2822 47.1714 37.4714C47.3408 37.6605 47.4344 37.9055 47.4344 38.1593V44.3468C47.4344 44.6007 47.3408 44.8457 47.1714 45.0348C47.0021 45.224 46.7689 45.344 46.5166 45.3719L41.6357 45.9102C41.2511 47.2994 40.6969 48.636 39.9857 49.8898L43.0547 53.7364C43.2128 53.9346 43.2924 54.1842 43.2781 54.4374C43.2638 54.6906 43.1568 54.9297 42.9773 55.109L38.6038 59.4794C38.4244 59.6589 38.185 59.766 37.9316 59.7801C37.6781 59.7942 37.4284 59.7143 37.2302 59.5557L33.3867 56.4836C32.1326 57.195 30.7957 57.7492 29.4061 58.1336L28.8637 63.0145C28.8368 63.2689 28.7164 63.5041 28.5259 63.6747C28.3353 63.8453 28.0881 63.9389 27.8324 63.9375ZM22.573 61.875H26.9136L27.4292 57.2034C27.4526 56.9915 27.5411 56.792 27.6826 56.6324C27.824 56.4728 28.0115 56.3611 28.2191 56.3124C29.8828 55.9256 31.471 55.2664 32.9196 54.3613C33.1008 54.248 33.3127 54.1937 33.5261 54.2061C33.7395 54.2185 33.9438 54.2969 34.1107 54.4304L37.7912 57.3726L40.8612 54.3056L37.9211 50.621C37.7881 50.4539 37.7103 50.2498 37.6983 50.0366C37.6863 49.8234 37.7407 49.6118 37.8541 49.4309C38.7593 47.9823 39.4189 46.3941 39.8062 44.7305C39.8549 44.5228 39.9667 44.3354 40.1262 44.1939C40.2858 44.0524 40.4853 43.9639 40.6973 43.9405L45.3698 43.4249V39.0844L40.6983 38.5688C40.4866 38.5452 40.2875 38.4568 40.1281 38.3155C39.9688 38.1743 39.8571 37.9871 39.8083 37.7798C39.4213 36.1158 38.7617 34.5272 37.8562 33.0784C37.7428 32.8972 37.6886 32.6852 37.701 32.4718C37.7133 32.2584 37.7917 32.0542 37.9253 31.8873L40.8684 28.2067L37.8005 25.1367L34.1168 28.0768C33.9499 28.21 33.7458 28.288 33.5326 28.3002C33.3195 28.3124 33.1078 28.2581 32.9268 28.1449C31.479 27.2372 29.8911 26.5751 28.2274 26.1855C28.0197 26.1369 27.8323 26.0251 27.6908 25.8655C27.5493 25.706 27.4608 25.5065 27.4374 25.2945L26.9218 20.6229L22.5844 20.625L22.0687 25.2966C22.0452 25.5083 21.9566 25.7076 21.8151 25.867C21.6736 26.0263 21.4863 26.138 21.2788 26.1865C19.6157 26.5741 18.0279 27.2333 16.5794 28.1377C16.3983 28.2511 16.1864 28.3055 15.973 28.2934C15.7596 28.2812 15.5553 28.203 15.3883 28.0696L11.7068 25.1264L8.63362 28.1892L11.5727 31.8739C11.7061 32.0409 11.7843 32.2452 11.7964 32.4586C11.8086 32.672 11.7542 32.8839 11.6408 33.065C10.7332 34.5128 10.0712 36.1007 9.68137 37.7644C9.63257 37.9718 9.52071 38.1591 9.36115 38.3003C9.2016 38.4416 9.0022 38.53 8.79038 38.5533L4.11881 39.0689V43.4094L8.78934 43.9251C9.00112 43.9487 9.20039 44.0373 9.35976 44.1787C9.51913 44.3202 9.63076 44.5075 9.67931 44.715C10.067 46.3785 10.7266 47.9667 11.6315 49.4154C11.7448 49.5967 11.799 49.8086 11.7867 50.022C11.7743 50.2354 11.6959 50.4396 11.5624 50.6065L8.62022 54.2881L11.6872 57.3581L15.3718 54.418C15.5387 54.2849 15.7428 54.2068 15.956 54.1946C16.1692 54.1824 16.3809 54.2367 16.5619 54.35C18.0096 55.2577 19.5975 55.9197 21.2613 56.3093C21.4687 56.3581 21.656 56.47 21.7972 56.6296C21.9385 56.7891 22.0269 56.9885 22.0502 57.2003L22.573 61.875ZM24.75 48.4688C22.8355 48.4687 20.9994 47.7082 19.6456 46.3544C18.2918 45.0007 17.5312 43.1645 17.5312 41.25C17.5312 39.3355 18.2918 37.4993 19.6456 36.1456C20.9994 34.7918 22.8355 34.0313 24.75 34.0312C26.6645 34.0313 28.5006 34.7918 29.8544 36.1456C31.2082 37.4993 31.9688 39.3355 31.9688 41.25C31.9688 43.1645 31.2082 45.0007 29.8544 46.3544C28.5006 47.7082 26.6645 48.4687 24.75 48.4688ZM24.75 46.4062C26.1175 46.4062 27.429 45.863 28.396 44.896C29.363 43.929 29.9062 42.6175 29.9062 41.25C29.9062 39.8825 29.363 38.571 28.396 37.604C27.429 36.637 26.1175 36.0938 24.75 36.0938C23.3825 36.0938 22.071 36.637 21.104 37.604C20.137 38.571 19.5938 39.8825 19.5938 41.25C19.5938 42.6175 20.137 43.929 21.104 44.896C22.071 45.863 23.3825 46.4062 24.75 46.4062Z" fill="#1B245A"/>
<path d="M46.4114 26.3752C44.8877 26.3752 43.4264 25.7699 42.349 24.6925C41.2715 23.6151 40.6663 22.1538 40.6663 20.6301C40.6663 19.1064 41.2715 17.6451 42.349 16.5677C43.4264 15.4903 44.8877 14.885 46.4114 14.885C47.9351 14.885 49.3963 15.4903 50.4737 16.5677C51.5512 17.6451 52.1564 19.1064 52.1564 20.6301C52.1564 22.1538 51.5512 23.6151 50.4737 24.6925C49.3963 25.7699 47.9351 26.3752 46.4114 26.3752ZM46.4114 16.9475C45.4347 16.9475 44.498 17.3355 43.8074 18.0261C43.1167 18.7167 42.7288 19.6534 42.7288 20.6301C42.7288 21.6068 43.1167 22.5435 43.8074 23.2341C44.498 23.9247 45.4347 24.3127 46.4114 24.3127C47.3875 24.3116 48.3234 23.9234 49.0138 23.2332C49.7041 22.5431 50.0926 21.6073 50.0939 20.6311C50.0934 19.6547 49.7054 18.7184 49.0152 18.0278C48.3249 17.3371 47.3878 16.9486 46.4114 16.9475Z" fill="#1B245A"/>
</svg>
