<svg width="115" height="30" viewBox="0 0 115 30" fill="none" xmlns="http://www.w3.org/2000/svg">
<path fill-rule="evenodd" clip-rule="evenodd" d="M89.8563 28.3679V23.7611C89.604 23.789 89.3377 23.8168 89.0714 23.8445L89.0702 23.8446C88.8174 23.8864 88.5927 23.8864 88.3961 23.8864C87.5117 23.8864 86.7817 23.7472 86.192 23.4689C85.6444 23.1905 85.2232 22.8009 84.9564 22.272C84.7038 21.757 84.5774 21.1168 84.5774 20.3792V10.79H89.772V5.97446H84.5774V0.866699H83.033L74.2583 10.79H79.13V20.6715C79.13 23.1905 79.832 25.1529 81.2079 26.5586C82.6259 27.9364 84.6055 28.6184 87.1607 28.6184C87.5679 28.6184 88.0312 28.5905 88.5225 28.535C89.028 28.4793 89.4632 28.4236 89.8563 28.3679ZM48.0297 11.1652C46.9766 9.41158 45.5446 8.01982 43.7476 7.00383C41.9504 5.98785 39.9428 5.48682 37.7245 5.48682C35.5062 5.48682 33.4564 5.98785 31.6594 7.00383C29.8622 8.01982 28.4161 9.41158 27.3351 11.1652C26.2822 12.9188 25.7627 14.923 25.7627 17.1776C25.7627 19.4322 26.2822 21.4364 27.3351 23.19C28.4161 24.9436 29.8622 26.3354 31.6594 27.3514C33.4845 28.3673 35.5062 28.8684 37.7245 28.8684C39.9428 28.8684 41.9083 28.3673 43.7054 27.3514C45.5025 26.3354 46.9486 24.9436 48.0297 23.19C49.1107 21.4364 49.6442 19.4322 49.6442 17.1776C49.6442 14.923 49.1107 12.891 48.0297 11.1652ZM43.1298 20.6709C42.5962 21.6869 41.8662 22.4942 40.9256 23.0648C40.013 23.6354 38.946 23.9277 37.7245 23.9277C36.5031 23.9277 35.3799 23.6354 34.4392 23.0648C33.4985 22.4942 32.7544 21.6869 32.2069 20.6709C31.6734 19.6271 31.4066 18.472 31.4066 17.1776C31.4066 15.8832 31.6734 14.7003 32.2069 13.7121C32.7544 12.6962 33.4985 11.9028 34.4392 11.3322C35.3799 10.7198 36.475 10.4276 37.7245 10.4276C38.9741 10.4276 40.013 10.7198 40.9256 11.3322C41.8662 11.9028 42.5962 12.6962 43.1298 13.7121C43.6774 14.7003 43.9581 15.8554 43.9581 17.1776C43.9581 18.4997 43.6774 19.6271 43.1298 20.6709ZM26.9976 28.3814H20.7781L14.4462 18.4302L11.5118 21.5478V28.3814H6.06445V20.8102L20.3287 5.98794L20.3147 5.97403H26.8432L18.4896 14.9926L26.9976 28.3814ZM52.3565 5.97393V28.3673V28.3812H57.8038V15.243C57.8038 14.255 57.9864 13.406 58.3794 12.6962C58.7586 11.9863 59.3061 11.4436 59.994 11.0539C60.696 10.6502 61.4542 10.4415 62.3668 10.4415C63.2793 10.4415 64.0796 10.6363 64.7394 11.0539C65.4274 11.4296 65.9609 11.9863 66.354 12.6962C66.733 13.406 66.9296 14.255 66.9296 15.243V28.3952H72.377V13.9766C72.377 12.2925 72.012 10.8312 71.296 9.56468C70.58 8.27034 69.5691 7.26826 68.2634 6.55848C66.9858 5.84868 65.4695 5.48682 63.8549 5.48682C62.2404 5.48682 60.8365 5.84868 59.6149 6.55848C58.7113 7.08105 57.9889 7.79977 57.4669 8.71463V5.97393H52.3565ZM103.08 28.8684C100.862 28.8684 98.84 28.3673 97.0147 27.3514C95.2177 26.3354 93.7716 24.9436 92.6906 23.19C91.6376 21.4364 91.1181 19.4322 91.1181 17.1776C91.1181 14.923 91.6376 12.9188 92.6906 11.1652C93.7716 9.41158 95.2177 8.01982 97.0147 7.00383C98.8119 5.98785 100.834 5.48682 103.08 5.48682C105.326 5.48682 107.306 5.98785 109.103 7.00383C110.9 8.01982 112.332 9.41158 113.385 11.1652C114.466 12.891 115 14.8952 115 17.1776C115 19.4601 114.466 21.4364 113.385 23.19C112.304 24.9436 110.858 26.3354 109.061 27.3514C107.264 28.3673 105.27 28.8684 103.08 28.8684ZM103.08 23.9277C104.301 23.9277 105.368 23.6354 106.281 23.0648C107.222 22.4942 107.952 21.6869 108.485 20.6709C109.033 19.6271 109.314 18.4581 109.314 17.1776C109.314 15.8972 109.033 14.7003 108.485 13.7121C107.966 12.6962 107.222 11.9028 106.281 11.3183C105.368 10.7198 104.301 10.4137 103.08 10.4137C101.859 10.4137 100.735 10.7198 99.7946 11.3183C98.854 11.8889 98.1099 12.6962 97.5483 13.7121C97.0288 14.7003 96.7621 15.8554 96.7621 17.1776C96.7621 18.4997 97.0288 19.641 97.5483 20.6709C98.0958 21.6869 98.854 22.4802 99.7946 23.0648C100.735 23.6354 101.83 23.9277 103.08 23.9277Z" fill="white"/>
<path d="M11.5127 0.866699V11.0355L6.06531 16.7V6.18323H0L4.78753 0.866699H11.5127Z" fill="#59FFA3"/>
</svg>
