<svg width="159" height="36" viewBox="0 0 159 36" fill="none" xmlns="http://www.w3.org/2000/svg">
<path fill-rule="evenodd" clip-rule="evenodd" d="M6.56088 22.3657C6.56088 22.671 6.80923 22.9186 7.11546 22.9186H12.5672C12.8735 22.9186 13.1218 22.671 13.1218 22.3657V19.6482H15.8477C16.1538 19.6482 16.4023 19.4006 16.4023 19.0953V16.9307C16.4023 16.6254 16.1538 16.3779 15.8477 16.3779H7.11546C6.80923 16.3779 6.56088 16.6254 6.56088 16.9307V22.3657ZM6.56088 10.3712C6.56088 10.0659 6.31255 9.81836 6.00631 9.81836H0.554574C0.248337 9.81836 0 10.0659 0 10.3712V15.8062C0 16.1116 0.248337 16.3591 0.554574 16.3591H2.72587C3.03211 16.3591 3.28044 16.1116 3.28044 15.8062V13.0887H6.00631C6.31255 13.0887 6.56088 12.8412 6.56088 12.5359V10.3712ZM9.84133 29.9934C9.84133 29.6881 9.59299 29.4406 9.28675 29.4406H7.11546C6.80923 29.4406 6.56088 29.6881 6.56088 29.9934V32.158C6.56088 32.4633 6.80923 32.7109 7.11546 32.7109H9.28675C9.59299 32.7109 9.84133 32.4633 9.84133 32.158V29.9934ZM48.6521 9.81836H43.2003C42.8941 9.81836 42.6457 10.0659 42.6457 10.3712V12.5359C42.6457 12.8412 42.8941 13.0887 43.2003 13.0887H45.9262V15.8062C45.9262 16.1116 46.1745 16.3591 46.4808 16.3591H48.6521C48.9584 16.3591 49.2067 16.1116 49.2067 15.8062V10.3712C49.2067 10.0659 48.9584 9.81836 48.6521 9.81836ZM42.0911 16.3591H33.359C33.0527 16.3591 32.8044 16.6067 32.8044 16.912V19.0766C32.8044 19.3818 33.0527 19.6294 33.359 19.6294H36.0849V22.347C36.0849 22.6522 36.3332 22.8998 36.6395 22.8998H42.0911C42.3974 22.8998 42.6457 22.6522 42.6457 22.347V16.912C42.6457 16.6067 42.3974 16.3591 42.0911 16.3591ZM38.8108 32.7296H36.0849V30.0122C36.0849 29.7069 35.8366 29.4592 35.5303 29.4592H32.8044V23.4714C32.8044 23.1661 32.5561 22.9186 32.2498 22.9186H29.524V16.9307C29.524 16.6254 29.2756 16.3779 28.9695 16.3779H20.2372C19.931 16.3779 19.6826 16.6254 19.6826 16.9307V22.9186H16.9568C16.6505 22.9186 16.4023 23.1661 16.4023 23.4714V29.4592H13.6764C13.3701 29.4592 13.1218 29.7069 13.1218 30.0122V32.7296H10.3959C10.0897 32.7296 9.84133 32.9772 9.84133 33.2826V35.4472C9.84133 35.7525 10.0897 36 10.3959 36H15.8477C16.1538 36 16.4023 35.7525 16.4023 35.4472V32.7296H19.128C19.4343 32.7296 19.6826 32.4821 19.6826 32.1768V26.1889H29.524V32.1768C29.524 32.4821 29.7724 32.7296 30.0785 32.7296H32.8044V35.4472C32.8044 35.7525 33.0527 36 33.359 36H38.8108C39.1169 36 39.3654 35.7525 39.3654 35.4472V33.2826C39.3654 32.9772 39.1169 32.7296 38.8108 32.7296ZM42.0911 29.4406H39.9199C39.6137 29.4406 39.3654 29.6881 39.3654 29.9934V32.158C39.3654 32.4633 39.6137 32.7109 39.9199 32.7109H42.0911C42.3974 32.7109 42.6457 32.4633 42.6457 32.158V29.9934C42.6457 29.6881 42.3974 29.4406 42.0911 29.4406Z" fill="white"/>
<path fill-rule="evenodd" clip-rule="evenodd" d="M13.6757 9.81812H35.5297C35.8359 9.81812 36.0842 9.57037 36.0842 9.26486V7.09868C36.0842 6.79306 35.8359 6.54542 35.5297 6.54542H32.8038V3.82597C32.8038 3.52046 32.5555 3.2727 32.2492 3.2727H29.5234V0.553266C29.5234 0.247751 29.275 0 28.9688 0H20.2366C19.9304 0 19.682 0.247751 19.682 0.553266V3.2727H16.9562C16.6499 3.2727 16.4016 3.52046 16.4016 3.82597V6.54542H13.6757C13.3695 6.54542 13.1211 6.79306 13.1211 7.09868V9.26486C13.1211 9.57037 13.3695 9.81812 13.6757 9.81812Z" fill="#1BEDBA"/>
<path fill-rule="evenodd" clip-rule="evenodd" d="M105.833 16.0338C104.108 16.0338 102.549 16.7421 101.452 17.8779C100.38 16.7377 98.8536 16.025 97.1618 16.025C96.2125 16.025 95.244 16.3718 94.497 16.8728V16.7068C94.497 16.4673 94.2977 16.2851 94.0659 16.2851H91.6592C91.429 16.2851 91.2281 16.4673 91.2281 16.7068V28.668C91.2281 28.9075 91.4275 29.0897 91.6592 29.0897H94.0718C94.3021 29.0897 94.5029 28.9075 94.5029 28.668V21.8763C94.5029 20.4128 95.6942 19.2284 97.1618 19.2284C98.6307 19.2284 99.8206 20.4142 99.8206 21.8763V28.668C99.8206 28.9075 100.02 29.0897 100.252 29.0897H102.608C102.614 29.0897 102.618 29.0897 102.621 29.0897H102.674C102.904 29.0897 103.105 28.9075 103.105 28.668V21.8807C103.105 20.4245 104.322 19.2342 105.833 19.2342C107.345 19.2342 108.562 20.4245 108.562 21.8807V28.6665C108.562 28.9061 108.761 29.0882 108.993 29.0882H111.414C111.646 29.0882 111.845 28.9061 111.845 28.6665V21.8807C111.844 18.6465 109.148 16.0338 105.833 16.0338ZM123.882 22.4581C122.963 21.9012 121.784 21.6338 120.755 21.4016L120.735 21.3972C119.989 21.2283 119.332 21.0784 118.86 20.8579C118.392 20.6405 118.18 20.3907 118.18 20.0468C118.18 19.75 118.292 19.487 118.558 19.2798C118.831 19.0667 119.283 18.9021 119.981 18.8611C121.17 18.8611 122.092 18.8889 122.715 18.9168C123.028 18.9301 123.266 18.9447 123.423 18.9551C123.504 18.9609 123.563 18.9639 123.604 18.9668C123.624 18.9683 123.639 18.9697 123.648 18.9697L123.658 18.9712H123.661L123.672 18.9726H123.682C123.867 18.9726 124.035 18.9374 124.15 18.8184C124.251 18.7125 124.273 18.5774 124.282 18.5113C124.282 18.5069 124.283 18.5025 124.283 18.4996C124.287 18.4716 124.291 18.451 124.294 18.432L124.301 18.407V16.9331C124.301 16.7538 124.288 16.5892 124.22 16.4629C124.134 16.3057 123.991 16.2557 123.876 16.2307L123.864 16.2292L123.854 16.2278H123.85L123.838 16.2263C123.828 16.2248 123.814 16.2234 123.794 16.2219C123.754 16.2175 123.695 16.2117 123.617 16.2042C123.458 16.1896 123.223 16.1705 122.904 16.1514C122.267 16.1131 121.298 16.075 119.972 16.075H119.967H119.963C118.266 16.1382 116.978 16.6084 116.112 17.3519C115.242 18.097 114.814 19.102 114.814 20.1893C114.814 20.9049 114.98 21.4913 115.272 21.9747C115.563 22.4567 115.971 22.8226 116.438 23.1092C117.358 23.6719 118.535 23.9438 119.561 24.1804L119.583 24.1848C120.33 24.3567 120.988 24.5094 121.46 24.7329C121.927 24.9533 122.144 25.2075 122.144 25.5617C122.144 25.857 122.006 26.12 121.674 26.3213C121.328 26.53 120.769 26.6696 119.946 26.6696C119.01 26.6696 117.988 26.5697 117.197 26.4683C116.801 26.4183 116.466 26.3668 116.228 26.3287C116.109 26.3096 116.016 26.2934 115.952 26.2831C115.935 26.2802 115.919 26.2773 115.907 26.2758C115.896 26.2742 115.885 26.2728 115.878 26.2713L115.86 26.2684L115.855 26.2669L115.834 26.2625H115.813C115.645 26.2625 115.486 26.2934 115.373 26.4065C115.274 26.505 115.252 26.6358 115.243 26.696C115.242 26.7004 115.242 26.7049 115.242 26.7078C115.236 26.7401 115.231 26.7607 115.227 26.7813L115.221 26.8048L115.128 28.4681V28.4741C115.128 28.5827 115.144 28.7121 115.204 28.8282C115.264 28.9516 115.373 29.0618 115.54 29.1044L115.546 29.1059L115.552 29.1073L115.559 29.0692C115.552 29.1073 115.552 29.1073 115.552 29.1073L115.558 29.1088C115.56 29.1102 115.567 29.1103 115.574 29.1117C115.587 29.1148 115.608 29.1177 115.635 29.1235C115.688 29.1338 115.764 29.147 115.866 29.1632C116.07 29.1955 116.367 29.2382 116.751 29.2823C117.516 29.3689 118.62 29.4542 119.977 29.4542H119.989C120.156 29.4556 121.512 29.4659 122.836 28.9706C123.5 28.7223 124.17 28.3418 124.675 27.757C125.185 27.1677 125.514 26.3816 125.514 25.35C125.514 24.6417 125.347 24.0599 125.055 23.5809C124.76 23.1017 124.35 22.7403 123.882 22.4581ZM151.089 16.2924C149.742 16.2924 148.482 16.6701 147.425 17.324V11.8436C147.425 11.6041 147.225 11.4219 146.993 11.4219H144.577C144.347 11.4219 144.147 11.6041 144.147 11.8436V28.6709C144.147 28.9105 144.346 29.0927 144.577 29.0927H146.993C147.224 29.0927 147.425 28.9105 147.425 28.6709V28.111C148.423 28.8869 149.745 29.4527 151.089 29.4527C154.848 29.4527 157.907 26.5137 157.907 22.8726C157.907 19.2313 154.848 16.2924 151.089 16.2924ZM151.089 26.2758C149.141 26.2758 147.56 24.752 147.56 22.8726C147.56 20.9931 149.14 19.4693 151.089 19.4693C153.038 19.4693 154.619 20.9931 154.619 22.8726C154.619 24.752 153.04 26.2758 151.089 26.2758ZM140.431 16.2924H138.01C137.777 16.2924 137.578 16.4747 137.578 16.7142V23.6704C137.578 25.106 136.365 26.2831 134.85 26.2831C134.843 26.2831 134.837 26.2831 134.83 26.2831C134.822 26.2831 134.816 26.2831 134.808 26.2831C133.294 26.2831 132.081 25.106 132.081 23.6704V16.7142C132.081 16.4747 131.881 16.2924 131.65 16.2924H129.229C128.996 16.2924 128.797 16.4747 128.797 16.7142V23.6704C128.797 26.8708 131.496 29.4512 134.808 29.4512C134.816 29.4512 134.822 29.4512 134.83 29.4512C134.837 29.4512 134.843 29.4512 134.85 29.4512C138.162 29.4512 140.862 26.8708 140.862 23.6704V16.7142C140.862 16.4747 140.662 16.2924 140.431 16.2924ZM70.9786 22.4581C70.0589 21.9012 68.8794 21.6338 67.8519 21.4016L67.8311 21.3972C67.0842 21.2283 66.4286 21.0784 65.9563 20.8579C65.4883 20.6405 65.2757 20.3907 65.2757 20.0468C65.2757 19.75 65.3879 19.487 65.6536 19.2798C65.9267 19.0667 66.3785 18.9021 67.0767 18.8611C68.2666 18.8611 69.1879 18.8889 69.8108 18.9168C70.1239 18.9301 70.3616 18.9447 70.5195 18.9551C70.5992 18.9609 70.6597 18.9639 70.6997 18.9668C70.7203 18.9683 70.7351 18.9697 70.7439 18.9697L70.7542 18.9712H70.7572L70.7675 18.9726H70.7779C70.9624 18.9726 71.1307 18.9374 71.2459 18.8184C71.3477 18.7125 71.3684 18.5774 71.3773 18.5113C71.3773 18.5069 71.3787 18.5025 71.3787 18.4996C71.3831 18.4716 71.3861 18.451 71.3906 18.432L71.3964 18.407V16.9331C71.3964 16.7538 71.3846 16.5892 71.3152 16.4629C71.2297 16.3057 71.0864 16.2557 70.9713 16.2307L70.9609 16.2292L70.9506 16.2278H70.9462L70.9343 16.2263C70.9241 16.2248 70.9093 16.2234 70.89 16.2219C70.8502 16.2175 70.7911 16.2117 70.7129 16.2042C70.555 16.1896 70.3187 16.1705 69.9998 16.1514C69.3621 16.1131 68.3936 16.075 67.0679 16.075H67.0635H67.059C65.3613 16.1382 64.074 16.6084 63.2074 17.3519C62.3393 18.097 61.9111 19.102 61.9111 20.1893C61.9111 20.9049 62.0766 21.4913 62.3688 21.9747C62.6597 22.4567 63.0686 22.8226 63.5351 23.1092C64.4549 23.6719 65.633 23.9438 66.659 24.1804L66.6797 24.1848C67.4281 24.3567 68.0851 24.5094 68.5576 24.7329C69.0241 24.9533 69.241 25.2075 69.241 25.5617C69.241 25.857 69.1037 26.12 68.7716 26.3213C68.4261 26.53 67.8666 26.6696 67.0428 26.6696C66.1068 26.6696 65.0853 26.5697 64.294 26.4683C63.8983 26.4183 63.5632 26.3668 63.3254 26.3287C63.2074 26.3096 63.1129 26.2934 63.0494 26.2831C63.0317 26.2802 63.0169 26.2773 63.0036 26.2758C62.9933 26.2742 62.983 26.2728 62.9756 26.2713L62.9578 26.2684L62.952 26.2669L62.9313 26.2625H62.9091C62.7409 26.2625 62.5814 26.2934 62.4692 26.4065C62.3703 26.505 62.3482 26.6358 62.3393 26.696C62.3378 26.7004 62.3378 26.7049 62.3378 26.7078C62.332 26.7401 62.3275 26.7607 62.3231 26.7813L62.3172 26.8048L62.2212 28.4666V28.4726C62.2212 28.5813 62.2375 28.7106 62.2965 28.8266C62.357 28.9502 62.4663 29.0603 62.6331 29.1029L62.639 29.1044L62.6449 29.1059L62.6522 29.0677C62.6449 29.1059 62.6449 29.1059 62.6449 29.1059H62.6464L62.6508 29.1073C62.6538 29.1088 62.6597 29.1088 62.667 29.1102C62.6803 29.1132 62.7011 29.1162 62.7276 29.1221C62.7807 29.1323 62.8575 29.1456 62.9594 29.1617C63.1631 29.1941 63.4599 29.2367 63.8437 29.2807C64.6084 29.3674 65.7127 29.4527 67.0709 29.4527H67.0812C67.248 29.4542 68.6047 29.4644 69.929 28.9692C70.5933 28.7209 71.2636 28.3403 71.7685 27.7555C72.2778 27.1662 72.607 26.3801 72.607 25.3486C72.607 24.6403 72.4402 24.0584 72.1479 23.5793C71.8555 23.1017 71.4466 22.7403 70.9786 22.4581ZM87.5171 16.2924H85.096C84.8642 16.2924 84.6649 16.4747 84.6649 16.7142V23.6704C84.6649 25.106 83.4515 26.2831 81.9367 26.2831C81.9293 26.2831 81.9235 26.2831 81.916 26.2831C81.9087 26.2831 81.9027 26.2831 81.8954 26.2831C80.3807 26.2831 79.1671 25.106 79.1671 23.6704V16.7142C79.1671 16.4747 78.9679 16.2924 78.736 16.2924H76.315C76.0832 16.2924 75.8838 16.4747 75.8838 16.7142V23.6704C75.8838 26.8708 78.5826 29.4512 81.8954 29.4512C81.9027 29.4512 81.9087 29.4512 81.916 29.4512C81.9235 29.4512 81.9293 29.4512 81.9367 29.4512C85.248 29.4512 87.9482 26.8708 87.9482 23.6704V16.7142C87.9482 16.4747 87.749 16.2924 87.5171 16.2924Z" fill="white"/>
</svg>
