<svg width="128" height="33" viewBox="0 0 128 33" fill="none" xmlns="http://www.w3.org/2000/svg">
<g clip-path="url(#clip0_50_214)">
<path d="M68.5865 30.6973H71.938V7.49756H68.5865V21.0153C68.5865 25.2121 65.8755 27.6521 61.5379 27.6521C56.8552 27.6521 55.4258 24.3825 55.4258 21.0153V7.49756H52.0247V21.7961C52.0247 26.6273 54.0456 30.7265 60.3549 30.7265C64.4461 30.7265 67.5514 28.5305 68.5372 24.1385H68.5865V30.6973Z" fill="white"/>
<path d="M78.1586 23.5527C78.1586 27.7495 80.2288 30.7263 84.8125 30.7263C86.7353 30.7263 88.0167 30.4823 89.5443 29.9943L89.0518 26.9199C87.721 27.3103 86.6859 27.5055 85.4038 27.5055C82.6441 27.5055 81.5596 26.0903 81.5596 23.2599V10.4741H89.298V7.49734H81.5596V0.274902H78.1586V7.49734H74.4612V10.4741H78.1586V23.5527Z" fill="white"/>
<path d="M96.4159 3.59332V0.274902H92.2754V3.59332H96.4159ZM96.0709 30.697V7.49734H92.6698V30.697H96.0709Z" fill="white"/>
<path d="M104.53 0.274902H101.129V30.697H104.53V0.274902Z" fill="white"/>
<path d="M116.416 27.7982C112.817 27.7982 111.536 25.895 111.536 24.0406C111.536 21.6493 113.311 20.3806 116.515 20.3806H124.106V21.8446C124.106 25.2606 121.197 27.7982 116.416 27.7982ZM124.106 30.697H127.457V16.0373C127.457 10.2301 124.746 7.00928 118.585 7.00928C112.966 7.00928 109.713 9.8397 108.924 15.3053L112.177 15.8421C112.867 11.6453 114.839 9.9373 118.486 9.9373C122.627 9.9373 124.106 12.1333 124.106 16.1349V17.6478H116.17C110.797 17.6478 108.184 20.5758 108.184 24.3334C108.184 28.5791 111.043 30.6774 115.677 30.6774C119.718 30.6774 122.972 28.6279 124.056 24.3334H124.106V30.697Z" fill="white"/>
<path d="M13.2673 0.65918L19.6289 7.0796L12.8081 13.9634C9.58155 17.2197 9.58155 22.4991 12.8081 25.7553C15.8294 28.8045 20.6086 28.9984 23.8535 26.337L21.8829 28.3257C17.1246 33.1279 9.40986 33.1279 4.65154 28.3257L3.8683 27.5352C-0.890019 22.733 -0.890019 14.9471 3.8683 10.1449L13.2673 0.65918Z" fill="white"/>
<path d="M30.4362 32.5192L24.0744 26.0988L30.8953 19.215C34.1218 15.9588 34.1218 10.6793 30.8953 7.42299C27.8739 4.3738 23.0948 4.17992 19.8499 6.84138L21.8204 4.85264C26.5788 0.0504205 34.2935 0.0504202 39.0518 4.85264L39.835 5.64311C44.5934 10.4454 44.5934 18.2313 39.835 23.0335L30.4362 32.5192Z" fill="white"/>
</g>
<defs>
<clipPath id="clip0_50_214">
<rect width="128" height="33" fill="white"/>
</clipPath>
</defs>
</svg>
