<svg width="179" height="33" viewBox="0 0 179 33" fill="none" xmlns="http://www.w3.org/2000/svg">
<g clip-path="url(#clip0_50_182)">
<path d="M93.5115 12.4722H96.6898L102.197 26.1177H102.395L107.914 12.4722H111.147V30.0356H108.587V17.3304H108.422L103.3 30.0132H101.237L96.171 17.3192H96.0058V30.0356H93.5115V12.4722Z" fill="#29D1C9"/>
<path d="M117.516 30.3144C116.698 30.3144 115.948 30.1577 115.286 29.8443C114.624 29.5309 114.094 29.0831 113.708 28.4786C113.321 27.8854 113.123 27.1577 113.123 26.2958C113.123 25.5458 113.266 24.9413 113.543 24.46C113.829 23.9898 114.205 23.6092 114.69 23.3182C115.175 23.0383 115.705 22.8256 116.29 22.6802C116.875 22.5346 117.482 22.4338 118.101 22.3555C118.884 22.266 119.513 22.1988 119.998 22.1316C120.484 22.0644 120.826 21.9637 121.047 21.8293C121.268 21.6951 121.378 21.4712 121.378 21.1689V21.1129C121.378 20.363 121.168 19.7921 120.76 19.3779C120.341 18.9749 119.733 18.7622 118.917 18.7622C118.101 18.7622 117.405 18.9525 116.909 19.3219C116.412 19.6913 116.081 20.1167 115.893 20.5869L113.509 20.0271C113.796 19.2212 114.216 18.5831 114.756 18.0906C115.308 17.598 115.926 17.2398 116.644 17.016C117.361 16.7921 118.09 16.6689 118.873 16.6689C119.391 16.6689 119.944 16.7249 120.529 16.848C121.113 16.9712 121.654 17.195 122.172 17.5197C122.691 17.8443 123.111 18.3145 123.431 18.9189C123.751 19.5234 123.917 20.307 123.917 21.2584V30.001H121.444V28.1988H121.356C121.202 28.5234 120.959 28.848 120.628 29.1614C120.297 29.4861 119.878 29.7548 119.37 29.9674C118.862 30.1801 118.244 30.2809 117.526 30.2809L117.516 30.3144ZM118.067 28.266C118.774 28.266 119.37 28.1316 119.866 27.8518C120.363 27.5719 120.738 27.2025 121.003 26.7548C121.268 26.2958 121.4 25.8144 121.4 25.3107V23.598C121.312 23.6876 121.136 23.7659 120.882 23.8443C120.628 23.9226 120.33 23.9898 120.01 24.0458C119.679 24.1018 119.37 24.1465 119.06 24.1913C118.752 24.2361 118.487 24.2697 118.277 24.2921C117.791 24.3592 117.339 24.4712 116.941 24.6167C116.533 24.7622 116.213 24.9749 115.97 25.2547C115.728 25.5346 115.606 25.904 115.606 26.3517C115.606 26.9898 115.838 27.4712 116.301 27.7846C116.765 28.1092 117.35 28.266 118.067 28.266Z" fill="#29D1C9"/>
<path d="M126.864 30.0346V16.8592H129.291V18.9637H129.435C129.678 18.2584 130.097 17.6988 130.693 17.2846C131.289 16.8704 131.973 16.6689 132.735 16.6689C132.889 16.6689 133.077 16.6689 133.287 16.6913C133.496 16.7025 133.673 16.7137 133.805 16.7361V19.1876C133.706 19.154 133.53 19.1204 133.265 19.098C133 19.0645 132.746 19.0532 132.481 19.0532C131.885 19.0532 131.356 19.1764 130.88 19.4338C130.406 19.6913 130.042 20.0383 129.777 20.4861C129.512 20.9339 129.38 21.4376 129.38 22.0196V30.0458H126.875L126.864 30.0346Z" fill="#29D1C9"/>
<path d="M135.516 30.0356V12.4722H138.021V30.0356H135.516ZM137.845 25.5692L137.812 22.4461H138.264L143.429 16.8602H146.453L140.559 23.2297H140.14L137.845 25.5692ZM143.705 30.0356L139.058 23.7893L140.802 21.9871L146.817 30.0356H143.705Z" fill="#29D1C9"/>
<path d="M153.075 30.3039C151.806 30.3039 150.702 30.0241 149.775 29.4644C148.848 28.9046 148.13 28.1211 147.634 27.1024C147.137 26.0838 146.883 24.8972 146.883 23.5427C146.883 22.1882 147.126 21.0016 147.623 19.9718C148.12 18.942 148.804 18.136 149.698 17.5651C150.591 16.983 151.64 16.7031 152.854 16.7031C153.594 16.7031 154.3 16.8263 154.995 17.0726C155.68 17.3188 156.308 17.6994 156.849 18.2255C157.401 18.7517 157.831 19.4345 158.152 20.274C158.472 21.1136 158.637 22.1323 158.637 23.3188V24.2367H148.307V22.3114H157.335L156.165 22.9494C156.165 22.1434 156.044 21.427 155.79 20.8002C155.547 20.1845 155.172 19.692 154.675 19.345C154.179 18.9979 153.572 18.8188 152.843 18.8188C152.115 18.8188 151.497 18.9979 150.978 19.345C150.459 19.692 150.073 20.1621 149.797 20.7442C149.521 21.3263 149.389 21.9644 149.389 22.6584V23.9681C149.389 24.8748 149.544 25.636 149.852 26.2629C150.161 26.8897 150.591 27.3711 151.144 27.6957C151.695 28.0203 152.346 28.1882 153.075 28.1882C153.56 28.1882 153.991 28.1211 154.377 27.9756C154.764 27.83 155.106 27.6173 155.392 27.3375C155.68 27.0576 155.9 26.7106 156.044 26.2852L158.438 26.7442C158.24 27.4494 157.909 28.0763 157.412 28.6024C156.927 29.1397 156.308 29.5539 155.569 29.845C154.83 30.136 153.991 30.2815 153.042 30.2815L153.075 30.3039Z" fill="#29D1C9"/>
<path d="M166.694 16.8502V18.9099H159.608V16.8502H166.694ZM161.496 13.7158H164.012V26.1636C164.012 26.7681 164.134 27.2047 164.388 27.4845C164.63 27.7644 165.039 27.8987 165.579 27.8987C165.712 27.8987 165.855 27.8987 165.999 27.8763C166.153 27.8651 166.297 27.8427 166.462 27.8091L166.936 29.936C166.683 30.0255 166.407 30.0927 166.098 30.1375C165.789 30.1822 165.491 30.2047 165.193 30.2047C164.067 30.2047 163.173 29.88 162.5 29.242C161.827 28.6039 161.485 27.742 161.485 26.6785V13.7158H161.496Z" fill="#29D1C9"/>
<path d="M178.492 20.0837L176.207 20.4867C176.064 20.0501 175.788 19.6472 175.391 19.2777C174.994 18.9083 174.398 18.7292 173.602 18.7292C172.886 18.7292 172.301 18.8971 171.815 19.2217C171.329 19.5464 171.097 19.9606 171.097 20.4643C171.097 20.9009 171.263 21.2591 171.583 21.5389C171.903 21.8188 172.422 22.0314 173.128 22.1994L175.203 22.6695C176.384 22.9494 177.278 23.3748 177.863 23.968C178.448 24.5613 178.745 25.3113 178.745 26.2292C178.745 27.024 178.525 27.7292 178.072 28.3449C177.62 28.9606 177.002 29.4419 176.196 29.7889C175.402 30.1359 174.475 30.315 173.426 30.315C171.97 30.315 170.789 30.0016 169.872 29.3635C168.956 28.7255 168.393 27.83 168.184 26.677L170.612 26.2964C170.766 26.9457 171.086 27.427 171.561 27.7628C172.036 28.0986 172.654 28.2553 173.415 28.2553C174.232 28.2553 174.894 28.0762 175.391 27.7292C175.887 27.3822 176.141 26.9457 176.141 26.4419C176.141 25.6136 175.534 25.0427 174.309 24.7516L172.113 24.2591C170.898 23.9792 170.005 23.5315 169.42 22.9158C168.846 22.3113 168.559 21.5389 168.559 20.6098C168.559 19.8375 168.769 19.1434 169.199 18.5613C169.629 17.968 170.225 17.5203 170.976 17.1845C171.726 16.8598 172.598 16.6919 173.559 16.6919C174.971 16.6919 176.075 17.0053 176.88 17.621C177.686 18.2367 178.216 19.065 178.48 20.0837H178.492Z" fill="#29D1C9"/>
<path d="M32.0715 29.8321V27.8955L40.7682 15.2351H32.0164V12.627H44.5869V14.5747L35.8902 27.224H44.642V29.8321H32.0715Z" fill="white"/>
<path d="M51.628 30.0899C50.3809 30.0899 49.2993 29.8101 48.3943 29.2616C47.4783 28.7018 46.783 27.9295 46.2864 26.9332C45.7897 25.937 45.5359 24.7728 45.5359 23.4407C45.5359 22.1086 45.7897 20.9444 46.2864 19.937C46.783 18.9295 47.4893 18.1571 48.3943 17.5974C49.3103 17.0377 50.3809 16.769 51.628 16.769C52.8751 16.769 53.9567 17.0489 54.8616 17.5974C55.7666 18.1459 56.484 18.9295 56.9807 19.937C57.4773 20.9444 57.7311 22.1086 57.7311 23.4407C57.7311 24.7728 57.4773 25.9257 56.9807 26.9332C56.484 27.9295 55.7777 28.7131 54.8616 29.2616C53.9456 29.8213 52.8751 30.0899 51.628 30.0899ZM51.628 27.6384C52.3233 27.6384 52.8862 27.4481 53.3386 27.0788C53.7911 26.7093 54.1222 26.1944 54.343 25.5564C54.5637 24.9183 54.6741 24.213 54.6741 23.4295C54.6741 22.6459 54.5637 21.9183 54.343 21.2802C54.1222 20.6421 53.7801 20.1384 53.3386 19.7578C52.8862 19.3884 52.3233 19.1981 51.628 19.1981C50.9327 19.1981 50.3919 19.3884 49.9284 19.7578C49.4759 20.1273 49.1337 20.6421 48.913 21.2802C48.6923 21.9183 48.5819 22.6347 48.5819 23.4295C48.5819 24.2243 48.6923 24.9183 48.913 25.5564C49.1337 26.1944 49.4759 26.6982 49.9284 27.0788C50.3809 27.4481 50.9548 27.6384 51.628 27.6384Z" fill="white"/>
<path d="M64.3089 30.0672C63.3156 30.0672 62.4217 29.8097 61.6271 29.2837C60.8325 28.7687 60.2144 28.0075 59.7509 27.0113C59.2984 26.015 59.0667 24.8172 59.0667 23.3956C59.0667 21.9739 59.2984 20.7426 59.7619 19.7575C60.2255 18.7724 60.8545 18.0224 61.6492 17.5187C62.4438 17.015 63.3267 16.7575 64.2979 16.7575C65.0484 16.7575 65.6664 16.8806 66.141 17.1381C66.6156 17.3956 67.0019 17.6978 67.2888 18.056C67.5758 18.4143 67.7965 18.7501 67.94 19.0523H68.0613V12.6157H71.0412V29.8322H68.1166V27.7836H67.9289C67.7744 28.097 67.5427 28.4329 67.2557 28.7799C66.9687 29.1269 66.5825 29.4291 66.1079 29.6755C65.6333 29.9217 65.0263 30.056 64.2869 30.056L64.3089 30.0672ZM65.1367 27.571C65.7768 27.571 66.3176 27.3919 66.7591 27.0449C67.2005 26.6978 67.5427 26.2053 67.7744 25.5784C68.0062 24.9516 68.1275 24.2239 68.1275 23.3844C68.1275 22.5448 68.0172 21.8172 67.7854 21.1904C67.5537 20.5747 67.2115 20.0934 66.7701 19.7575C66.3286 19.4217 65.7768 19.2538 65.1367 19.2538C64.4966 19.2538 63.9227 19.4329 63.4702 19.7799C63.0177 20.1381 62.6866 20.6195 62.4659 21.2463C62.2451 21.8732 62.1348 22.5784 62.1348 23.3844C62.1348 24.1904 62.2451 24.9068 62.4769 25.5337C62.7086 26.1605 63.0398 26.6643 63.4813 27.0224C63.9226 27.3807 64.4745 27.5597 65.1367 27.5597V27.571Z" fill="white"/>
<path d="M74.7936 15.1127C74.3191 15.1127 73.9102 14.956 73.5682 14.6314C73.2262 14.3068 73.061 13.915 73.061 13.4672C73.061 13.0194 73.2371 12.6165 73.5682 12.2918C73.8993 11.9673 74.3191 11.8105 74.7936 11.8105C75.268 11.8105 75.6653 11.9673 76.0073 12.2918C76.3493 12.6165 76.5152 13.0083 76.5152 13.4561C76.5152 13.9038 76.3493 14.3068 76.0073 14.6314C75.6653 14.956 75.2571 15.1127 74.7936 15.1127ZM73.2924 29.8441V16.9262H76.283V29.8441H73.2924Z" fill="white"/>
<path d="M82.0882 30.101C81.2717 30.101 80.5434 29.9555 79.903 29.6533C79.2635 29.3511 78.7446 28.9145 78.3801 28.3436C78.0054 27.7616 77.8176 27.0563 77.8176 26.2056C77.8176 25.478 77.9501 24.8847 78.2149 24.4033C78.4798 23.922 78.8436 23.5414 79.3071 23.2615C79.7706 22.9817 80.2894 22.7578 80.8635 22.6122C81.4376 22.4667 82.0336 22.3548 82.6514 22.2988C83.4016 22.2093 84.0091 22.1421 84.4726 22.0749C84.9362 22.019 85.2672 21.9182 85.4768 21.7727C85.6864 21.6384 85.786 21.4145 85.786 21.1235V21.0675C85.786 20.4406 85.5983 19.9593 85.2338 19.6122C84.8699 19.2652 84.3402 19.0974 83.6446 19.0974C82.9053 19.0974 82.3203 19.2541 81.9012 19.5787C81.4813 19.9033 81.1837 20.2839 81.0287 20.7205L78.2368 20.3175C78.4572 19.5339 78.8218 18.8735 79.3297 18.3473C79.8368 17.8212 80.4553 17.4183 81.1946 17.1608C81.923 16.8921 82.7394 16.7578 83.6228 16.7578C84.2296 16.7578 84.8365 16.8249 85.4433 16.9705C86.0509 17.116 86.6134 17.3511 87.1213 17.6869C87.6292 18.0227 88.0374 18.4817 88.335 19.0526C88.6333 19.6235 88.7876 20.3399 88.7876 21.1906V29.8324H85.9068V28.0525H85.8188C85.6311 28.4108 85.3771 28.7354 85.046 29.0488C84.7149 29.3623 84.3067 29.6085 83.8214 29.81C83.3353 30.0115 82.751 30.101 82.0882 30.101ZM82.85 27.8622C83.4569 27.8622 83.9757 27.7391 84.4173 27.5041C84.859 27.2578 85.201 26.9332 85.4433 26.5301C85.6864 26.1272 85.8079 25.6906 85.8079 25.2093V23.6981C85.7082 23.7765 85.5539 23.8436 85.3334 23.9107C85.1122 23.9779 84.859 24.0339 84.5825 24.0899C84.3067 24.1459 84.031 24.1906 83.7552 24.2242C83.4903 24.2578 83.2473 24.2913 83.0596 24.3138C82.607 24.3809 82.2097 24.4816 81.8568 24.616C81.5039 24.7615 81.2274 24.9518 81.0178 25.1981C80.8082 25.4444 80.7093 25.769 80.7093 26.1608C80.7093 26.7204 80.9079 27.1458 81.3161 27.4369C81.7134 27.7167 82.2322 27.8622 82.85 27.8622Z" fill="white"/>
<path d="M28.904 0.011194C27.8997 0.011194 27.0278 0.559701 26.5532 1.38806H12.1286C11.6651 0.570896 10.7822 0.011194 9.77786 0.011194C8.27688 0.011194 7.06289 1.24254 7.06289 2.76492C7.06289 4.07463 7.95686 5.16044 9.1598 5.4403L10.4842 9.87316L12.857 8.32839L11.7534 4.64552C11.8968 4.48881 12.0183 4.3209 12.1176 4.14179H24.2797L4.31482 17.1604C3.93958 16.9701 3.52019 16.8582 3.07873 16.8582C1.57778 16.8582 0.36377 18.0896 0.36377 19.612C0.36377 21.1343 1.57778 22.3656 3.07873 22.3656C3.48708 22.3656 3.87336 22.2761 4.22652 22.1082L15.3181 30C15.3181 30.0783 15.3071 30.1567 15.3071 30.2463C15.3071 31.7687 16.5211 33 18.022 33C19.523 33 20.737 31.7687 20.737 30.2463C20.737 28.9366 19.8431 27.8508 18.6401 27.5709L15.3402 16.5336L12.9674 18.0784L15.583 26.8321L5.7937 19.8582C5.7937 19.7798 5.80474 19.7015 5.80474 19.612C5.80474 19.5672 5.80474 19.5224 5.80474 19.4776L27.6569 5.20522C28.0321 5.39552 28.4515 5.50747 28.8929 5.50747C30.3939 5.50747 31.6079 4.27612 31.6079 2.75373C31.6079 1.23134 30.3939 0 28.8929 0L28.904 0.011194Z" fill="#29D1C9"/>
</g>
<defs>
<clipPath id="clip0_50_182">
<rect width="179" height="33" fill="white"/>
</clipPath>
</defs>
</svg>
