<svg id="Layer_1" enable-background="new 0 0 512 512" height="512" viewBox="0 0 512 512" width="512" xmlns="http://www.w3.org/2000/svg"><g><path d="m116.003 52.004h329.997v449.996h-329.997z" fill="#fff" transform="matrix(-1 0 0 -1 562.003 554.004)"/><circle cx="344.001" cy="401.001" fill="#80b6ff" r="59.999"/><path d="m81.849 41.947h199.998v199.998h-199.998z" fill="#ffee80" transform="matrix(.985 -.174 .174 .985 -21.886 33.734)"/><g><path d="m281.002 492c-5.51 0-10 4.49-10 10s4.49 10 10 10 10-4.49 10-10-4.49-10-10-10z"/><path d="m453.07 44.932c-1.86-1.86-4.44-2.932-7.07-2.932h-170.078l-3.11-17.638c-.46-2.61-1.94-4.929-4.11-6.449-2.18-1.53-4.86-2.129-7.47-1.659l-100.946 17.802-1.086-6.159c-1.565-8.878-6.494-16.615-13.879-21.786-7.384-5.17-16.339-7.156-25.219-5.59-8.878 1.564-16.615 6.493-21.786 13.878s-7.156 16.341-5.591 25.219l1.085 6.155-29.547 5.21c-5.44.96-9.07 6.14-8.11 11.58l34.73 196.968c.46 2.61 1.94 4.93 4.11 6.45 1.7 1.19 3.7 1.81 5.74 1.81 1.537 0 5.267-.77 5.267-.77v234.979c0 2.63 1.072 5.21 2.932 7.07s4.442 2.93 7.072 2.93h119.999c5.51 0 10-4.49 10-10s-4.49-10-10-10h-110.003v-228.508l133.222-23.492h136.779c5.523 0 10-4.478 10-10s-4.477-10-10-10h-88.692l-3.526-20h92.218c5.523 0 10-4.478 10-10s-4.477-10-10-10h-95.744l-6.171-35h71.915c5.523 0 10-4.478 10-10s-4.477-10-10-10h-75.442l-3.526-20h28.968c5.523 0 10-4.478 10-10s-4.477-10-10-10h-32.494l-4.055-23h156.548v430h-109.999c-5.51 0-10 4.49-10 10s4.49 10 10 10h119.999c2.63 0 5.21-1.07 7.07-2.93s2.93-4.44 2.93-7.07v-449.996c0-2.63-1.07-5.212-2.93-7.072zm-307.923 18.444c.638 3.617-.171 7.267-2.277 10.275-2.107 3.008-5.259 5.016-8.875 5.654-7.467 1.314-14.612-3.687-15.929-11.153l-1.085-6.154 27.082-4.776zm-30.447-37.505c2.106-3.008 5.258-5.017 8.876-5.654.807-.142 1.615-.212 2.417-.212 2.795 0 5.519.853 7.856 2.489 3.009 2.106 5.017 5.259 5.654 8.876l1.086 6.16-27.083 4.77-1.085-6.154c-.637-3.617.172-7.266 2.279-10.275zm171.412 189.082-177.268 31.25-31.26-177.259 19.7-3.473 1.085 6.154c2.884 16.353 17.159 27.892 33.221 27.892 1.938 0 3.903-.168 5.876-.517 8.878-1.564 16.615-6.494 21.785-13.879 5.171-7.385 7.156-16.341 5.591-25.219l-1.085-6.155 91.094-16.064z"/><path d="m266.002 310c0-5.522-4.477-10-10-10h-89.999c-5.523 0-10 4.478-10 10s4.477 10 10 10h89.999c5.523 0 10-4.478 10-10z"/><path d="m166.003 280h229.998c5.523 0 10-4.478 10-10s-4.477-10-10-10h-229.998c-5.523 0-10 4.478-10 10s4.477 10 10 10z"/><path d="m166.003 448c-5.523 0-10 4.478-10 10s4.477 10 10 10h24c5.523 0 10-4.478 10-10s-4.477-10-10-10z"/><path d="m259.002 448h-24c-5.523 0-10 4.478-10 10s4.477 10 10 10h24c5.523 0 10-4.478 10-10s-4.477-10-10-10z"/><path d="m414 401.001c0-38.597-31.402-70-69.999-70s-69.999 31.402-69.999 70c0 38.597 31.402 70 69.999 70s69.999-31.403 69.999-70zm-119.998 0c0-27.57 22.429-50 50-50s50 22.429 50 50-22.429 50-50 50-50-22.43-50-50z"/><path d="m374.001 401.001c0-16.542-13.458-30-30-30s-30 13.458-30 30 13.458 30 30 30 30-13.458 30-30zm-40 0c0-5.514 4.486-10 10-10s10 4.486 10 10-4.486 10-10 10-10-4.486-10-10z"/><circle cx="250.369" cy="190.793" r="10"/><path d="m206.063 188.602c-.58 0-74.619 13-74.619 13-2.63.46-4.92 1.931-6.46 4.11-1.53 2.189-2.12 4.849-1.65 7.479.84 4.79 4.98 8.261 9.83 8.261.59 0 1.17-.051 1.75-.15l72.88-12.849c2.63-.471 4.92-1.931 6.45-4.11 1.54-2.19 2.12-4.85 1.66-7.48-.842-4.791-4.982-8.261-9.841-8.261z"/><path d="m127.97 181.909 118.176-20.838c5.439-.959 9.071-6.146 8.112-11.584s-6.146-9.067-11.584-8.111l-118.176 20.838c-5.439.959-9.071 6.146-8.112 11.584.855 4.852 5.075 8.266 9.836 8.266.576 0 1.161-.051 1.748-.155z"/><path d="m121.024 142.517 118.176-20.838c5.439-.959 9.071-6.146 8.112-11.584-.958-5.438-6.144-9.07-11.584-8.111l-118.176 20.838c-5.439.959-9.071 6.146-8.112 11.584.855 4.852 5.075 8.266 9.836 8.266.576-.001 1.161-.052 1.748-.155z"/></g></g></svg>