<svg id="Capa_1" enable-background="new 0 0 511.99 511.99" height="512" viewBox="0 0 511.99 511.99" width="512" xmlns="http://www.w3.org/2000/svg"><g><g><g><path d="m504.49 92.948v371.732c0 9.618-7.797 17.415-17.415 17.415h-355.875c-9.618 0-17.415-7.797-17.415-17.415v-371.732z" fill="#c4e2ff"/><g><path d="m388.245 447.299h-213.155c-8.386 0-15.184-6.798-15.184-15.184v-89.434c0-8.386 6.798-15.184 15.184-15.184h213.155c8.386 0 15.184 6.798 15.184 15.184v89.434c0 8.386-6.798 15.184-15.184 15.184z" fill="#8ac9fe"/></g><path d="m504.49 92.945v371.73c0 9.62-7.8 17.42-17.41 17.42h-47.15c9.62 0 17.41-7.8 17.41-17.42v-371.73z" fill="#8ac9fe"/><path d="m113.786 92.948h390.704v-45.637c0-9.618-7.797-17.415-17.415-17.415h-355.875c-9.618 0-17.415 7.797-17.415 17.415v45.637z" fill="#60b7ff"/><path d="m504.49 47.315v45.63h-47.15v-45.63c0-9.62-7.79-17.42-17.41-17.42h47.15c9.61 0 17.41 7.8 17.41 17.42z" fill="#26a6fe"/></g><path d="m147.135 435.351c-7.303 7.303-19.143 7.303-26.446 0l-11.91-11.91-50.736 50.736c-5.402 5.402-14.16 5.402-19.562 0l-26.935-26.935c-5.407-5.407-5.407-14.169-.007-19.569l50.736-50.736-11.91-11.91c-7.303-7.303-7.303-19.143 0-26.446 3.507-3.507 8.263-5.477 13.223-5.477h73.068c8.812 0 15.956 7.144 15.956 15.956v73.068c0 4.96-1.97 9.716-5.477 13.223z" fill="#60b7ff"/><path d="m82.75 423.445h26.03l-50.74 50.73c-5.4 5.4-14.16 5.4-19.56 0l-11.79-11.79c5.03 2.11 11.06 1.12 15.15-2.97l32.65-32.55c2.19-2.19 5.16-3.42 8.26-3.42z" fill="#26a6fe"/><path d="m152.61 349.065v73.06c0 4.96-1.97 9.72-5.48 13.23-7.3 7.3-19.14 7.3-26.44 0l-2.4-2.4c2.23-3.14 3.45-6.92 3.45-10.83v-73.06c0-8.82-7.14-15.96-15.95-15.96h30.87c8.81 0 15.95 7.14 15.95 15.96z" fill="#26a6fe"/><g><path d="m418.716 447.299h-219.156c-8.386 0-15.184-6.798-15.184-15.184v-89.434c0-8.386 6.798-15.184 15.184-15.184h219.155c8.386 0 15.184 6.798 15.184 15.184v89.434c.001 8.386-6.797 15.184-15.183 15.184z" fill="#6fd7a3"/></g><path d="m418.716 327.497h-30.471c8.386 0 15.184 6.798 15.184 15.184v89.434c0 8.386-6.798 15.184-15.184 15.184h30.471c8.386 0 15.184-6.798 15.184-15.184v-89.434c0-8.386-6.798-15.184-15.184-15.184z" fill="#3ec3a4"/><g><path d="m389.8 208.875c.06 26.15-12.46 49.24-31.55 63.94-13.72 10.57-30.83 16.8-49.11 16.72-18.28.08-35.4-6.15-49.12-16.73-19.09-14.69-31.6-37.78-31.54-63.93 0-44.55 36.11-80.67 80.66-80.67s80.66 36.12 80.66 80.67z" fill="#bc7c63"/><path d="m309.14 128.205c-5.212 0-10.302.513-15.238 1.457 37.261 7.123 65.427 39.872 65.427 79.213 1.168 41.14-30.486 71.842-66.542 79.018 5.301 1.096 10.772 1.667 16.353 1.642 18.28.08 35.39-6.15 49.11-16.72 19.09-14.7 31.61-37.79 31.55-63.94 0-44.55-36.11-80.67-80.66-80.67z" fill="#aa6a51"/><path d="m337.168 201.239c0 15.481-12.55 28.03-28.03 28.03-15.481 0-28.03-12.55-28.03-28.03s0-33.03 28.03-33.03 28.03 17.549 28.03 33.03z" fill="#ffe5c2"/><path d="m358.25 254.035v18.78c-13.72 10.57-30.83 16.8-49.11 16.72-18.28.08-35.4-6.15-49.12-16.73v-18.77c0-13.73 11.14-24.86 24.87-24.86h48.5c13.73 0 24.86 11.13 24.86 24.86z" fill="#8379c1"/><path d="m292.787 287.893c5.301 1.096 10.772 1.667 16.353 1.642 18.28.08 35.39-6.15 49.11-16.72v-18.78c0-5.365-1.705-10.329-4.596-14.392-10.57 25.228-34.542 43.011-60.867 48.25z" fill="#6e61b6"/></g></g><g><path d="m487.076 22.396h-55.145c-4.142 0-7.5 3.357-7.5 7.5s3.358 7.5 7.5 7.5h55.145c5.467 0 9.915 4.448 9.915 9.915v38.135h-375.705v-38.135c0-5.467 4.448-9.915 9.915-9.915h265.63c4.142 0 7.5-3.357 7.5-7.5s-3.358-7.5-7.5-7.5h-265.631c-13.738 0-24.915 11.177-24.915 24.915l.004 250.701c0 4.143 3.358 7.5 7.5 7.5s7.5-3.357 7.5-7.5v-197.564h375.7v364.227c0 5.47-4.446 9.92-9.91 9.92h-355.879c-5.464 0-9.91-4.45-9.91-9.92v-19.592c9.951 5.466 22.726 3.995 31.148-4.427 4.949-4.949 7.674-11.528 7.674-18.527v-73.067c0-12.934-10.522-23.456-23.456-23.456h-73.068c-6.999 0-13.579 2.726-18.526 7.674-4.949 4.949-7.674 11.528-7.674 18.526s2.726 13.577 7.674 18.525l6.606 6.607-45.433 45.432c-8.317 8.317-8.313 21.854.008 30.176l26.935 26.934c4.029 4.03 9.387 6.249 15.084 6.249 5.698 0 11.056-2.219 15.084-6.248l42.943-42.943v28.138c0 13.741 11.175 24.92 24.91 24.92h355.88c13.735 0 24.91-11.179 24.91-24.92v-417.365c.001-13.739-11.175-24.915-24.913-24.915zm-434.336 446.478c-1.196 1.195-2.786 1.854-4.478 1.854-1.691 0-3.281-.659-4.478-1.855l-26.934-26.934c-2.473-2.473-2.476-6.493-.007-8.962l50.736-50.735c2.929-2.93 2.929-7.678 0-10.606l-11.91-11.911c-2.116-2.115-3.281-4.928-3.281-7.919s1.165-5.804 3.282-7.92c2.114-2.115 4.927-3.28 7.918-3.28h73.068c4.663 0 8.456 3.793 8.456 8.456v73.067c0 2.992-1.165 5.805-3.28 7.92-4.367 4.369-11.473 4.366-15.839.001l-11.91-11.91c-1.406-1.407-3.314-2.197-5.303-2.197s-3.897.79-5.303 2.196z"/><path d="m156.517 53.922c-4.142 0-7.5 3.357-7.5 7.5s3.358 7.5 7.5 7.5h71.226c4.142 0 7.5-3.357 7.5-7.5s-3.358-7.5-7.5-7.5z"/><path d="m305.421 422.662c4.142 0 7.5-3.357 7.5-7.5v-31.365l23.804 34.471c2.182 3.152 5.831 4.49 9.294 3.408 3.53-1.103 5.812-4.394 5.811-8.457l-.519-53.656c-.04-4.143-3.397-7.464-7.572-7.428-4.142.04-7.467 3.431-7.427 7.572l.31 32.015-25.03-36.245c-1.865-2.701-5.27-3.874-8.403-2.898-3.134.977-5.268 3.878-5.268 7.16v55.424c0 4.142 3.358 7.499 7.5 7.499z"/><path d="m273.945 422.662c4.142 0 7.5-3.357 7.5-7.5v-55.527c0-4.143-3.358-7.5-7.5-7.5s-7.5 3.357-7.5 7.5v55.527c0 4.143 3.358 7.5 7.5 7.5z"/><path d="m176.876 342.681v89.435c0 12.508 10.176 22.684 22.684 22.684h219.155c12.508 0 22.684-10.176 22.684-22.684v-89.435c0-12.508-10.176-22.684-22.684-22.684h-219.155c-12.508 0-22.684 10.176-22.684 22.684zm249.523 0v89.435c0 4.236-3.447 7.684-7.684 7.684h-219.155c-4.237 0-7.684-3.447-7.684-7.684v-89.435c0-4.236 3.447-7.684 7.684-7.684h219.155c4.237 0 7.684 3.447 7.684 7.684z"/><path d="m309.14 120.705c-48.611 0-88.16 39.553-88.16 88.152-.063 27.514 12.5 52.988 34.46 69.887 30.254 23.923 76.409 24.458 107.389.011 21.97-16.919 34.534-42.395 34.471-69.897-.009-48.609-39.554-88.153-88.16-88.153zm-.338 161.331c-13.603-.188-28.254-3.84-41.281-13.046v-14.955c0-9.572 7.792-17.36 17.37-17.36h16.748v13.674c0 4.143 3.358 7.5 7.5 7.5s7.5-3.357 7.5-7.5v-13.674h16.752c9.572 0 17.36 7.788 17.36 17.36v14.965c-11.366 7.751-25.911 13.267-41.949 13.036zm-20.195-80.798c0-17.242.873-25.53 20.53-25.53 19.658 0 20.531 8.288 20.531 25.53 0 10.69-8.214 19.488-18.661 20.437h-3.739c-10.446-.949-18.661-9.747-18.661-20.437zm93.693 7.655c.039 17.151-5.858 33.36-16.55 46.32.705-16.101-11.802-31.013-27.806-33.211 4.225-5.845 6.725-13.016 6.725-20.763 0-15.159 0-40.53-35.531-40.53-35.53 0-35.53 25.371-35.53 40.53 0 7.747 2.5 14.918 6.725 20.764-15.624 2.072-28.378 16.594-27.812 33.204-10.685-12.952-16.579-29.161-16.54-46.331 0-40.346 32.819-73.17 73.16-73.17s73.16 32.824 73.16 73.17c-.001.005-.001.011-.001.017z"/><circle cx="465.23" cy="61.42" r="7.5"/></g></g></svg>