<svg id="Layer_1" viewBox="0 0 512 512" xmlns="http://www.w3.org/2000/svg" data-name="Layer 1"><g fill-rule="evenodd"><path d="m412.415 281.297h99.585l-30.455 29.027 30.455 29.057h-99.585z" fill="#ff3d50"/><path d="m313.967 375.14h-146.885v-47.563h146.885v-26.462l31.009 25.122 31.009 25.122-31.009 25.122-31.009 25.122z" fill="#fea832"/><path d="m201.122 327.577 29.377 23.782-29.377 23.781h-34.04v-47.563z" fill="#e89025"/><path d="m148.9 375.14h-67.938a80.976 80.976 0 0 1 0-161.952h108.765v47.591h-108.765a33.4 33.4 0 0 0 0 66.8h67.938v-26.464l30.98 25.122 31.009 25.122-31.009 25.122-30.98 25.119z" fill="#ff3d50"/><path d="m159.563 260.779-30.28-24.51 28.473-23.081h31.971v47.591z" fill="#e32639"/><path d="m210.885 213.188h84.109a33.385 33.385 0 0 0 0-66.769h-128.9v-47.592h128.9a80.976 80.976 0 0 1 0 161.952h-84.109v25.735l-31.009-25.123-30.976-25.122 30.98-25.151 31.005-25.118z" fill="#45bf64"/><path d="m201.122 98.827 29.377 23.811-29.377 23.781h-35.031v-47.592z" fill="#35ab52"/><path d="m148.9 146.419h-125.118a23.8 23.8 0 0 1 0-47.592h125.118v-26.463l30.98 25.122 31.009 25.152-31.013 25.122-30.976 25.122z" fill="#69a7ff"/><path d="m413.027 263.082a11.7 11.7 0 0 1 11.687 11.687v153.18a11.7 11.7 0 0 1 -11.687 11.687 11.7 11.7 0 0 1 -11.657-11.687v-153.18a11.7 11.7 0 0 1 11.657-11.687z" fill="#d5e3f2"/><path d="m23.782 115.235h125.118v-16.408h-125.118a23.868 23.868 0 0 0 -22.354 32 23.838 23.838 0 0 1 22.354-15.592z" fill="#4c8fed"/><path d="m148.896 88.772 17.195 13.931 13.785 11.191 20.896 16.933 10.113-8.189-29.347-23.811-1.662-1.341-30.98-25.122z" fill="#4c8fed"/><path d="m201.763 115.235h93.231a81.2 81.2 0 0 1 80.583 72.772c.263-2.71.408-5.45.408-8.189a81.194 81.194 0 0 0 -80.991-80.991h-113.456z" fill="#35ab52"/><path d="m294.994 213.188h-84.109v16.412h84.109a33.4 33.4 0 0 0 32.38-41.589 33.586 33.586 0 0 1 -8.8 15.359 33.217 33.217 0 0 1 -23.578 9.822z" fill="#35ab52"/><path d="m210.885 202.404v-16.408l-31.009 25.122-2.535 2.07-28.445 23.081 10.113 8.19 20.867-16.933 9.851-7.985z" fill="#35ab52"/><g fill="#e32639"><path d="m23.752 253.348a80.9 80.9 0 0 1 57.21-23.748h76.153l20.226-16.408h-96.379a81.145 81.145 0 0 0 -80.962 80.986 76.52 76.52 0 0 0 .408 8.19 80.765 80.765 0 0 1 23.344-49.02z"/><path d="m148.9 327.577h-67.938a33.7 33.7 0 0 1 -32.35-25.209 32.048 32.048 0 0 0 -1.049 8.189 33.584 33.584 0 0 0 33.4 33.4h67.937z"/><path d="m148.896 317.494 18.186 14.746 12.794 10.376 20.896 16.932 10.113-8.189-29.347-23.782-1.662-1.34-30.98-25.122z"/></g><path d="m201.763 343.956h45.727 66.477v-16.379h-132.429z" fill="#e89025"/><path d="m313.967 317.494 31.009 25.122 20.896 16.932 10.113-8.189-31.009-25.122-31.009-25.122z" fill="#e89025"/><path d="m410.754 427.949v-153.18a11.756 11.756 0 0 1 7-10.7 11.672 11.672 0 0 0 -16.379 10.7v153.18a11.672 11.672 0 0 0 16.379 10.7 11.757 11.757 0 0 1 -7-10.7z" fill="#b7cfe8"/><path d="m499.526 327.49h-64.524v-46.193h-10.288v58.084h87.286z" fill="#e32639"/></g></svg>