<svg id="Layer_1" enable-background="new 0 0 512 512" viewBox="0 0 512 512" xmlns="http://www.w3.org/2000/svg" xmlns:xlink="http://www.w3.org/1999/xlink"><linearGradient id="SVGID_1_" gradientUnits="userSpaceOnUse" x1="-15.561" x2="548.645" y1="447.187" y2="121.443"><stop offset="0" stop-color="#05f79e"/><stop offset="1" stop-color="#03b0f0"/></linearGradient><path d="m494.542 35.234h-26.734v-26.734c0-4.142-3.358-7.5-7.5-7.5h-251.101c-1.989 0-3.897.79-5.303 2.197l-79.955 79.956c-1.407 1.406-2.197 3.314-2.197 5.303v147.148c-23.935 21.258-39.044 52.244-39.044 86.698 0 22.259 6.31 43.07 17.226 60.748l-82.121 82.12c-10.472 10.472-10.473 27.513 0 37.986 5.058 5.058 11.803 7.844 18.993 7.844 7.189 0 13.935-2.786 18.993-7.844l82.121-82.12c5.714 3.529 11.753 6.579 18.065 9.086v31.474c0 4.142 3.358 7.5 7.5 7.5h331.056c4.142 0 7.5-3.358 7.5-7.5v-418.862c.001-4.142-3.357-7.5-7.499-7.5zm-292.835-8.627v54.349h-54.349zm-64.956 69.349h72.455c4.142 0 7.5-3.358 7.5-7.5v-72.456h236.101v403.862h-191.523c11.561-7.446 21.718-16.891 29.982-27.84h129.014c4.142 0 7.5-3.358 7.5-7.5s-3.358-7.5-7.5-7.5h-119.4c4.639-8.63 8.214-17.912 10.555-27.67h108.845c4.142 0 7.5-3.358 7.5-7.5s-3.358-7.5-7.5-7.5h-106.276c.411-3.962.624-7.982.624-12.05 0-5.297-.365-10.51-1.056-15.62h106.708c4.142 0 7.5-3.358 7.5-7.5s-3.358-7.5-7.5-7.5h-109.763c-2.686-9.799-6.625-19.084-11.639-27.67h121.402c4.142 0 7.5-3.358 7.5-7.5s-3.358-7.5-7.5-7.5h-131.82c-21.282-26.026-53.629-42.669-89.793-42.669-22.751 0-43.99 6.591-61.916 17.957zm61.916 125.385c55.67 0 100.96 45.291 100.96 100.96 0 55.67-45.291 100.96-100.96 100.96s-100.96-45.291-100.96-100.96c.001-55.669 45.291-100.96 100.96-100.96zm-161.861 274.659c-3.183 0-6.161-1.226-8.386-3.45-4.625-4.625-4.625-12.15 0-16.774l8.966-8.966 16.773 16.773-8.966 8.966c-2.226 2.225-5.204 3.451-8.387 3.451zm27.96-23.023-16.773-16.773 60.762-60.761c5.007 6.144 10.629 11.766 16.773 16.773zm422.276-18.881h-316.057v-19.182c8.875 2.182 18.144 3.348 27.682 3.348 9.614 0 18.956-1.184 27.895-3.4h233.745c4.142 0 7.5-3.358 7.5-7.5v-377.128h19.234v403.862zm-211.908-232.755h130.696c12.103 0 21.949-9.847 21.949-21.95v-130.696c0-12.103-9.846-21.95-21.949-21.95h-130.696c-12.103 0-21.95 9.847-21.95 21.95v130.696c.001 12.104 9.847 21.95 21.95 21.95zm130.697-15h-130.697c-3.832 0-6.95-3.118-6.95-6.95v-4.712l45.925-47.536 47.692 49.365c1.472 1.523 3.432 2.289 5.395 2.289 1.875 0 3.754-.7 5.21-2.106 2.979-2.878 3.061-7.626.183-10.605l-10.057-10.409 14.505-13.15 35.741 32.402v4.463c.002 3.832-3.115 6.949-6.947 6.949zm-130.697-144.595h130.696c3.832 0 6.949 3.118 6.949 6.95v105.987l-30.704-27.835c-2.858-2.591-7.217-2.591-10.075 0l-19.895 18.037-32.602-33.746c-1.413-1.463-3.36-2.289-5.394-2.289s-3.981.826-5.394 2.289l-40.531 41.953v-104.397c.001-3.832 3.118-6.949 6.95-6.949zm79.062 72.925c11.172 0 20.261-9.089 20.261-20.262s-9.089-20.262-20.261-20.262-20.262 9.089-20.262 20.262 9.09 20.262 20.262 20.262zm0-25.523c2.901 0 5.261 2.36 5.261 5.262s-2.36 5.262-5.261 5.262-5.262-2.36-5.262-5.262 2.361-5.262 5.262-5.262zm-192.417 19.353c0-4.142 3.358-7.5 7.5-7.5h58.776c4.142 0 7.5 3.358 7.5 7.5s-3.358 7.5-7.5 7.5h-58.776c-4.142 0-7.5-3.358-7.5-7.5zm66.277 50.17h-58.776c-4.142 0-7.5-3.358-7.5-7.5s3.358-7.5 7.5-7.5h58.776c4.142 0 7.5 3.358 7.5 7.5s-3.358 7.5-7.5 7.5zm-29.389 227.621c46.313 0 83.991-37.678 83.991-83.991s-37.678-83.991-83.991-83.991c-46.312 0-83.991 37.678-83.991 83.991s37.679 83.991 83.991 83.991zm0-152.981c38.042 0 68.991 30.949 68.991 68.991s-30.949 68.991-68.991 68.991-68.991-30.949-68.991-68.991 30.95-68.991 68.991-68.991z" fill="url(#SVGID_1_)"/></svg>