<?xml version="1.0" encoding="iso-8859-1"?>
<!-- Generator: Adobe Illustrator 19.0.0, SVG Export Plug-In . SVG Version: 6.00 Build 0)  -->
<svg version="1.1" id="Capa_1" xmlns="http://www.w3.org/2000/svg" xmlns:xlink="http://www.w3.org/1999/xlink" x="0px" y="0px"
	 viewBox="0 0 512 512" style="enable-background:new 0 0 512 512;" xml:space="preserve">
<g>
	<path style="fill:#444455;" d="M489.5,309h-467c-8.284,0-15-6.716-15-15l0,0c0-8.284,6.716-15,15-15h467c8.284,0,15,6.716,15,15
		l0,0C504.5,302.284,497.784,309,489.5,309z"/>
	<path style="fill:#444455;" d="M489.5,95h-467c-8.284,0-15-6.716-15-15l0,0c0-8.284,6.716-15,15-15h467c8.284,0,15,6.716,15,15l0,0
		C504.5,88.284,497.784,95,489.5,95z"/>
	<path style="fill:#444455;" d="M489.5,202h-467c-8.284,0-15-6.716-15-15l0,0c0-8.284,6.716-15,15-15h467c8.284,0,15,6.716,15,15
		l0,0C504.5,195.284,497.784,202,489.5,202z"/>
</g>
<path style="fill:#FF5A51;" d="M168,125H98c-5.5,0-10-4.5-10-10V45c0-5.5,4.5-10,10-10h70c5.5,0,10,4.5,10,10v70
	C178,120.5,173.5,125,168,125z"/>
<path style="fill:#E75955;" d="M168,35h-30c5.5,0,10,4.5,10,10v70c0,5.5-4.5,10-10,10h30c5.5,0,10-4.5,10-10V45
	C178,39.5,173.5,35,168,35z"/>
<path style="fill:#FF993B;" d="M380,232h-70c-5.5,0-10-4.5-10-10v-70c0-5.5,4.5-10,10-10h70c5.5,0,10,4.5,10,10v70
	C390,227.5,385.5,232,380,232z"/>
<path style="fill:#FF7B48;" d="M380,142h-30c5.5,0,10,4.5,10,10v70c0,5.5-4.5,10-10,10h30c5.5,0,10-4.5,10-10v-70
	C390,146.5,385.5,142,380,142z"/>
<path style="fill:#BEC950;" d="M200.276,339h-70c-5.5,0-10-4.5-10-10v-70c0-5.5,4.5-10,10-10h70c5.5,0,10,4.5,10,10v70
	C210.276,334.5,205.776,339,200.276,339z"/>
<path style="fill:#58C357;" d="M200.276,248.841h-30c5.5,0,10,4.5,10,10v70c0,5.5-4.5,10-10,10h30c5.5,0,10-4.5,10-10v-70
	C210.276,253.341,205.776,248.841,200.276,248.841z"/>
<path style="fill:#00E7FF;" d="M450.984,447v26.168c0,2.116-1.716,3.832-3.832,3.832H334.816c-2.117,0-3.832-1.716-3.832-3.832V447
	H450.984z"/>
<path style="fill:#00CAE1;" d="M420.984,447v26.168c0,2.116-1.716,3.832-3.832,3.832h30c2.116,0,3.832-1.716,3.832-3.832V447
	H420.984z"/>
<path style="fill:#FFD681;" d="M468,331.827v98.987c0,8.939-7.24,16.186-16.172,16.186H329.633C304.431,447,284,426.551,284,401.327
	v-69.01c0-12.559,9.911-23.107,22.457-23.359c7.671-0.154,12.505,3.505,15.453,7.337c1.361,1.768,4.193,0.777,4.203-1.456
	l0.454-106.502c0.011-11.793,9.559-21.337,21.329-21.337c5.891,0,11.221,2.386,15.083,6.252s6.246,9.2,6.246,15.096v68.416
	c0,8.768,7.102,15.877,15.863,15.877h43.759C450.471,292.641,468,310.185,468,331.827z"/>
<path style="fill:#FFBD2A;" d="M428.848,292.641h-30.293c21.623,0,39.152,17.544,39.152,39.186v98.987
	c0,8.939-7.24,16.186-16.172,16.186h30.293c8.931,0,16.172-7.247,16.172-16.186v-98.987
	C468,310.185,450.471,292.641,428.848,292.641z"/>
<path d="M22.5,102.5h58V115c0,9.649,7.851,17.5,17.5,17.5h70c9.649,0,17.5-7.851,17.5-17.5v-12.5h304
	c6.017,0,11.668-2.346,15.894-6.587C509.654,91.668,512,86.017,512,80c0-12.407-10.093-22.5-22.5-22.5h-73.833
	c-4.142,0-7.5,3.358-7.5,7.5s3.358,7.5,7.5,7.5H489.5c4.136,0,7.5,3.364,7.5,7.5c0,2-0.779,3.878-2.213,5.306
	c-1.409,1.415-3.287,2.194-5.287,2.194h-304v-15H384c4.142,0,7.5-3.358,7.5-7.5s-3.358-7.5-7.5-7.5H185.5V45
	c0-9.649-7.851-17.5-17.5-17.5H98c-9.649,0-17.5,7.851-17.5,17.5v12.5h-58c-6.017,0-11.668,2.346-15.894,6.587
	C2.346,68.332,0,73.983,0,80C0,92.407,10.093,102.5,22.5,102.5z M95.5,45c0-1.355,1.145-2.5,2.5-2.5h70c1.355,0,2.5,1.145,2.5,2.5
	v70c0,1.355-1.145,2.5-2.5,2.5H98c-1.355,0-2.5-1.145-2.5-2.5V45z M17.213,74.694C18.622,73.279,20.5,72.5,22.5,72.5h58v15h-58
	c-4.136,0-7.5-3.364-7.5-7.5C15,78,15.779,76.122,17.213,74.694z"/>
<path d="M380,239.5c9.649,0,17.5-7.851,17.5-17.5v-12.5h92c6.017,0,11.668-2.346,15.894-6.587c4.26-4.245,6.606-9.896,6.606-15.913
	c0-12.407-10.093-22.5-22.5-22.5h-92V152c0-9.649-7.851-17.5-17.5-17.5h-70c-9.649,0-17.5,7.851-17.5,17.5v12.5h-270
	c-6.017,0-11.668,2.346-15.894,6.587C2.346,175.332,0,180.983,0,187c0,12.407,10.093,22.5,22.5,22.5h41.375
	c4.142,0,7.5-3.358,7.5-7.5s-3.358-7.5-7.5-7.5H22.5c-4.136,0-7.5-3.364-7.5-7.5c0-2,0.779-3.878,2.213-5.306
	c1.409-1.415,3.287-2.194,5.287-2.194h270v15H96.25c-4.142,0-7.5,3.358-7.5,7.5s3.358,7.5,7.5,7.5H292.5V222
	c0,9.649,7.851,17.5,17.5,17.5h8.934l-0.137,32H217.776V259c0-9.649-7.851-17.5-17.5-17.5h-70c-9.649,0-17.5,7.851-17.5,17.5v12.5
	H22.5c-6.017,0-11.668,2.346-15.894,6.587C2.346,282.332,0,287.983,0,294c0,12.407,10.093,22.5,22.5,22.5h90.276V329
	c0,9.649,7.851,17.5,17.5,17.5h70c9.649,0,17.5-7.851,17.5-17.5v-12.5h63.078c-2.76,4.642-4.353,10.06-4.353,15.817v19.517
	c0,4.142,3.358,7.5,7.5,7.5s7.5-3.358,7.5-7.5v-19.517c0-8.367,6.452-15.323,14.499-15.817h2.115
	c3.257,0.264,5.783,1.679,7.853,4.369c2.559,3.326,6.953,4.656,10.932,3.311c3.999-1.351,6.697-5.092,6.715-9.308l0.025-5.822
	c0-0.017,0.003-0.033,0.003-0.05c0-0.014-0.002-0.028-0.002-0.042l0.328-76.876c0-0.027,0.004-0.054,0.004-0.082
	c0-0.023-0.003-0.046-0.003-0.069l0.101-23.587c0.007-7.634,6.211-13.844,13.83-13.844c3.694,0,7.166,1.439,9.777,4.053
	c2.613,2.616,4.052,6.094,4.052,9.796v68.416c0,12.89,10.48,23.376,23.362,23.376h43.759c17.453,0,31.652,14.214,31.652,31.687
	v98.987c0,4.79-3.89,8.686-8.672,8.686h-0.845h-120h-1.35c-21.027,0-38.133-17.125-38.133-38.173V384c0-4.142-3.358-7.5-7.5-7.5
	s-7.5,3.358-7.5,7.5v17.327c0,27.237,20.574,49.744,46.983,52.806v19.035c0,6.249,5.083,11.332,11.333,11.332h112.335
	c6.249,0,11.332-5.083,11.332-11.332v-19.627c9.822-2.885,17.017-11.978,17.017-22.727v-98.987c0-5.368-0.921-10.523-2.595-15.327
	H489.5c6.017,0,11.668-2.346,15.894-6.587c4.26-4.245,6.606-9.896,6.606-15.913c0-12.407-10.093-22.5-22.5-22.5H376.727v-32H380z
	 M443.483,469.5h-105v-15h105V469.5z M489.5,179.5c4.136,0,7.5,3.364,7.5,7.5c0,2-0.779,3.878-2.213,5.306
	c-1.409,1.415-3.287,2.194-5.287,2.194h-92v-15H489.5z M22.5,301.5c-4.136,0-7.5-3.364-7.5-7.5c0-2,0.779-3.878,2.213-5.306
	c1.409-1.415,3.287-2.194,5.287-2.194h90.276v15H22.5z M202.776,329c0,1.355-1.145,2.5-2.5,2.5h-70c-1.355,0-2.5-1.145-2.5-2.5l0,0
	c0-0.026,0,0.026,0,0s0,0.026,0,0v-70c0-0.026,0,0.026,0,0s0,0.026,0,0l0,0c0-1.355,1.145-2.5,2.5-2.5h70c1.355,0,2.5,1.145,2.5,2.5
	V329z M217.776,286.5h100.958l-0.064,15h-10.257c-0.695-0.035-1.395-0.054-2.107-0.041c-0.3,0.006-0.597,0.026-0.895,0.041h-87.635
	L217.776,286.5L217.776,286.5z M347.897,179.5c-15.881,0-28.814,12.933-28.83,28.805l-0.069,16.195H310c-1.355,0-2.5-1.145-2.5-2.5
	v-70c0-1.355,1.145-2.5,2.5-2.5h70c1.355,0,2.5,1.145,2.5,2.5v70c0,1.355-1.145,2.5-2.5,2.5h-3.273v-16.151
	c0-7.706-2.998-14.95-8.441-20.397C362.841,182.501,355.6,179.5,347.897,179.5z M497,294c0,2-0.779,3.878-2.213,5.306
	c-1.409,1.415-3.287,2.194-5.287,2.194h-25.227c-6.238-7.287-14.67-12.633-24.268-15H489.5C493.636,286.5,497,289.864,497,294z"/>
<g>
</g>
<g>
</g>
<g>
</g>
<g>
</g>
<g>
</g>
<g>
</g>
<g>
</g>
<g>
</g>
<g>
</g>
<g>
</g>
<g>
</g>
<g>
</g>
<g>
</g>
<g>
</g>
<g>
</g>
</svg>
