<svg id="glipy_copy_2" viewBox="0 0 64 64" xmlns="http://www.w3.org/2000/svg" data-name="glipy copy 2"><g fill="#29abe2"><path d="m43 31.99988a11 11 0 0 0 -22 .00012c.59766 14.59418 21.40479 14.5899 22-.00012zm-5.29-2.62988-6.67 6.67a.997.997 0 0 1 -1.41016 0l-3.33984-3.33a1.00406 1.00406 0 0 1 1.42-1.42l2.62012 2.63 5.96-5.96a1.00075 1.00075 0 0 1 1.41988 1.41z"/><path d="m21 14h2v6.5199a1.00012 1.00012 0 0 0 2 .0001v-6.52h2a2.00583 2.00583 0 0 0 2-2v-6a2.00579 2.00579 0 0 0 -2-2h-6a2.00579 2.00579 0 0 0 -2 2v6a2.00583 2.00583 0 0 0 2 2z"/><path d="m14 43v-2h6.52a1 1 0 1 0 0-2h-6.52v-2a2.00579 2.00579 0 0 0 -2-2h-6a2.00579 2.00579 0 0 0 -2 2v6a2.00583 2.00583 0 0 0 2 2h6a2.00583 2.00583 0 0 0 2-2z"/><path d="m43 50h-2v-6.52a1 1 0 0 0 -2 0v6.52h-2a2.00579 2.00579 0 0 0 -2 2v6a2.00583 2.00583 0 0 0 2 2h6a2.00583 2.00583 0 0 0 2-2v-6a2.00579 2.00579 0 0 0 -2-2z"/><path d="m58 19h-6a2.00579 2.00579 0 0 0 -2 2v2h-6.52a1 1 0 0 0 0 2h6.52v2a2.00583 2.00583 0 0 0 2 2h6a2.00583 2.00583 0 0 0 2-2v-6a2.00579 2.00579 0 0 0 -2-2z"/><path d="m36.32129 12.707a1.0001 1.0001 0 0 0 1.41406-1.41412l-1.29297-1.29288h12.53028a5.03255 5.03255 0 0 1 5.02734 5.02734 1 1 0 0 0 2 0 7.03516 7.03516 0 0 0 -7.02734-7.02734h-12.58643l1.34912-1.34863a1.00006 1.00006 0 0 0 -1.41406-1.414c-4.42139 4.58532-4.43115 2.87763 0 7.46963z"/><path d="m8.26465 30.707a1.00571 1.00571 0 0 0 1.41406 0l3.02829-3.02829a.99989.99989 0 0 0 -1.414-1.41406l-1.293 1.29297v-12.53028a5.03255 5.03255 0 0 1 5.02734-5.02734 1.00012 1.00012 0 0 0 0-2 7.03516 7.03516 0 0 0 -7.02734 7.02734v12.58649l-1.34863-1.34918a1.00009 1.00009 0 0 0 -1.41407 1.41406z"/><path d="m27.67871 51.293a1.00007 1.00007 0 0 0 -1.41406 1.414l1.29297 1.293h-12.53028a5.03255 5.03255 0 0 1 -5.02734-5.02734 1 1 0 0 0 -2 0 7.03516 7.03516 0 0 0 7.02734 7.02734h12.58643l-1.34912 1.34863a1.00006 1.00006 0 0 0 1.41406 1.414c4.4209-4.58496 4.43164-2.8775 0-7.46963z"/><path d="m55.73535 33.293a1.0056 1.0056 0 0 0 -1.41406 0l-3.02829 3.02829a.99989.99989 0 0 0 1.414 1.41406l1.293-1.29297v12.53028a5.03255 5.03255 0 0 1 -5.02734 5.02734 1.00012 1.00012 0 0 0 0 2 7.03516 7.03516 0 0 0 7.02734-7.02734v-12.58649l1.34863 1.34918a1.00011 1.00011 0 0 0 1.41407-1.41412z"/></g></svg>