<svg id="Icons" viewBox="0 0 60 60" xmlns="http://www.w3.org/2000/svg"><rect fill="#c9eff4" height="50" rx="2" width="38" x="1" y="1"/><path d="m23.96 24h-12.03c-2.72 0-4.93-2.33-4.93-5.21 0-2.72 1.97-4.95 4.48-5.19v-.02c0-1.83 1.41-3.32 3.14-3.32.53 0 1.02.14 1.46.38 1.08-2.72 3.63-4.64 6.61-4.64 3.82 0 6.94 3.16 7.15 7.14 1.86.9 3.16 2.87 3.16 5.18 0 .33-.03.65-.08.96z" fill="#2bb5e2"/><path d="m58.59 57.59-1 1c-.55.55-1.45.55-2 0l-6.57-6.57-.02-1.02 2-2 1.02.02 6.57 6.57c.55.55.55 1.45 0 2z" fill="#7f3633"/><g fill="#91c0c1"><path d="m47.099 47.381h4.243v3.677h-4.243z" transform="matrix(.707 -.707 .707 .707 -20.388 49.22)"/><path d="m21 32h-14c-.553 0-1-.447-1-1s.447-1 1-1h14c.553 0 1 .447 1 1s-.447 1-1 1z"/><path d="m21 39h-14c-.553 0-1-.447-1-1s.447-1 1-1h14c.553 0 1 .447 1 1s-.447 1-1 1z"/><path d="m21.58 46h-14.58c-.553 0-1-.447-1-1s.447-1 1-1h14.58c.553 0 1 .447 1 1s-.447 1-1 1z"/></g><circle cx="36" cy="36" fill="#39bc71" r="17"/><path d="m36 54c-9.925 0-18-8.075-18-18s8.075-18 18-18 18 8.075 18 18-8.075 18-18 18zm0-34c-8.822 0-16 7.178-16 16s7.178 16 16 16 16-7.178 16-16-7.178-16-16-16z" fill="#b7e1e5"/><path d="m33 43c-.265 0-.519-.104-.707-.293l-3-3c-.391-.391-.391-1.023 0-1.414s1.023-.391 1.414 0l2.185 2.185 8.309-11.077c.332-.441.958-.531 1.399-.2.442.331.532.958.2 1.399l-9 12c-.174.232-.439.377-.729.397-.024.002-.048.003-.071.003z" fill="#fff"/></svg>