<svg id="Flat" enable-background="new 0 0 64 64" height="512" viewBox="0 0 64 64" width="512" xmlns="http://www.w3.org/2000/svg"><circle cx="48" cy="48" fill="#ffd572" r="15"/><circle cx="16" cy="16" fill="#7bc2cc" r="15"/><g fill="#68607c"><path d="m49 31h-2v-11c0-1.654-1.346-3-3-3h-10v-2h10c2.757 0 5 2.243 5 5z"/><path d="m30 49h-10c-2.757 0-5-2.243-5-5v-11h2v11c0 1.654 1.346 3 3 3h10z"/><path d="m16 25c-2.757 0-5-2.243-5-5h2c0 1.654 1.346 3 3 3s3-1.346 3-3-1.346-3-3-3c-2.757 0-5-2.243-5-5s2.243-5 5-5 5 2.243 5 5h-2c0-1.654-1.346-3-3-3s-3 1.346-3 3 1.346 3 3 3c2.757 0 5 2.243 5 5s-2.243 5-5 5z"/></g><path d="" fill="none" stroke="#68607c" stroke-miterlimit="10" stroke-width="2"/><g fill="#68607c"><path d="m15 24h2v3h-2z"/><path d="m15 5h2v3h-2z"/><path d="m48 32.414-4.707-4.707 1.414-1.414 3.293 3.293 3.293-3.293 1.414 1.414z"/><path d="m19.293 37.707-3.293-3.293-3.293 3.293-1.414-1.414 4.707-4.707 4.707 4.707z"/><path d="m50 49h-7v-10h7c2.757 0 5 2.243 5 5s-2.243 5-5 5zm-5-2h5c1.654 0 3-1.346 3-3s-1.346-3-3-3h-5z"/><path d="m51 57h-8v-10h8c2.757 0 5 2.243 5 5s-2.243 5-5 5zm-6-2h6c1.654 0 3-1.346 3-3s-1.346-3-3-3h-6z"/><path d="m45 37h2v3h-2z"/><path d="m45 56h2v3h-2z"/><path d="m49 37h2v3h-2z"/><path d="m49 56h2v3h-2z"/><path d="m41 39h3v2h-3z"/><path d="m41 55h3v2h-3z"/></g></svg>