<svg id="Layer_1" enable-background="new 0 0 53 53" height="512" viewBox="0 0 53 53" width="512" xmlns="http://www.w3.org/2000/svg"><g id="_x31_47"><path d="m31.1567802 4.4555655-3.3650512-1.9555665-22.2058721 12.8205567.0853133 18.7620401 3.3650513 1.9555664 22.1737204-12.8318634z" fill="#1d2943"/><g><g><g><g><g><g><g><g enable-background="new"><g><path d="m47.4108467 32.6251488-22.0567531 12.8225097-16.3178778-9.4201202 22.0567159-12.8225117z" fill="#4c5c75"/><g><g><path d="m31.0953522 24.6376553v3.5402298l10.7870064 6.2270984 3.0555648-1.7763176z" fill="#111d33"/><path d="m11.5092545 36.0239449 3.055562 1.7639083 16.5305357-9.6099681v-3.5402298z" fill="#1d2943"/></g><path d="m41.8823586 34.4049835-10.7870064-6.2270984-16.5305357 9.6099681 10.7870073 6.2271004z" fill="#fff"/></g></g></g></g><g><g enable-background="new"><g><path d="m9.036211 36.0381508-3.3650703-1.9555626-.08531-18.7620201 3.3650694 1.9555645z" fill="#111d33"/></g><g><path d="m8.9509001 17.2761326-3.3650694-1.9555645 22.2058716-12.820566 3.3650684 1.9555648z" fill="#4c5c75"/></g><g><path d="m31.1567707 4.4555669.0531597 18.7507129-22.1737194 12.831871-.0853109-18.7620182z" fill="#1d2943"/><g><g><path d="m29.9230423 6.5988002-2.5230808 1.4567246.0370693 12.9747982 2.5314045 1.4615288z" fill="#111d33"/><path d="m27.4370308 21.030323-17.2076635 9.9350109.0083217 2.918253 19.7307463-11.3917351z" fill="#4c5c75"/></g><path d="m27.3999615 8.0555248-17.2076636 9.9350109.0370694 12.9747982 17.2076635-9.9350109z" fill="#9ea9c9"/></g></g></g></g><g><g><g enable-background="new"><g><path d="m15.4873457 15.7900991v.4699717l-2.6200562 1.5200195-4.6199951-2.6700449v-.4699707l2.6199951-1.5200195z" fill="#e3e7f0"/></g></g></g><g><g enable-background="new"><g><path d="m15.4866915 15.789834-.0013228.4664812-2.6171627 1.5209294.0013228-.4664822z" fill="#fff"/></g><g><path d="m12.8695288 17.3107624-.0013228.4664822-4.6218767-2.6684418.0013228-.4664812z" fill="#b0b8cf"/></g><g><path d="m15.4866915 15.789834-2.6171627 1.5209284-4.6218767-2.6684408 2.6171627-1.5209284z" fill="#e3e7f0"/></g></g></g><g><g enable-background="new"><g><path d="m30.7073174 6.9500723v.460022l-2.6199952 1.5199585-4.6199951-2.669983v-.4600219l2.6199951-1.5199585z" fill="#fff"/></g></g></g><g><g enable-background="new"><g><path d="m30.7060909 6.9452872-.0013218.4664808-2.6171627 1.5209293.0013218-.4664812z" fill="#fff"/></g><g><path d="m28.0889282 8.4662161-.0013218.4664812-4.6218776-2.6684418.0013237-.4664812z" fill="#b0b8cf"/></g><g><path d="m30.7060909 6.9452872-2.6171627 1.5209289-4.6218757-2.6684418 2.6171627-1.5209288z" fill="#e3e7f0"/></g></g></g></g></g></g><g><path d="m12.0257692 14.0944662-2.1098346 1.2261019-1.0596581-.6117935 2.1098356-1.2261019z" fill="#4c5c75"/></g><g><path d="m27.1819649 5.1905828-2.1098347 1.2261018-1.059658-.6117935 2.1098346-1.2261023z" fill="#4c5c75"/></g></g><path d="m16.7636795 22.4918365c-.7169857 0-1.3622646.291914-1.8282833.7579632-.4660492.4660187-.7579317 1.1112976-.7579317 1.8282833 0-1.4288445-1.157403-2.5862465-2.5862465-2.5862465.7169847 0 1.3622646-.2918835 1.8282833-.7579327.4660492-.4660187.7579632-1.1112976.7579632-1.8282833 0 .7169857.2918825 1.3622646.7579317 1.8282833.4660187.4660493 1.1112976.7579327 1.8282833.7579327z" fill="#fff"/></g><g><path d="m47.4131317 32.6273079-.0143242 5.0519218-22.0615425 12.8207703c-.3371582-1.5952606-.2493286-3.3007813.0143127-5.0519218z" fill="#1d2943"/></g><g><g><g><g enable-background="new"><g><path d="m26.5797691 48.700882-.2914181-.1693497-.0074329-2.6217804.29142.1693573c1.2115631.5209198.8444672 1.5027466.007431 2.6217728z" fill="#b0b8cf"/></g><g><path d="m26.5723381 46.0791092-.29142-.1693573 3.0705109-1.7727585.29142.1693573c-1.0545807 1.423851-2.0855713 2.2151795-3.0705109 1.7727585z" fill="#c9cee2"/></g><g><path d="m29.6428471 44.3063469.0074329 2.6217766-3.0705109 1.7727623-.0074329-2.6217804z" fill="#9ea9c9"/></g></g></g></g><g><g><g enable-background="new"><g><path d="m43.3989677 38.9903183-.2914238-.1693535-.007431-2.6217766.2914085.1693497c1.2313233.4960785.8743592 1.4805374.0074463 2.6217804z" fill="#b0b8cf"/></g><g><path d="m43.3915215 36.3685379-.2914085-.1693497 3.0705109-1.7727623.2914238.1693535c-.8479615 1.4370423-1.8925477 1.9265061-3.0705262 1.7727585z" fill="#c9cee2"/></g><g><path d="m46.4620399 34.5957794.0074349 2.6217804-3.0705109 1.7727585-.0074348-2.6217766z" fill="#9ea9c9"/></g></g></g></g></g><path d="m33.4956474 42.4669113-.0739135-.0429687-.9935914.5736694.0059205 2.0861206.0739135.0429077.9935913-.5736084z" fill="#9ea9c9"/><g><g><g enable-background="new"><g><path d="m32.5079842 45.126667-.0739212-.0429573-.0059128-2.086113.0739212.0429612z" fill="#b0b8cf"/></g><g><path d="m32.5020714 43.0405579-.0739212-.0429612.9935913-.5736503.0739212.0429573z" fill="#c9cee2"/></g><g><path d="m33.4956627 42.4669037.0059128 2.086113-.9935913.5736503-.0059128-2.0861091z" fill="#9ea9c9"/></g></g></g></g><path d="m40.9661064 38.1513596-.0739136-.0429688-.9935913.5736694.0059204 2.0861206.0739136.0429078.9935913-.5736084z" fill="#9ea9c9"/><g><g><g enable-background="new"><g><path d="m39.978447 40.8111076-.0739212-.0429573-.0059128-2.0861091.0739212.0429573z" fill="#b0b8cf"/></g><g><path d="m39.9725342 38.7249985-.0739212-.0429573.9935913-.5736504.0739212.0429573z" fill="#c9cee2"/></g><g><path d="m40.9661255 38.1513481.0059128 2.0861092-.9935913.5736503-.0059128-2.0861091z" fill="#9ea9c9"/></g></g></g></g><g><g><g enable-background="new"><g><path d="m41.0132751 40.0247879-.2823601.1640892c.108345-.0629654.1755562-.1964836.1760979-.3869705.001091-.3854256-.2712097-.8530807-.6066284-1.0467339l.2823524-.1640854c.3354225.1936531.6077232.6613045.6066284 1.0467339-.0005378.1904831-.0677489.3240051-.1760902.3869667z" fill="#4c5c75"/></g><g><path d="m40.3003845 38.7551727c.3354187.1936531.6077194.6613083.6066284 1.0467339-.0010948.3854294-.2751541.5376396-.6105728.3439865z" fill="#111d33"/></g></g></g></g><g><g enable-background="new"><path d="m35.0511932 45.2084808-.1738739-1.9164734c-.0001831-.0604858-.2276802.2310562-.2625923.2107925l-.4457397-.2590332c.0349121.0202637.0567627.0626831.0569458.1231689l.0042114 1.6591187c.0006714.2382202.085144.4060059.2211914.4850464l.4457397.2590332c-.1360473-.0790405.154789-.3234329.1541176-.5616531z" fill="#c9cee2"/><g fill="#e3e7f0"><path d="m40.2971611 38.9903488-.9724731.5614624c-.4172363.2408447-.7560425.8276367-.7546387 1.3070679l.0042114 1.6591187c.0003052.1237183-.086853.2747803-.197937.3388672l-3.3884277 1.9563599c-.0550537.0317383-.1057739.034729-.1422119.0135498l.3915405.4436531c.036438.0211792.1413574-.1664314.1964111-.1981697l3.3641891-1.5667191c.111084-.0640869.4813995-.5611343.4810944-.6848526l-.0345612-1.7429047c-.0014038-.4794312.2769356-.7813034.6941719-1.0221481l.8043709-.8062515z"/><path d="m34.5633354 42.5594406c-.1377563-.0800781-.3284302-.0690918-.5383911.0521851l-.9691162.5594482.0018311.645752.4457397.2590332-.0018311-.6456909 1.0572281-.0261879c.2099609-.1212769.3125229-.6655846.4502792-.5855064z"/></g></g></g><g><g><path d="m29.3141518 45.0923729.0029316 1.4318695-.6213456.3587341-.0029296-1.4318733z" fill="#1d2943"/></g><g><path d="m28.4193192 45.609005.0029296 1.4318695-.6189518.3573532-.0029316-1.4318695z" fill="#1d2943"/></g><g><path d="m27.5268764 46.1242561.0029316 1.4318695-.6213455.3587342-.0029297-1.4318695z" fill="#1d2943"/></g></g><g><g><path d="m46.1333466 35.3818054.0029296 1.4318695-.6213455.3587342-.0029297-1.4318695z" fill="#1d2943"/></g><g><path d="m45.2385139 35.8984375.0029297 1.4318695-.6189537.3573532-.0029297-1.4318695z" fill="#1d2943"/></g><g><path d="m44.3460732 36.4136887.0029296 1.4318695-.6213455.3587341-.0029297-1.4318695z" fill="#1d2943"/></g></g><g><path d="m40.7429047 39.2493553.0018311.6457138-.9724884.5614662c-.107666.0621605-.19487.2132034-.194519.3369331l.0042076 1.6591187c.001358.4794502-.3374138 1.0662003-.7580261 1.3090439l-3.3884506 1.9563217c-.417263.2409058-.7582245.0466003-.7595825-.4328499l-.0042114-1.6591187c-.000351-.1237297-.0914803-.1718102-.1991692-.1096382l-.9690895.5595055-.0018311-.6457138.9690895-.5595055c.417263-.2409058.7582245-.0465965.7595863.4328537l.0042076 1.6591148c.000351.1237335.0914803.1718102.1991692.1096382l3.3884506-1.9563217c.1110382-.0641098.198246-.2151527.1978951-.3388824l-.0042076-1.6591187c-.0013618-.4794502.33741-1.0662003.7546501-1.3070946z" fill="#b0b8cf"/></g><g><path d="m33.5588608 44.3608437-.2823639.1640892c.1083488-.0629616-.1409378-.1435471-.1403999-.3340302.0010948-.3854294.0452919-.9060173-.2901268-1.0996742l.2823524-.1640816c.3354187.1936493.6077232.6613007.6066284 1.04673-.0005379.1904831-.0677528.3240052-.1760902.3869668z" fill="#4c5c75"/></g><g><g><g enable-background="new"><g><path d="m32.8459702 43.0912285c.3354187.1936569.6077194.6613083.6066246 1.0467339-.001091.3854294-.2751503.5376396-.610569.3439865z" fill="#111d33"/></g></g></g></g></g><g><g><g><g><g><g><g><g enable-background="new"><path d="m25.5584354 27.9790783.0032673 1.8846912c0 .0721054.0469875.1431255.1409473.1977558l11.7287807 6.7852421c.1890144.1092567.4949379.1092567.6839523 0l5.8671265-3.3567429c.0961456-.0546303.1431274-.1267433.1431274-.1999435l-.0032845-1.8846912c0 .0185719-.1335297-.0144463-.1389961.0030327-.0087357.0273132-.7414017-.202425-.7643471-.1772995-.0229378.0240345-.0513458.0469799-.0874023.0677395l-4.779808 3.5300713c-.1890144.1092567-.4949341.1092567-.6839523 0l-11.7287826-6.8165723c-.0939598-.0546283-.3806286.0377293-.3806286-.0332832z" fill="#5ec363"/><g><path d="m25.7007866 27.7792664c-.1897392.1095467-.1900406.2871571-.0015335.3967037l11.7289658 6.8161297c.1885071.1095505.494442.1095543.6841812.0000076l5.8672676-3.3874702c.1897392-.1095467.1907387-.2867584.0022316-.396307l-11.7289658-6.8161297c-.1885071-.1095467-.4951363-.109951-.6848755-.0004044z" fill="#78e75a"/></g></g></g><g><g><path d="m27.4409389 28.4696426 3.165184 1.8398991h.0010872l.4250126.2469158 2.140358 1.2433491.4260979.2480183h.0010948l3.326889 1.933857c.4708977-.2709618 1.2324219-.2709618 1.6989517 0l3.6087761-2.0824471c-.4676247-.272049-.4654388-.7134533.0054626-.9844093l-3.3279839-1.9338589-.0010948-.0010929-.4228249-.2458286-2.1447258-1.2466259-.4250069-.2469215-3.1640968-1.8388042c-.4708977.272049-1.2313328.272049-1.6989498 0l-3.6087761 2.08354c.4676248.2720488.4654371.7123602-.0054549.9844091zm4.3091069-1.3624439c.3725624.2163353.3703842.5692348-.0054626.7866554-.374752.2163353-.9833164.2163353-1.3558884 0-.3736572-.2174206-.3725643-.5703201.0032806-.7866554.3758469-.2174206.9844112-.2174206 1.3580704 0zm1.2422561.0655594-.2327194.1343842-1.3526077-.7855606.2316246-.1343842zm7.3115044 4.5188847-1.3536949-.7866535.2327194-.1343861 1.3526001.7866554zm-2.3708801.585617c-.3736649-.2174187-.3725739-.5692253.0021782-.7866459.3758469-.2163353.9855042-.2163353 1.3591652 0 .37257.2174206.3703842.5692272-.0054626.7866459-.3758469.2163353-.9833184.2163353-1.3558808 0zm-1.2444458-.0666427.2338142-.1343842 1.3526001.7866516-.2327118.134388zm-4.3724823-2.8887673v-.0010948c.1584244-.2359924.4097137-.4632492.7505989-.6599121.3408813-.196661.734211-.3419762 1.1428337-.4326611.3452492-.0764751.7025261-.1147194 1.0510559-.1147194.6194878.0010948 1.2094803.1289234 1.6497841.3845882.3671112.2130527.5779762.4851036.6380653.7779121.0349655.1682549.0207596.3419762-.0426102.5156918v.0010948c-.121273.3321457-.420639.6599178-.8893585.9308739-.4698029.2709579-1.035759.4424915-1.6082649.5113239h-.0010948c-.3015518.0371513-.6041908.0447941-.8959122.0240345-.5036736-.0371437-.9723854-.1595116-1.3384018-.3714714-.4403038-.2567596-.6566391-.5987282-.6577263-.9570961 0-.2021235.0666466-.4086207.2010308-.6085643zm-3.1706524-1.4946403.2327175-.1343861 1.3526077.7855625-.2327175.1343842z" fill="#fff"/></g><g><path d="m31.4067497 26.5212135 1.3528099.7861653.232296-.1341153-1.3528099-.7861671z" fill="#72d561"/></g><g><path d="m29.1452255 27.8269043 1.352808.7861671.2329884-.1345157-1.3528099-.7861653z" fill="#72d561"/></g><g><path d="m30.3917866 27.1072025c-.3752975.2166786-.3765831.5690804-.0030346.7861633.3721619.2162762.980547.2166805 1.3558426.0000038.375988-.2170773.3779793-.5698814.0058155-.7861576-.3735485-.2170829-.9826374-.2170848-1.3586235-.0000095z" fill="#72d561"/></g><g><path d="m38.9504662 30.9051418 1.3528099.7861672.232296-.1341172-1.35281-.7861671z" fill="#72d561"/></g><g><path d="m37.9355011 31.4911308c-.3752975.2166786-.3765869.5690765-.0030365.7861595.3728523.2166786.9805489.2166862 1.3558464.0000076.375988-.2170753.3786621-.5694828.0058098-.7861595-.3735466-.2170829-.9826317-.2170829-1.3586197-.0000076z" fill="#72d561"/></g><g><path d="m33.0662231 28.6606045c-1.1433258.6601009-1.2740898 1.6564941-.293438 2.226387.9792595.5690842 2.699852.4965973 3.8431778-.1635036 1.1419182-.6592846 1.2740822-1.6564865.2948189-2.2255707-.9806518-.5698929-2.7026405-.4965992-3.8445587.1626873z" fill="#72d561"/></g><g><path d="m36.688942 32.2108345 1.352806.7861671.2329903-.1345176-1.3528099-.7861672z" fill="#72d561"/></g></g></g><g><path d="m33.7068443 30.2428894-.213047.1245537.1901054.1103516.2174225-.1267414c.2993622.1420403.6533546.2207012 1.0576096.237093l.0404243-.2764244c-.3113823-.0131111-.5703201-.0622768-.7757263-.1474953l.5768776-.3354206c.2786064.0994205.5124168.1529636.7047119.1627922.1901054.0109234.371479-.0349636.5430145-.1343842.1715279-.0994282.2523842-.2152405.2392731-.3485317-.0120239-.1322041-.1081696-.2567596-.2917213-.374752l.1474991-.0863171-.1901131-.1092587-.1518631.0874119c-.2349052-.1169071-.5167923-.193388-.8423767-.2294445l-.0808487.270956c.2239761.0218525.4250107.0699272.600914.1464081l-.5583038.3244915-.0087395-.0054626c-.2829819-.1005135-.5233421-.1573296-.7221909-.1660652-.1977577-.0087433-.3845901.0360489-.5583115.1376572-.1715279.0994282-.2512894.2185154-.2359924.3529072.0131112.134384.1180001.2633074.3113823.3856753zm1.4574967-.6260433.5135078-.2982712c.0819435.0557156.1256447.1125317.1321983.16716.0065575.0557232-.0240326.1016102-.0906792.1409473-.0666504.0382366-.1376648.0568085-.2174187.0568085-.0775756-.0010929-.190113-.0229396-.3376082-.0666446zm-1.196373.1136246c.0688324-.0393295.1464081-.0589962.2305336-.0579033.0852242.002182.2043152.0273151.3605537.075388l-.5353622.3102875c-.0852203-.0600891-.132206-.1201801-.1431274-.1791763-.0109253-.0579091.0185699-.1081697.0874023-.1485959z" fill="#fff"/></g></g></g></g><path d="m30.1801872 32.6650925.495121.2862434 1.7871399 1.0328102.4912491.2823944.0038719-1.8838196-.0077476-.0038719 6.5450477-3.7792606-.4912719-.2823715-1.7755242-1.0328083-.4873733-.2862683-6.5566407 3.7870026z" fill="#ffd06c"/><g><g><path d="m32.4505615 32.0994034.4907456.2851906 6.5536842-3.7837696-.4907494-.2851925z" fill="#ffde9b"/></g><g><g><path d="m30.6741028 31.0670376 1.7764587 1.0323658 6.5536804-3.7837715-1.7764587-1.0323639z" fill="#ffd06c"/></g></g><g><path d="m30.1858177 30.7832775.4882851.2837601 6.5536804-3.7837696-.4882851-.2837601z" fill="#ffde9b"/></g></g><g><g><path d="m32.4676094 32.1008148-.0052261 1.882782.4914779.2837563.0052262-1.882782z" fill="#ffd06c"/></g><g><g><path d="m30.6795273 31.0684681-.0052242 1.8827801 1.7880802 1.0323486.0052261-1.882782z" fill="#febc1f"/></g></g><g><g><path d="m30.1855869 30.7832909-.0052261 1.8827781.4939423.2851792.0052242-1.8827801z" fill="#ffd06c"/></g></g></g></g><g><g><g><g><g><g><g enable-background="new"><path d="m18.7294254 31.8983307.0032673 1.8846893c0 .0721092.0469856.1431274.1409454.1977577l11.7287827 6.785244c.1890125.1092567.4949398.1092567.6839523 0l5.8671265-3.3567467c.0961456-.0546303.1431236-.1267433.1431236-.1999435l-.0032806-1.8846893c0 .0185699-.1335297-.0144463-.1389961.0030327-.0087357.0273132-.7414017-.2024269-.7643471-.1772995-.0229416.0240326-.0513496.046978-.0874062.0677376l-4.7798061 3.5300713c-.1890125.1092567-.4949322.1092567-.6839523 0l-11.7287827-6.8165723c-.0939598-.0546284-.3806267.0377312-.3806267-.0332813z" fill="#5ec363"/><g><path d="m18.8717766 31.6985188c-.1897392.1095448-.1900406.2871552-.0015354.3967037l11.7289658 6.8161316c.1885071.1095467.494442.1095505.6841812.0000038l5.8672695-3.3874702c.1897392-.1095467.1907387-.2867584.0022316-.3963051l-11.7289658-6.8161297c-.1885052-.1095486-.4951363-.109951-.6848755-.0004044z" fill="#78e75a"/></g></g></g><g><g><path d="m20.6119289 32.3888931 3.165184 1.839901h.0010872l.4250126.2469139 2.1403561 1.243351.4260998.2480164h.0010929l3.3268909 1.933857c.4708977-.2709618 1.23242-.2709618 1.6989517 0l3.6087761-2.0824471c-.4676247-.272049-.4654388-.7134514.0054588-.9844093l-3.32798-1.933857-.0010948-.0010948-.4228268-.2458267-2.1447239-1.2466259-.425005-.2469234-3.1640987-1.8388042c-.4708977.2720509-1.2313328.2720509-1.6989517 0l-3.6087742 2.08354c.4676247.2720507.465437.7123602-.005455.9844091zm4.309105-1.362442c.3725662.2163334.3703842.5692329-.0054607.7866554-.374752.2163353-.9833164.2163353-1.3558884 0-.3736591-.2174225-.3725643-.570322.0032806-.7866554.3758469-.2174206.9844112-.2174206 1.3580685 0zm1.2422561.0655594-.2327175.1343842-1.3526077-.7855625.2316246-.1343842zm7.3115063 4.5188827-1.3536949-.7866516.2327194-.1343842 1.3526001.7866516zm-2.370882.5856209c-.3736649-.2174225-.37257-.5692291.002182-.7866478.375845-.2163353.9855022-.2163353 1.3591633 0 .37257.2174187.3703842.5692253-.0054626.7866478-.375847.2163315-.9833165.2163315-1.3558827 0zm-1.244442-.0666465.2338123-.1343842 1.3526001.7866554-.2327118.1343842zm-4.3724842-2.8887673v-.001091c.1584244-.2359962.4097137-.463253.750597-.6599159.3408833-.1966591.7342129-.3419762 1.1428356-.4326591.3452492-.0764771.7025242-.1147194 1.0510559-.1147194.6194878.0010948 1.2094803.1289215 1.6497841.3845863.3671093.2130547.5779762.4851036.6380653.7779121.0349636.1682549.0207596.3419762-.0426121.5156937v.0010948c-.121273.3321457-.4206371.6599159-.8893566.9308739-.4698048.2709579-1.0357571.4424896-1.6082649.5113258h-.0010948c-.3015518.0371475-.6041889.0447922-.8959122.0240326-.5036755-.0371437-.9723873-.1595116-1.3384037-.3714714-.4403038-.2567596-.6566372-.5987282-.6577244-.9570961 0-.2021256.0666447-.4086227.2010308-.6085663zm-3.1706543-1.4946403.2327194-.1343842 1.3526077.7855606-.2327194.1343842z" fill="#fff"/></g><g><path d="m24.5777397 30.440464 1.352808.7861672.2322979-.1341172-1.3528099-.7861652z" fill="#72d561"/></g><g><path d="m22.3162155 31.7461567 1.352808.7861652.2329884-.1345138-1.3528099-.7861672z" fill="#72d561"/></g><g><path d="m23.5627747 31.0264549c-.3752956.2166767-.3765812.5690804-.0030327.7861633.3721619.2162743.980545.2166786 1.3558426.0000019.3759861-.2170753.3779774-.5698795.0058155-.7861576-.3735485-.217081-.9826374-.2170848-1.3586254-.0000076z" fill="#72d561"/></g><g><path d="m32.1214561 34.8243942 1.3528061.7861672.2322998-.1341172-1.3528099-.7861671z" fill="#72d561"/></g><g><path d="m31.1064911 35.4103813c-.3752956.2166786-.3765869.5690804-.0030384.7861633.3728523.2166786.9805508.2166824 1.3558483.0000038.3759842-.2170753.3786621-.5694809.0058098-.7861595-.3735466-.2170829-.9826317-.2170829-1.3586197-.0000076z" fill="#72d561"/></g><g><path d="m26.2372131 32.5798569c-1.1433277.660099-1.2740898 1.6564941-.293438 2.226387.9792614.5690842 2.6998501.4965973 3.8431778-.1635056 1.1419182-.6592827 1.2740803-1.6564865.2948208-2.2255707-.9806518-.5698909-2.7026424-.4965972-3.8445606.1626893z" fill="#72d561"/></g><g><path d="m29.85993 36.130085 1.3528099.7861671.2329865-.1345176-1.352808-.7861634z" fill="#72d561"/></g></g></g><g><path d="m26.8778324 34.1621399-.213047.1245575.1901073.1103477.2174206-.1267395c.2993641.1420403.6533566.2206993 1.0576115.2370911l.0404243-.2764244c-.3113804-.0131111-.5703201-.0622749-.7757244-.1474953l.5768757-.3354187c.2786045.0994186.5124168.1529617.7047119.1627922.1901054.0109215.3714771-.0349655.5430126-.1343842.1715279-.0994301.2523842-.2152405.2392731-.3485336-.012022-.1322021-.1081696-.2567596-.2917213-.374752l.147501-.0863152-.1901131-.1092606-.1518631.0874138c-.2349052-.116909-.5167923-.1933899-.8423767-.2294464l-.0808506.2709579c.223978.0218506.4250145.0699272.6009159.1464081l-.5583038.3244896-.0087414-.0054588c-.28298-.1005173-.5233402-.1573334-.7221909-.166069-.1977558-.0087433-.3845882.0360489-.5583096.137661-.1715279.0994263-.2512913.2185135-.2359943.3529053.0131111.1343841.118.2633056.3113823.3856735zm1.4574967-.6260414.5135117-.2982712c.0819416.0557137.1256409.1125298.1321964.16716.0065556.0557213-.0240326.1016083-.0906792.1409454-.0666523.0382385-.1376648.0568085-.2174206.0568085-.0775757-.001091-.1901131-.0229377-.3376083-.0666427zm-1.1963711.1136246c.0688343-.0393295.1464081-.0589981.2305317-.0579033.0852242.002182.204319.0273132.3605556.0753899l-.5353642.3102837c-.0852165-.0600891-.1322041-.1201782-.1431274-.1791763-.0109234-.0579072.0185719-.1081697.0874043-.148594z" fill="#fff"/></g></g></g></g><path d="m23.3511772 36.584343.4951191.2862472 1.7871399 1.0328064.4912491.2823982.0038719-1.8838234-.0077438-.0038719 6.5450458-3.7792587-.491272-.2823715-1.7755241-1.0328102-.4873752-.2862664-6.5566388 3.7870026z" fill="#ffd06c"/><g><g><path d="m25.6215496 36.0186539.4907494.2851906 6.5536823-3.7837677-.4907494-.2851944z" fill="#ffde9b"/></g><g><g><path d="m23.8450928 34.98629 1.7764568 1.0323639 6.5536823-3.7837715-1.7764587-1.0323639z" fill="#ffd06c"/></g></g><g><path d="m23.3568058 34.7025299.488287.2837601 6.5536804-3.7837715-.4882851-.2837601z" fill="#ffde9b"/></g></g><g><g><path d="m25.6385975 36.0200691-.0052261 1.8827782.4914798.2837562.0052262-1.8827781z" fill="#ffd06c"/></g><g><g><path d="m23.8505173 34.9877205-.0052243 1.8827782 1.7880784 1.0323486.0052261-1.8827782z" fill="#febc1f"/></g></g><g><g><path d="m23.356575 34.7025414-.0052242 1.8827819.4939422.2851754.0052243-1.8827782z" fill="#ffd06c"/></g></g></g></g><g><g><g><g><g><g><g enable-background="new"><path d="m11.9006729 35.8409119.0032673 1.8846893c0 .0721092.0469866.1431274.1409464.1977577l11.7287817 6.785244c.1890125.1092567.4949398.1092567.6839523 0l5.8671246-3.3567467c.0961475-.0546303.1431274-.1267433.1431274-.1999435l-.0032806-1.8846893c0 .0185699-.1335297-.0144463-.138998.0030327-.0087357.0273132-.7413998-.2024269-.7643471-.1772995-.0229397.0240326-.0513477.0469818-.0874043.0677414l-4.779808 3.5300674c-.1890125.1092606-.4949322.1092606-.6839523 0l-11.7287817-6.8165703c-.0939599-.0546303-.3806277.0377312-.3806277-.0332832z" fill="#5ec363"/><g><path d="m12.043025 35.641098c-.1897392.1095467-.1900415.287159-.0015354.3967056l11.7289667 6.8161316c.1885052.1095467.4944401.1095505.6841793.0000038l5.8672714-3.3874702c.1897392-.1095428.1907368-.2867584.0022297-.3963051l-11.7289657-6.8161278c-.1885052-.1095505-.4951363-.109951-.6848755-.0004082z" fill="#78e75a"/></g></g></g><g><g><path d="m13.7831755 36.3314781 3.165185 1.8398972h.0010872l.4250126.2469139 2.1403561 1.243351.4260998.2480164h.0010929l3.3268909 1.933857c.4708996-.2709618 1.23242-.2709618 1.6989517 0l3.6087761-2.0824432c-.4676266-.2720528-.4654388-.7134552.0054607-.9844131l-3.3279839-1.933857-.0010929-.0010948-.4228268-.2458267-2.1447239-1.246624-.425005-.2469254-3.1640987-1.8388023c-.4708977.272049-1.2313328.272049-1.6989498 0l-3.608777 2.0835381c.4676256.2720525.4654379.7123602-.005455.9844129zm4.3091058-1.3624458c.3725662.2163353.3703842.5692329-.0054607.7866554-.374752.2163353-.9833164.2163353-1.3558884 0-.3736591-.2174225-.3725643-.5703201.0032806-.7866554.3758469-.2174187.9844113-.2174187 1.3580685 0zm1.2422581.0655594-.2327194.1343841-1.3526077-.7855606.2316246-.1343842zm7.3115044 4.5188865-1.3536949-.7866554.2327194-.1343842 1.3526001.7866554zm-2.3708801.5856171c-.3736668-.2174225-.3725719-.5692253.0021801-.7866478.375845-.2163353.9855042-.2163353 1.3591614 0 .3725719.2174225.3703842.5692253-.0054607.7866478-.3758451.2163353-.9833165.2163353-1.3558808 0zm-1.2444439-.0666466.2338123-.1343842 1.3526001.7866554-.2327118.1343842zm-4.3724843-2.8887672v-.001091c.1584244-.2359924.4097137-.463253.750597-.6599121.3408833-.1966629.7342129-.3419762 1.1428356-.432663.3452511-.0764732.7025242-.1147194 1.0510559-.1147194.6194878.0010948 1.2094803.1289215 1.6497841.3845901.3671093.2130508.5779762.4850998.6380653.7779121.0349636.168251.0207596.3419762-.0426102.5156898v.0010948c-.1212749.3321457-.420639.6599197-.8893585.9308739-.4698048.2709579-1.0357571.4424934-1.6082649.5113258h-.0010948c-.3015518.0371513-.6041889.0447922-.8959122.0240326-.5036736-.0371437-.9723873-.1595116-1.3384037-.3714714-.4403038-.2567596-.6566372-.5987282-.6577244-.9570961.0000001-.2021216.0666448-.4086226.2010308-.6085661zm-3.1706533-1.4946404.2327194-.1343842 1.3526068.7855606-.2327194.1343842z" fill="#fff"/></g><g><path d="m17.7489872 34.3830452 1.352808.7861671.2322979-.1341171-1.3528099-.7861633z" fill="#72d561"/></g><g><path d="m15.487463 35.6887398 1.352808.7861633.2329884-.1345138-1.352809-.7861672z" fill="#72d561"/></g><g><path d="m16.734024 34.9690361c-.3752975.2166786-.3765831.5690804-.0030346.7861633.3721619.2162781.980545.2166824 1.3558426.0000038.3759861-.2170753.3779774-.5698814.0058155-.7861595-.3735485-.2170791-.9826374-.2170829-1.3586235-.0000076z" fill="#72d561"/></g><g><path d="m25.2927036 38.7669754 1.352808.7861671.232296-.1341171-1.352808-.7861671z" fill="#72d561"/></g><g><path d="m24.2777386 39.3529663c-.3752956.2166748-.3765869.5690765-.0030384.7861595.3728523.2166786.9805508.2166824 1.3558483.0000038.3759861-.2170753.3786621-.5694809.0058098-.7861595-.3735485-.217083-.9826317-.217083-1.3586197-.0000038z" fill="#72d561"/></g><g><path d="m19.4084606 36.522438c-1.1433258.660099-1.2740898 1.6564941-.293438 2.226387.9792614.5690842 2.699852.4965973 3.8431778-.1635017 1.1419182-.6592865 1.2740803-1.6564903.2948208-2.2255745-.9806518-.5698928-2.7026424-.4965972-3.8445606.1626892z" fill="#72d561"/></g><g><path d="m23.0311775 40.0726662 1.3528099.7861671.2329865-.1345138-1.352808-.7861672z" fill="#72d561"/></g></g></g><g><path d="m20.0490799 38.1047211-.213047.1245575.1901073.1103516.2174206-.1267433c.2993641.1420403.6533585.2207031 1.0576115.2370911l.0404243-.2764244c-.3113804-.0131073-.5703201-.0622749-.7757244-.1474915l.5768757-.3354225c.2786045.0994225.5124168.1529617.7047119.1627922.1901054.0109215.3714771-.0349617.5430126-.1343842.1715279-.0994301.2523842-.2152405.2392731-.3485336-.012022-.1322021-.1081696-.2567558-.2917213-.374752l.147501-.0863152-.1901131-.1092568-.1518631.08741c-.2349052-.1169052-.5167923-.1933861-.8423767-.2294464l-.0808487.2709579c.2239761.0218544.4250126.0699272.6009159.1464081l-.5583038.3244896-.0087433-.0054588c-.28298-.1005173-.5233402-.1573334-.7221909-.166069-.1977539-.0087395-.3845882.0360527-.5583096.137661-.1715279.0994263-.2512913.2185135-.2359924.3529053.0131092.134384.118.2633055.3113804.3856734zm1.4574966-.6260414.5135117-.2982712c.0819435.0557175.1256409.1125336.1321964.16716.0065556.0557213-.0240326.1016083-.0906792.1409454-.0666504.0382385-.1376648.0568123-.2174206.0568123-.0775756-.0010948-.190113-.0229416-.3376083-.0666465zm-1.1963691.1136245c.0688324-.0393295.1464062-.0589943.2305317-.0579033.0852222.002182.2043171.027317.3605537.0753899l-.5353642.3102875c-.0852165-.0600929-.1322041-.120182-.1431274-.1791801-.0109215-.0579072.0185719-.1081696.0874062-.148594z" fill="#fff"/></g></g></g></g><path d="m16.5224247 40.5269279.495121.2862435 1.787138 1.0328064.4912491.2823982.0038719-1.8838234-.0077438-.0038719 6.5450458-3.7792587-.491272-.2823716-1.7755241-1.0328102-.4873753-.2862663-6.5566387 3.7870026z" fill="#ffd06c"/><g><g><path d="m18.7927971 39.961235.4907493.2851944 6.5536824-3.7837715-.4907494-.2851906z" fill="#ffde9b"/></g><g><g><path d="m17.0163403 38.9288712 1.7764568 1.0323638 6.5536823-3.7837677-1.7764587-1.0323677z" fill="#ffd06c"/></g></g><g><path d="m16.5280533 38.6451111.488287.2837601 6.5536804-3.7837716-.4882851-.28376z" fill="#ffde9b"/></g></g><g><g><path d="m18.809845 39.9626503-.0052243 1.8827782.4914799.2837562.0052242-1.8827781z" fill="#ffd06c"/></g><g><g><path d="m17.0217648 38.9303017-.0052243 1.8827781 1.7880802 1.0323487.0052243-1.8827782z" fill="#febc1f"/></g></g><g><g><path d="m16.5278225 38.6451225-.0052242 1.882782.4939422.2851753.0052243-1.8827781z" fill="#ffd06c"/></g></g></g></g></g><g><path d="m25.3541718 45.4494858-.0200195 5.0499878-16.3099976-9.4199829.0100098-5.0500488c5.8399657 2.4999999 11.2999877 5.6000366 16.3200073 9.4200439z" fill="#111d33"/></g><path d="m47.4141693 32.6294785-22.0599975 12.8200073-16.3200074-9.420044 2.4699707-.0100097 13.8500367 8 19.579956-11.3899536z" fill="#4c5c75"/></g></g></svg>