<svg id="Layer_1" viewBox="0 0 512 512" xmlns="http://www.w3.org/2000/svg" data-name="Layer 1"><path d="m89.894 257.923a7.17 7.17 0 0 1 0-14.339l78.455-.262a7.17 7.17 0 1 1 0 14.339zm174.718 25.647a7.188 7.188 0 1 1 7.2-12.444l159.884 92.327a7.176 7.176 0 1 1 -7.2 12.416zm88.8-191.621a7.192 7.192 0 1 1 10.7 9.617l-100.229 111.534a7.181 7.181 0 1 1 -10.666-9.617zm-138.17 210.71a7.17 7.17 0 0 1 14.339 0v119.957a7.17 7.17 0 0 1 -14.339 0zm-79.5 61.173a7.161 7.161 0 1 1 -11.016-9.151l57.559-69.129a7.161 7.161 0 0 1 11.015 9.148zm93.868-169.384a7.2 7.2 0 0 1 -14.4 0v-105.064a7.2 7.2 0 0 1 14.4 0z" fill="#3a6584"/><g fill-rule="evenodd"><path d="m388.619 18.827a44.692 44.692 0 1 1 -44.677 44.673 44.69 44.69 0 0 1 44.677-44.677z" fill="#e6a74e"/><path d="m466.813 347.308a44.692 44.692 0 1 1 -44.707 44.707 44.69 44.69 0 0 1 44.707-44.707z" fill="#e13f4d"/><path d="m222.412 422.616a44.692 44.692 0 1 1 -44.707 44.706 44.689 44.689 0 0 1 44.707-44.706z" fill="#e6a74e"/><path d="m101.639 348.911a44.692 44.692 0 1 1 -44.677 44.706 44.714 44.714 0 0 1 44.677-44.706z" fill="#3eac5a"/><path d="m45.187 206.222a44.693 44.693 0 1 1 -44.677 44.678 44.69 44.69 0 0 1 44.677-44.678z" fill="#e13f4d"/><path d="m222.412 0a44.692 44.692 0 1 1 -44.707 44.678 44.665 44.665 0 0 1 44.707-44.678z" fill="#3eac5a"/><path d="m222.412 194.448a54.106 54.106 0 1 1 -54.121 54.091 54.093 54.093 0 0 1 54.121-54.091z" fill="#4090ff"/><path d="m192.976 248.539a54.129 54.129 0 0 1 27.541-47.155 52.744 52.744 0 0 1 8.365-3.788 48.431 48.431 0 0 1 5.857-1.749c-1.69-.379-3.409-.7-5.158-.933a55.608 55.608 0 0 0 -14.368 0 54.113 54.113 0 0 0 -46.659 48.408 51.641 51.641 0 0 0 -.263 5.217 55.01 55.01 0 0 0 .758 9.093 54.066 54.066 0 0 0 13.551 27.568 55.266 55.266 0 0 0 10.987 9.151 54.044 54.044 0 0 0 21.654 7.84 55.162 55.162 0 0 0 14.31 0 50.826 50.826 0 0 0 5.187-.962 55.015 55.015 0 0 1 -5.887-1.719 56.3 56.3 0 0 1 -8.306-3.789 54.072 54.072 0 0 1 -27.57-47.184z" fill="#3a82e6"/><path d="m403.541 105.647a44.721 44.721 0 0 1 0-84.285 44.706 44.706 0 0 1 0 84.285z" fill="#ffba57"/><path d="m481.734 434.157a44.721 44.721 0 0 1 0-84.285 44.721 44.721 0 0 1 0 84.285z" fill="#fa4655"/><path d="m237.333 509.435a44.685 44.685 0 0 1 0-84.255 44.7 44.7 0 0 1 0 84.255z" fill="#ffba57"/><path d="m116.561 435.73a44.7 44.7 0 0 1 0-84.255 44.685 44.685 0 0 1 0 84.255z" fill="#45bf64"/><path d="m60.109 293.042a44.72 44.72 0 0 1 0-84.284 44.705 44.705 0 0 1 0 84.284z" fill="#fa4655"/><path d="m237.333 86.819a44.684 44.684 0 0 1 0-84.254 44.7 44.7 0 0 1 0 84.254z" fill="#45bf64"/></g></svg>