<svg height="512" viewBox="0 0 64 64" width="512" xmlns="http://www.w3.org/2000/svg"><g id="global_payment" fill-rule="evenodd" data-name="global payment"><g fill="#4bb9ec"><path d="m38.528 40.5a24.512 24.512 0 0 1 -2.477 7.145c-1.16 2.041-2.504 3.355-4.051 3.355s-2.891-1.314-4.051-3.355a24.512 24.512 0 0 1 -2.477-7.145z"/><path d="m48.994 40.5h-8.434a27.065 27.065 0 0 1 -2.77 8.133 12.867 12.867 0 0 1 -1.236 1.817 19.055 19.055 0 0 0 12.44-9.95z"/><path d="m23.44 40.5h-8.434a19.058 19.058 0 0 0 12.44 9.95 12.867 12.867 0 0 1 -1.236-1.817 27.065 27.065 0 0 1 -2.77-8.133z"/><path d="m23.11 25.5h-8.967a19.053 19.053 0 0 0 0 13h8.967a47.908 47.908 0 0 1 0-13z"/><path d="m38.875 25.5a45.167 45.167 0 0 1 .458 6.5 45.167 45.167 0 0 1 -.458 6.5h-13.75a46.353 46.353 0 0 1 0-13z"/><path d="m49.857 25.5h-8.967a46.918 46.918 0 0 1 .443 6.5 46.918 46.918 0 0 1 -.443 6.5h8.967a19.053 19.053 0 0 0 0-13z"/><path d="m27.446 13.55a19.055 19.055 0 0 0 -12.44 9.95h8.434a27.065 27.065 0 0 1 2.77-8.133 12.867 12.867 0 0 1 1.236-1.817z"/><path d="m32 13c1.547 0 2.891 1.314 4.051 3.355a24.512 24.512 0 0 1 2.477 7.145h-13.056a24.512 24.512 0 0 1 2.477-7.145c1.16-2.041 2.504-3.355 4.051-3.355z"/><path d="m36.554 13.55a12.867 12.867 0 0 1 1.236 1.817 27.065 27.065 0 0 1 2.77 8.133h8.434a19.058 19.058 0 0 0 -12.44-9.95z"/></g><path d="m7.005 5.867a5 5 0 0 0 .995 9.901 3 3 0 1 1 -3 3 1 1 0 0 0 -2 0 5.005 5.005 0 0 0 4 4.9v1.87a1 1 0 0 0 2 0v-1.87a5 5 0 0 0 -1-9.9 3 3 0 1 1 3-3 1 1 0 0 0 2 0 5 5 0 0 0 -4.005-4.9.772.772 0 0 0 .005-.097v-1.771a1 1 0 0 0 -2 0v1.771c0 .029 0 .064.005.096z" fill="#fdbf00"/><path d="m55 40.33a5 5 0 0 0 1 9.9 3 3 0 1 1 -3 3 1 1 0 0 0 -2 0 5 5 0 0 0 4 4.9v1.87a1 1 0 0 0 2 0v-1.871a5 5 0 0 0 -1-9.9 3 3 0 1 1 3-3 1 1 0 0 0 2 0 5 5 0 0 0 -4-4.9v-1.867a1 1 0 0 0 -2 0z" fill="#fdbf00"/><path d="m20.429 7.6a27.007 27.007 0 0 1 38.571 24.4 1 1 0 0 0 2 0 29.006 29.006 0 0 0 -41.429-26.2 1 1 0 1 0 .858 1.8z" fill="#47568c"/><path d="m43.571 56.4a27.007 27.007 0 0 1 -38.571-24.4 1 1 0 0 0 -2 0 29.006 29.006 0 0 0 41.429 26.2 1 1 0 1 0 -.858-1.806z" fill="#47568c"/></g></svg>