<svg clip-rule="evenodd" fill-rule="evenodd" height="512" image-rendering="optimizeQuality" shape-rendering="geometricPrecision" text-rendering="geometricPrecision" viewBox="0 0 512 512" width="512" xmlns="http://www.w3.org/2000/svg"><g id="Layer_x0020_1"><path d="m255.999 512.05c-7.89924 0-15.8989-.900003-23.5985-2.59961-42.4997-9.49964-78.7998-28.3997-107.9-56.1002-23.2005-22.0997-41.8005-49.8002-55.3998-82.3999-22.8001-55.2002-23.1001-104.6-23.1001-106.7v-172.399c0-3.1004 2.29961-5.59962 5.40002-6.00002 67.9998-7.09963 118.8-29.5997 149.5-47.2005 33.3001-19.0997 50.5998-36.7005 50.8005-36.9001 1.09961-1.2 2.69883-1.80001 4.29923-1.80001 1.6004 0 3.19962.700396 4.30041 1.80001.199607.199607 17.5004 17.8004 50.8005 36.9001 30.7005 17.5997 81.4999 40.0005 149.5 47.2005 3.1004.300001 5.40002 2.89962 5.40002 6.00002v172.399c0 2.10001-.300001 51.4998-23.2005 106.7-13.5 32.5997-32.1001 60.3002-55.3998 82.3999-29.1001 27.7005-65.4002 46.6005-107.9 56.1002-7.6016 1.69961-15.6012 2.59961-23.5016 2.59961z" fill="#cae8f9"/><path d="m255.999 465.749c-9.19845 0-18.2989-1.2-27.1985-3.49962-33.1997-8.70003-61.5002-24.7005-84.0995-47.4001-18.2008-18.1997-32.7013-40.5993-43.2013-66.7998-17.8004-44.2997-18.0001-83.4995-18.0001-85.2003v-140.698c0-3.1004 2.29961-5.59962 5.40002-6.00002 55.3006-5.80041 96.6003-24.0001 121.5-38.2997 27.0001-15.4997 41.2005-29.8005 41.2997-30.0001 1.09961-1.2 2.69883-1.80001 4.29923-1.80001s3.19962.700396 4.30041 1.80001c.100394.100394 14.2997 14.5004 41.2997 30.0001 24.9001 14.2997 66.1998 32.5005 121.5 38.2997 3.1004.300001 5.40002 2.89962 5.40002 6.00002v140.798c0 1.6004-.199607 40.8001-18.0001 85.2003-10.5 26.2005-25.0005 48.6001-43.0997 66.7998-22.6997 22.8001-51.0002 38.7001-84.0995 47.4001h-.00118111c-9.00003 2.29961-18.1004 3.39922-27.3001 3.39922z" fill="#3e9ddd"/><path d="m221 341.949c-1.6004 0-3.1004-.600002-4.20001-1.80001l-67.2994-67.2994c-2.29961-2.29961-2.29961-6.10041 0-8.50042l21.0001-20.9989c1.09961-1.09961 2.70001-1.80001 4.20001-1.80001s3.1004.600002 4.20001 1.80001l42.1005 42.0993 112.099-112.099c1.09961-1.09961 2.70001-1.80001 4.20001-1.80001 1.6004 0 3.1004.600002 4.20001 1.80001l21.0001 21.0001c2.29961 2.29961 2.29961 6.10041 0 8.50042l-137.3 137.398c-1.10079 1.09961-2.6008 1.69961-4.20001 1.69961z" fill="#fff"/></g></svg>