<svg width="53" height="53" viewBox="0 0 53 53" fill="none" xmlns="http://www.w3.org/2000/svg">
<g clip-path="url(#clip0_21_89)">
<path d="M52.6497 25.6508L40.6045 13.6055C40.1718 13.1003 39.4114 13.0414 38.9062 13.4742C38.4009 13.9069 38.342 14.6673 38.7748 15.1725C38.8152 15.2196 38.8591 15.2636 38.9062 15.3039L48.8916 25.3015H1.20449C0.539307 25.3015 0 25.8408 0 26.506C0 27.1713 0.539307 27.7105 1.20449 27.7105H48.8916L38.9062 37.696C38.4009 38.1287 38.342 38.8891 38.7748 39.3943C39.2076 39.8996 39.9679 39.9585 40.4732 39.5257C40.5203 39.4853 40.5643 39.4414 40.6045 39.3943L52.6498 27.3491C53.1168 26.8794 53.1168 26.1207 52.6497 25.6508Z" fill="white"/>
</g>
<defs>
<clipPath id="clip0_21_89">
<rect width="53" height="53" fill="white"/>
</clipPath>
</defs>
</svg>
