<svg enable-background="new 0 0 32 32" viewBox="0 0 32 32" xmlns="http://www.w3.org/2000/svg"><g id="Grid" display="none"/><g id="compass_1_"/><g id="placeholder"/><g id="home_location"/><g id="map"/><g id="disable_location_1_"/><g id="target_location"/><g id="destination"/><g id="check_point"><path d="m28.083 14.241c0 5.589-4.565 10.914-8.083 14.188-2.25 2.094-5.75 2.094-8 0-3.518-3.274-8.083-8.599-8.083-14.188 0-6.76 5.41-12.241 12.083-12.241s12.083 5.481 12.083 12.241z" fill="#cdf6f9"/><circle cx="16" cy="14.076" fill="#fff" r="5.37"/><g fill="#1a83a8"><path d="m16 7.806c-3.458 0-6.27 2.813-6.27 6.27s2.813 6.27 6.27 6.27 6.271-2.813 6.271-6.27-2.814-6.27-6.271-6.27zm0 10.74c-2.465 0-4.47-2.005-4.47-4.47s2.005-4.47 4.47-4.47 4.47 2.005 4.47 4.47-2.005 4.47-4.47 4.47z"/><path d="m17.262 12.461-1.912 1.54-.467-.596c-.307-.391-.871-.459-1.264-.153-.391.307-.46.872-.153 1.264l1.03 1.314c.148.189.367.312.606.339.034.004.068.006.103.006.205 0 .404-.069.564-.199l2.622-2.112c.388-.312.448-.878.137-1.265s-.879-.45-1.266-.138z"/><path d="m16 1.1c-7.159 0-12.983 5.895-12.983 13.141 0 5.833 4.551 11.293 8.37 14.847 1.294 1.204 2.954 1.806 4.613 1.806 1.66 0 3.32-.602 4.613-1.806 3.818-3.553 8.37-9.013 8.37-14.847 0-7.246-5.824-13.141-12.983-13.141zm3.387 26.671c-1.898 1.767-4.874 1.768-6.773 0-3.557-3.311-7.796-8.345-7.796-13.529-.001-6.254 5.015-11.342 11.182-11.342 6.166 0 11.183 5.088 11.183 11.341 0 5.186-4.24 10.219-7.796 13.53z"/></g></g><g id="position"/><g id="road"/><g id="vehicle"/><g id="pin_2_"/><g id="maps"/><g id="radar_1_"/><g id="treasure_map"/><g id="unavailable_location"/><g id="gps_1_"/><g id="travel"/><g id="travel_book"/><g id="map_type"/><g id="list_location"/><g id="navigation"/><g id="position_1_"/><g id="shop_location"/><g id="favorite_location"/></svg>