<svg clip-rule="evenodd" fill-rule="evenodd" stroke-linejoin="round" stroke-miterlimit="2" viewBox="0 0 64 64" xmlns="http://www.w3.org/2000/svg"><g transform="translate(-1928 -168)"><path d="m1940 199-11 3v29h11z" fill="#87ccff"/><path d="m1970 226v5h-30v-56h5v27.483c0 6.237 2.48 12.219 6.89 16.629s10.39 6.888 16.63 6.888z" fill="#cfebff"/><path d="m1944 181h9v4h-9z" fill="#87ccff"/><g transform="translate(0 9)"><path d="m1944 181h9v4h-9z" fill="#87ccff"/></g><g transform="translate(0 18)"><path d="m1944 181h9v4h-9z" fill="#87ccff"/></g><g transform="translate(0 27)"><path d="m1944 181h9v4h-9z" fill="#87ccff"/></g><g transform="translate(13)"><path d="m1944 181h9v4h-9z" fill="#87ccff"/></g><g transform="translate(13 9)"><path d="m1944 181h9v4h-9z" fill="#87ccff"/></g><g transform="translate(13 18)"><path d="m1944 181h9v4h-9z" fill="#87ccff"/></g><g transform="translate(13 27)"><path d="m1944 181h9v4h-9z" fill="#87ccff"/></g><path d="m1980 194v37h11v-26z" fill="#cfebff"/><g transform="matrix(1.5 0 0 1.436 1550 -100.692)"><path d="m294 231.696h-41.333c-.369 0-.667-.311-.667-.696v-20.196c0-.314.201-.59.491-.672l6.842-1.95v-16.182c0-.385.299-.696.667-.696h1.333v-3.483c0-.214.095-.417.257-.549.162-.131.373-.178.572-.126l15.92 4.158h1.918c.368 0 .667.311.667.696v12.536h6c.176 0 .346.073.471.204l7.333 7.66c.125.131.196.308.196.493v18.107c0 .385-.299.696-.667.696zm-34.667-22.07-6 1.709v18.969h6v-4.179h-3.333c-.368 0-.667-.312-.667-.696 0-.385.299-.697.667-.697h3.333v-2.089h-3.333c-.368 0-.667-.312-.667-.697 0-.384.299-.696.667-.696h3.333v-2.089h-3.333c-.368 0-.667-.312-.667-.697 0-.384.299-.696.667-.696h3.333v-2.089h-3.333c-.368 0-.667-.312-.667-.697 0-.384.299-.696.667-.696h3.333zm20-16.93h-18.666v37.608h5.333v-6.268h-1.333c-.368 0-.667-.312-.667-.697 0-.384.299-.696.667-.696h10.666c.368 0 .667.312.667.696 0 .385-.299.697-.667.697h-1.333v6.268h5.333v-4.875c0-.385.299-.697.667-.697s.667.312.667.697v4.875h12.666v-17.123l-6.942-7.252h-5.724v12.535c0 .385-.299.697-.667.697s-.667-.312-.667-.697zm-6.748-1.392-9.918-2.591v2.591zm-5.252 39h5.334v-6.268h-5.334zm15.334-19.5c-.368 0-.667-.312-.667-.697 0-.384.299-.696.667-.696h4c.176 0 .346.073.471.204l4.667 4.875c.26.271.26.713 0 .985-.26.271-.683.271-.943 0l-4.471-4.671zm-13.334 4.178v2.786c0 .384-.298.696-.666.696h-6c-.369 0-.667-.312-.667-.696v-2.786c0-.384.298-.696.667-.696h6c.368 0 .666.312.666.696zm-1.333.697h-4.667v1.392h4.667zm10-6.965v2.786c0 .385-.298.696-.667.696h-6c-.368 0-.666-.311-.666-.696v-2.786c0-.384.298-.696.666-.696h6c.369 0 .667.312.667.696zm-1.333.697h-4.667v1.393h4.667zm-7.334-.697v2.786c0 .385-.298.696-.666.696h-6c-.369 0-.667-.311-.667-.696v-2.786c0-.384.298-.696.667-.696h6c.368 0 .666.312.666.696zm-1.333.697h-4.667v1.393h4.667zm14.667 13.928c-.368 0-.667-.312-.667-.696 0-.385.299-.697.667-.697h4c.176 0 .346.074.471.204l4.667 4.875c.26.272.26.714 0 .985-.26.272-.683.272-.943 0l-4.471-4.671zm0-8.357c-.368 0-.667-.312-.667-.696 0-.385.299-.697.667-.697h4c.176 0 .346.074.471.204l4.667 4.875c.26.272.26.713 0 .985s-.683.272-.943 0l-4.471-4.671zm-4.667 0v2.786c0 .384-.298.696-.667.696h-6c-.368 0-.666-.312-.666-.696v-2.786c0-.384.298-.696.666-.696h6c.369 0 .667.312.667.696zm-1.333.697h-4.667v1.392h4.667zm-7.334-19.5v2.785c0 .385-.298.697-.666.697h-6c-.369 0-.667-.312-.667-.697v-2.785c0-.385.298-.697.667-.697h6c.368 0 .666.312.666.697zm-1.333.696h-4.667v1.393h4.667zm1.333 5.571v2.786c0 .385-.298.697-.666.697h-6c-.369 0-.667-.312-.667-.697v-2.786c0-.384.298-.696.667-.696h6c.368 0 .666.312.666.696zm-1.333.697h-4.667v1.393h4.667zm14.667 16.018c-.368 0-.667-.312-.667-.697 0-.384.299-.696.667-.696h4c.176 0 .346.073.471.204l4.667 4.875c.26.272.26.713 0 .985s-.683.272-.943 0l-4.471-4.671zm-4.667-16.715v2.786c0 .385-.298.697-.667.697h-6c-.368 0-.666-.312-.666-.697v-2.786c0-.384.298-.696.666-.696h6c.369 0 .667.312.667.696zm-1.333.697h-4.667v1.393h4.667zm2.666 18.107c0-.384.299-.696.667-.696s.667.312.667.696v1.393c0 .384-.299.696-.667.696s-.667-.312-.667-.696zm-1.333-25.071v2.785c0 .385-.298.697-.667.697h-6c-.368 0-.666-.312-.666-.697v-2.785c0-.385.298-.697.666-.697h6c.369 0 .667.312.667.697zm-1.333.696h-4.667v1.393h4.667z" fill="#154596"/></g></g></svg>