<svg id="Layer_1" viewBox="0 0 512 512" xmlns="http://www.w3.org/2000/svg" data-name="Layer 1"><path d="m72.681 502h299.681c14.716 0 26.757-12.04 26.757-26.757v-406.71c0-14.716-12.04-26.757-26.757-26.757h-138.69c0 6.158-4.992 11.151-11.151 11.151s-11.151-4.992-11.151-11.151h-138.689c-14.716 0-26.757 12.04-26.757 26.757v406.71c0 14.716 12.041 26.757 26.757 26.757z" fill="#009ef9" fill-rule="evenodd"/><path d="m72.681 41.776c-14.716 0-26.757 12.04-26.757 26.757v406.71c0 14.716 12.041 26.757 26.757 26.757z" fill="#0e82f5" fill-rule="evenodd"/><path d="m81.599 77.452h281.843v388.872h-281.843z" fill="#f3f3ff"/><path d="m127.09 96.577h190.863v-54.801h-63.655c0-17.55-14.227-31.776-31.776-31.776s-31.776 14.227-31.776 31.776h-63.656zm95.431-65.952c6.159 0 11.151 4.992 11.151 11.151s-4.992 11.151-11.151 11.151-11.151-4.992-11.151-11.151 4.992-11.151 11.151-11.151z" fill="#dea368" fill-rule="evenodd"/><path d="m381.281 502c-27.785-7.445-84.796-29.959-84.796-78.049v-96.221c25.189-13.747 54.079-21.565 84.796-21.565s59.607 7.817 84.796 21.565v96.221c0 48.09-57.01 70.604-84.796 78.049z" fill="#fdc72e" fill-rule="evenodd"/><path d="m381.281 502c-2.444-.655-5.118-1.429-7.956-2.324-26.539-13.298-55.09-36.545-55.09-73.827v-108.139c19.588-7.458 40.84-11.544 63.046-11.544 30.717 0 59.607 7.817 84.796 21.565v96.221c0 48.09-57.01 70.604-84.796 78.049z" fill="#fddb1e" fill-rule="evenodd"/><circle cx="381.281" cy="398.548" fill="#ee8700" r="58.679" transform="matrix(.707 -.707 .707 .707 -170.141 386.338)"/><g fill-rule="evenodd"><path d="m390.656 340.618c27.951 4.489 49.304 28.714 49.304 57.93s-21.353 53.442-49.304 57.931c-27.95-4.489-49.304-28.714-49.304-57.931s21.353-53.442 49.304-57.93z" fill="#f89b00"/><path d="m354.233 405.129c-1.993-2.627-1.479-6.374 1.148-8.367s6.374-1.479 8.367 1.148l8.595 11.302 26.468-34.802c1.993-2.627 5.74-3.142 8.367-1.148 2.627 1.993 3.142 5.74 1.148 8.367l-31.161 40.971c-.334.457-.739.874-1.213 1.234-2.627 1.993-6.374 1.479-8.367-1.148l-13.353-17.557z" fill="#e37200"/><path d="m121.057 425.931c-1.993-2.627-1.479-6.374 1.148-8.367s6.374-1.479 8.367 1.148l4.094 5.383 15.943-20.962c1.993-2.628 5.739-3.142 8.367-1.148 2.627 1.993 3.142 5.74 1.148 8.367l-20.635 27.132c-.335.457-.739.874-1.213 1.234-2.627 1.993-6.374 1.479-8.367-1.148zm0-247.439c-1.993-2.627-1.479-6.374 1.148-8.367s6.374-1.479 8.367 1.148l4.094 5.384 15.943-20.962c1.993-2.627 5.739-3.142 8.367-1.148 2.627 1.993 3.142 5.74 1.148 8.367l-20.635 27.132c-.335.457-.739.874-1.213 1.234-2.627 1.993-6.374 1.479-8.367-1.148l-8.852-11.639zm0 49.488c-1.993-2.627-1.479-6.374 1.148-8.367s6.374-1.479 8.367 1.148l4.094 5.384 15.943-20.963c1.993-2.627 5.739-3.142 8.367-1.148 2.627 1.993 3.142 5.74 1.148 8.367l-20.635 27.132c-.335.457-.739.874-1.213 1.234-2.627 1.993-6.374 1.479-8.367-1.148zm0 49.488c-1.993-2.628-1.479-6.374 1.148-8.367s6.374-1.479 8.367 1.148l4.094 5.384 15.943-20.962c1.993-2.627 5.739-3.142 8.367-1.148 2.627 1.993 3.142 5.74 1.148 8.367l-20.635 27.132c-.335.457-.739.874-1.213 1.234-2.627 1.993-6.374 1.479-8.367-1.148l-8.852-11.639zm0 49.488c-1.993-2.628-1.479-6.374 1.148-8.367s6.374-1.479 8.367 1.148l4.094 5.384 15.943-20.962c1.993-2.627 5.739-3.142 8.367-1.148 2.627 1.993 3.142 5.74 1.148 8.367l-20.635 27.132c-.335.457-.739.874-1.213 1.234-2.627 1.993-6.374 1.479-8.367-1.148l-8.852-11.639zm0 49.488c-1.993-2.627-1.479-6.374 1.148-8.367s6.374-1.479 8.367 1.148l4.094 5.383 15.943-20.962c1.993-2.627 5.739-3.142 8.367-1.148 2.627 1.993 3.142 5.74 1.148 8.367l-20.635 27.132c-.335.457-.739.874-1.213 1.234-2.627 1.993-6.374 1.479-8.367-1.148z" fill="#4fe88e"/><path d="m191.685 376.864c-3.314 0-6-2.686-6-6s2.686-6 6-6h72.028c3.314 0 6 2.686 6 6s-2.686 6-6 6z" fill="#6875b0"/><path d="m191.685 327.376c-3.314 0-6-2.686-6-6s2.686-6 6-6h72.028c3.314 0 6 2.686 6 6s-2.686 6-6 6z" fill="#6875b0"/><path d="m191.685 277.888c-3.314 0-6-2.686-6-6s2.686-6 6-6h127.542c3.314 0 6 2.686 6 6s-2.686 6-6 6z" fill="#6875b0"/><path d="m191.685 228.4c-3.314 0-6-2.686-6-6s2.686-6 6-6h127.542c3.314 0 6 2.686 6 6s-2.686 6-6 6z" fill="#6875b0"/><path d="m191.685 178.913c-3.314 0-6-2.686-6-6s2.686-6 6-6h127.542c3.314 0 6 2.686 6 6s-2.686 6-6 6z" fill="#6875b0"/><path d="m125.815 129.425c-3.314 0-6-2.686-6-6s2.686-6 6-6h193.413c3.314 0 6 2.686 6 6s-2.686 6-6 6z" fill="#6875b0"/><path d="m191.685 426.352c-3.314 0-6-2.686-6-6s2.686-6 6-6h72.028c3.314 0 6 2.686 6 6s-2.686 6-6 6z" fill="#6875b0"/></g><path d="m81.599 77.452h29.323v388.872h-29.323z" fill="#e5e5ff"/><path d="m127.09 41.776h27.709v54.801h-27.709z" fill="#d3975b"/></svg>